<svg width="127" height="37" viewBox="0 0 127 37" fill="none" xmlns="http://www.w3.org/2000/svg">
<path d="M50.6155 27.3303C49.2392 27.3303 47.9914 27.1009 46.872 26.6422C45.771 26.1651 44.8993 25.4678 44.2571 24.5502C43.6148 23.6327 43.2662 22.5042 43.2111 21.1646H47.6152C47.6335 21.6968 47.7712 22.1647 48.0281 22.5684C48.285 22.9721 48.6336 23.2932 49.074 23.5318C49.5144 23.752 50.0282 23.8621 50.6155 23.8621C51.1109 23.8621 51.5421 23.7887 51.9092 23.6419C52.2945 23.4767 52.5973 23.2474 52.8175 22.9538C53.0377 22.6418 53.1478 22.2565 53.1478 21.7977C53.1478 21.3206 53.0193 20.9169 52.7624 20.5866C52.5055 20.2379 52.1569 19.9443 51.7165 19.7058C51.2761 19.4489 50.7623 19.2195 50.1751 19.0176C49.6062 18.7974 48.9915 18.5864 48.3308 18.3845C46.8078 17.8891 45.6334 17.2193 44.8076 16.3752C44.0002 15.5311 43.5965 14.4025 43.5965 12.9896C43.5965 11.8151 43.8809 10.8151 44.4498 9.98929C45.037 9.14517 45.8352 8.50291 46.8445 8.06251C47.8537 7.6221 49.0006 7.4019 50.2852 7.4019C51.6064 7.4019 52.7624 7.63128 53.7534 8.09003C54.7626 8.53044 55.5609 9.18187 56.1481 10.0443C56.7536 10.8885 57.0748 11.8977 57.1115 13.0721H52.6799C52.6615 12.6684 52.5422 12.3014 52.322 11.9711C52.1202 11.6408 51.8358 11.3747 51.4687 11.1729C51.1201 10.971 50.7072 10.8701 50.2301 10.8701C49.808 10.8518 49.4227 10.916 49.074 11.0628C48.7254 11.1912 48.4501 11.4023 48.2483 11.6959C48.0464 11.9711 47.9455 12.3198 47.9455 12.7418C47.9455 13.1455 48.0464 13.5034 48.2483 13.8153C48.4685 14.1089 48.7621 14.3658 49.1291 14.586C49.5144 14.7879 49.9548 14.9806 50.4503 15.1641C50.9641 15.3476 51.5238 15.5311 52.1294 15.7146C53.1019 16.0449 53.9919 16.4394 54.7993 16.8982C55.6251 17.3386 56.2857 17.9258 56.7812 18.6598C57.295 19.3755 57.5519 20.3297 57.5519 21.5224C57.5519 22.5684 57.2766 23.5318 56.7261 24.4126C56.1939 25.2934 55.4141 25.9999 54.3864 26.5321C53.3772 27.0642 52.1202 27.3303 50.6155 27.3303ZM59.5703 27V7.7322H72.4797V11.0628H63.6991V15.6045H71.6539V18.7974H63.6991V23.6694H72.4797V27H59.5703ZM83.6245 27.3303C81.7344 27.3303 80.0737 26.9082 78.6424 26.0641C77.211 25.22 76.0825 24.0548 75.2567 22.5684C74.4493 21.0637 74.0456 19.3296 74.0456 17.3661C74.0456 15.4026 74.4493 13.6777 75.2567 12.1913C76.0825 10.6866 77.211 9.51218 78.6424 8.66807C80.0737 7.82395 81.7344 7.4019 83.6245 7.4019C85.5145 7.4019 87.1844 7.82395 88.6341 8.66807C90.0838 9.51218 91.2031 10.6866 91.9922 12.1913C92.7996 13.6777 93.2033 15.4026 93.2033 17.3661C93.2033 19.3296 92.7996 21.0637 91.9922 22.5684C91.2031 24.0548 90.0838 25.22 88.6341 26.0641C87.1844 26.9082 85.5145 27.3303 83.6245 27.3303ZM83.6245 23.6144C84.7438 23.6144 85.698 23.3575 86.4871 22.8437C87.2945 22.3299 87.9184 21.6142 88.3588 20.6967C88.7992 19.7608 89.0194 18.6506 89.0194 17.3661C89.0194 16.0816 88.7992 14.9806 88.3588 14.0631C87.9184 13.1272 87.2945 12.4115 86.4871 11.9161C85.698 11.4023 84.7438 11.1454 83.6245 11.1454C82.5418 11.1454 81.5968 11.4023 80.7893 11.9161C79.9819 12.4115 79.358 13.1272 78.9176 14.0631C78.4772 14.9806 78.257 16.0816 78.257 17.3661C78.257 18.6506 78.4772 19.7608 78.9176 20.6967C79.358 21.6142 79.9819 22.3299 80.7893 22.8437C81.5968 23.3575 82.5418 23.6144 83.6245 23.6144Z" fill="#FF4438"/>
<path d="M95.1888 27V7.7322H102.676C104.235 7.7322 105.529 8.00746 106.557 8.55797C107.603 9.09012 108.373 9.80579 108.869 10.7049C109.383 11.6041 109.64 12.6042 109.64 13.7052C109.64 14.7328 109.392 15.6962 108.896 16.5954C108.419 17.4946 107.667 18.2194 106.639 18.7699C105.612 19.3204 104.281 19.5957 102.648 19.5957H99.3176V27H95.1888ZM105.125 27L101.244 18.5772H105.676L109.805 27H105.125ZM99.3176 16.6229H102.428C103.456 16.6229 104.208 16.3752 104.685 15.8797C105.181 15.3843 105.428 14.7145 105.428 13.8704C105.428 13.0446 105.181 12.3932 104.685 11.9161C104.208 11.4206 103.456 11.1729 102.428 11.1729H99.3176V16.6229ZM111.721 27V7.7322H124.631V11.0628H115.85V15.6045H123.805V18.7974H115.85V23.6694H124.631V27H111.721Z" fill="white"/>
<rect width="37" height="37" rx="6" fill="url(#paint0_linear_194_3137)"/>
<g clip-path="url(#clip0_194_3137)">
<path d="M28.4384 8.56157C26.7865 6.90981 24.5902 6 22.254 6C19.9179 6 17.7218 6.90981 16.0698 8.56157C14.4179 10.2135 13.5083 12.4098 13.5083 14.746C13.5083 16.8362 14.2367 18.8145 15.5732 20.3909L13.8049 22.1592C12.8983 21.6919 11.7549 21.8377 10.9959 22.5966L6.70572 26.887C6.25063 27.3421 6 27.9471 6 28.5906C6 29.2342 6.25063 29.8392 6.70572 30.2943C7.1755 30.7639 7.79234 30.9989 8.40936 30.9989C9.02639 30.9989 9.64323 30.7639 10.113 30.2943L14.4034 26.0039C14.8585 25.549 15.1091 24.944 15.1091 24.3002C15.1091 23.909 15.0164 23.532 14.8415 23.1944L16.6091 21.4266C18.1857 22.7633 20.164 23.4917 22.2542 23.4917C24.5904 23.4917 26.7867 22.5819 28.4384 20.9302C30.0902 19.2782 31 17.0821 31 14.7458C31 12.4098 30.0902 10.2135 28.4384 8.56157ZM13.3675 24.9682L9.07713 29.2586C8.70901 29.6267 8.10972 29.6267 7.74141 29.2586C7.56307 29.0801 7.46484 28.843 7.46484 28.5906C7.46484 28.3383 7.56307 28.1012 7.74141 27.9227L12.0318 23.6325C12.3999 23.2642 12.9992 23.2642 13.3675 23.6325C13.7358 24.0008 13.7358 24.5999 13.3675 24.9682ZM27.4025 19.8943C26.0274 21.2695 24.199 22.0269 22.254 22.0269C20.3093 22.0269 18.4809 21.2695 17.1057 19.8943C15.7305 18.5191 14.9731 16.6907 14.9731 14.746C14.9731 12.801 15.7305 10.9726 17.1057 9.59745C18.4809 8.22225 20.3093 7.46484 22.254 7.46484C24.199 7.46484 26.0274 8.22225 27.4025 9.59745C28.7777 10.9726 29.5352 12.801 29.5352 14.7458C29.5352 16.6907 28.7777 18.5191 27.4025 19.8943Z" fill="white"/>
<path d="M18.5431 14.7949C18.1387 14.7949 17.8107 15.1228 17.8107 15.5273V17.8713C17.8107 18.2758 18.1387 18.6037 18.5431 18.6037C18.9476 18.6037 19.2755 18.2758 19.2755 17.8713V15.5273C19.2755 15.1228 18.9476 14.7949 18.5431 14.7949Z" fill="white"/>
<path d="M20.9845 12.3535C20.5801 12.3535 20.2521 12.6814 20.2521 13.0859V17.8713C20.2521 18.2758 20.5801 18.6037 20.9845 18.6037C21.389 18.6037 21.7169 18.2758 21.7169 17.8713V13.0859C21.7169 12.6814 21.389 12.3535 20.9845 12.3535Z" fill="white"/>
<path d="M23.4259 13.3301C23.0215 13.3301 22.6935 13.658 22.6935 14.0625V17.8713C22.6935 18.2758 23.0215 18.6037 23.4259 18.6037C23.8305 18.6037 24.1583 18.2758 24.1583 17.8713V14.0625C24.1583 13.658 23.8305 13.3301 23.4259 13.3301Z" fill="white"/>
<path d="M25.8673 10.8887C25.463 10.8887 25.1349 11.2165 25.1349 11.6211V17.8713C25.1349 18.2758 25.463 18.6037 25.8673 18.6037C26.2719 18.6037 26.5997 18.2758 26.5997 17.8713V11.6211C26.5997 11.2165 26.2719 10.8887 25.8673 10.8887Z" fill="white"/>
</g>
<defs>
<linearGradient id="paint0_linear_194_3137" x1="18.5" y1="0" x2="18.5" y2="37" gradientUnits="userSpaceOnUse">
<stop stop-color="#FE4139"/>
<stop offset="1" stop-color="#FFBE36"/>
</linearGradient>
<clipPath id="clip0_194_3137">
<rect width="25" height="25" fill="white" transform="translate(6 6)"/>
</clipPath>
</defs>
</svg>
