<svg width="48" height="48" viewBox="0 0 48 48" fill="none" xmlns="http://www.w3.org/2000/svg">
<path d="M44.6371 3.45215H3.36281C1.92216 3.45215 0.75 4.62431 0.75 6.06496V36.4365C0.75 37.8772 1.92216 39.0494 3.36281 39.0494H16.5042V43.7983C16.5042 44.2125 16.84 44.5483 17.2542 44.5483H20.6023C21.0165 44.5483 21.3523 44.2125 21.3523 43.7983V39.0494H23.6355V43.7983C23.6355 44.2125 23.9713 44.5483 24.3855 44.5483H27.7337C28.1479 44.5483 28.4837 44.2125 28.4837 43.7983V39.0494H30.7668V43.7983C30.7668 44.2125 31.1026 44.5483 31.5168 44.5483H34.8651C35.2793 44.5483 35.6151 44.2125 35.6151 43.7983V39.0494H37.8983V43.7983C37.8983 44.2125 38.2341 44.5483 38.6483 44.5483H41.9963C42.4105 44.5483 42.7463 44.2125 42.7463 43.7983V39.0494H44.6373C46.078 39.0494 47.2502 37.8772 47.2502 36.4365V6.06496C47.25 4.62431 46.0778 3.45215 44.6371 3.45215ZM3.36281 4.95215H44.6371C45.2508 4.95215 45.75 5.45137 45.75 6.06496V10.5369H2.25V6.06496C2.25 5.45146 2.74922 4.95215 3.36281 4.95215ZM19.8523 43.0484H18.0042V38.1251H19.8523V43.0484ZM26.9836 43.0484H25.1354V32.4763H26.9836V43.0484ZM34.115 43.0484H32.2667V34.7598H34.115V43.0484ZM41.2462 43.0484H39.3981V28.0843H41.2462V43.0484ZM44.6371 37.5494H42.7462V27.3343C42.7462 26.9201 42.4103 26.5843 41.9962 26.5843H38.6481C38.2339 26.5843 37.8981 26.9201 37.8981 27.3343V37.5494H35.6149V34.0097C35.6149 33.5955 35.2791 33.2597 34.8649 33.2597H31.5166C31.1024 33.2597 30.7666 33.5955 30.7666 34.0097V37.5494H28.4835V31.7263C28.4835 31.3121 28.1477 30.9763 27.7335 30.9763H24.3853C23.9711 30.9763 23.6353 31.3121 23.6353 31.7263V37.5494H21.3521V37.3751C21.3521 36.9609 21.0163 36.6251 20.6021 36.6251H17.254C16.8398 36.6251 16.504 36.9609 16.504 37.3751V37.5494H3.36281C2.74922 37.5494 2.25 37.0502 2.25 36.4365V12.037H45.75V36.4366C45.75 37.0502 45.2508 37.5494 44.6371 37.5494ZM6.38588 7.74459C6.38588 7.14327 6.87328 6.65587 7.47459 6.65587C8.07591 6.65587 8.56331 7.14327 8.56331 7.74459C8.56331 8.3459 8.07591 8.8333 7.47459 8.8333C6.87328 8.8333 6.38588 8.3459 6.38588 7.74459ZM14.7443 7.74459C14.7443 7.14327 15.2317 6.65587 15.833 6.65587C16.4343 6.65587 16.9217 7.14327 16.9217 7.74459C16.9217 8.3459 16.4343 8.8333 15.833 8.8333C15.2317 8.8333 14.7443 8.3459 14.7443 7.74459ZM10.5651 7.74459C10.5651 7.14327 11.0525 6.65587 11.6538 6.65587C12.2551 6.65587 12.7425 7.14327 12.7425 7.74459C12.7425 8.3459 12.2551 8.8333 11.6538 8.8333C11.0525 8.8333 10.5651 8.3459 10.5651 7.74459ZM40.2378 22.1844C40.3808 22.358 40.4386 22.5864 40.3949 22.807L39.8783 25.4208C39.8077 25.7781 39.4942 26.0255 39.1433 26.0256C39.0951 26.0256 39.0462 26.0208 38.9971 26.0111C38.5907 25.9309 38.3264 25.5364 38.4068 25.1301L38.4827 24.7461L33.6956 29.1011C33.4781 29.2989 33.165 29.3517 32.8946 29.2354L26.1649 26.3415L19.3818 31.4919C19.2462 31.595 19.0868 31.6446 18.9288 31.6446C18.7023 31.6446 18.4784 31.5425 18.3309 31.3482C18.0804 31.0183 18.1448 30.5479 18.4747 30.2974L25.6058 24.8826C25.821 24.7191 26.1076 24.6841 26.3557 24.7908L33.0434 27.6666L37.7124 23.4189L36.9976 23.4216C36.9967 23.4216 36.9956 23.4216 36.9948 23.4216C36.5819 23.4216 36.2465 23.0876 36.2449 22.6743C36.2434 22.2601 36.578 21.9231 36.9922 21.9216L39.6564 21.9118H39.6592C39.883 21.9116 40.0953 22.0116 40.2378 22.1844ZM19.8452 26.385C19.9875 26.2267 20.0558 26.0154 20.0331 25.8038C19.9686 25.2015 19.806 24.6322 19.5628 24.1105H24.8104C25.0232 24.1105 25.226 24.0201 25.3682 23.8619C25.5104 23.7036 25.5788 23.4923 25.5561 23.2807C25.3509 21.3632 24.1541 19.7793 22.5067 19.0109C23.0082 18.4637 23.315 17.7351 23.315 16.9361C23.315 15.2414 21.9362 13.8626 20.2415 13.8626C18.5467 13.8626 17.1679 15.2414 17.1679 16.9361C17.1679 17.2246 17.2088 17.5035 17.2833 17.7684C16.7328 16.9361 15.7889 16.3857 14.7184 16.3857C13.6478 16.3857 12.7039 16.9362 12.1534 17.7687C12.2281 17.5037 12.2689 17.2247 12.2689 16.9361C12.2689 15.2414 10.8901 13.8626 9.19538 13.8626C7.50066 13.8626 6.12188 15.2414 6.12188 16.9361C6.12188 17.7351 6.42853 18.4637 6.93019 19.0109C5.28263 19.7793 4.08591 21.3633 3.88069 23.2808C3.858 23.4924 3.92625 23.7037 4.06856 23.862C4.21088 24.0202 4.41366 24.1106 4.62638 24.1106H9.87394C9.63075 24.6323 9.46809 25.2016 9.40369 25.8039C9.381 26.0155 9.44925 26.2268 9.59156 26.3851C9.73388 26.5433 9.93666 26.6337 10.1494 26.6337H19.2875C19.5001 26.6336 19.7029 26.5432 19.8452 26.385ZM23.8823 22.6105H18.5153C18.1112 22.2035 17.6428 21.8619 17.1265 21.6021C17.8411 20.6163 18.9947 20.0095 20.2414 20.0095C21.9214 20.0095 23.364 21.0818 23.8823 22.6105ZM20.2414 15.3624C21.109 15.3624 21.8149 16.0683 21.8149 16.9359C21.8149 17.8036 21.109 18.5094 20.2414 18.5094C19.3737 18.5094 18.6678 17.8036 18.6678 16.9359C18.6678 16.0683 19.3737 15.3624 20.2414 15.3624ZM17.9787 19.0136C17.9091 19.0462 17.8403 19.0806 17.7723 19.1162C17.7535 18.9486 17.7211 18.7851 17.6765 18.6268C17.767 18.7637 17.868 18.8931 17.9787 19.0136ZM14.7183 17.8855C15.586 17.8855 16.2919 18.5914 16.2919 19.459C16.2919 20.3262 15.5867 21.0319 14.7195 21.0325C14.7191 21.0325 14.7187 21.0325 14.7183 21.0325C14.7179 21.0325 14.7174 21.0325 14.7171 21.0325C13.85 21.0319 13.1448 20.3262 13.1448 19.459C13.1448 18.5915 13.8506 17.8855 14.7183 17.8855ZM11.6644 19.1162C11.5962 19.0806 11.5275 19.0462 11.4578 19.0136C11.5687 18.8931 11.6697 18.7636 11.7604 18.6265C11.7157 18.7851 11.6831 18.9485 11.6644 19.1162ZM7.62178 16.9359C7.62178 16.0683 8.32763 15.3624 9.19528 15.3624C10.0629 15.3624 10.7688 16.0683 10.7688 16.9359C10.7688 17.8036 10.0629 18.5094 9.19528 18.5094C8.32763 18.5094 7.62178 17.8036 7.62178 16.9359ZM5.55431 22.6105C6.07256 21.0818 7.51519 20.0095 9.19528 20.0095C10.4419 20.0095 11.5956 20.6163 12.31 21.6022C11.7938 21.862 11.3254 22.2036 10.9213 22.6106H5.55431V22.6105ZM11.0773 25.1336C11.5954 23.6056 13.0371 22.5336 14.7162 22.5326H14.7182C14.7182 22.5326 14.7195 22.5326 14.7202 22.5326C16.3994 22.5335 17.841 23.6056 18.3591 25.1336H11.0773Z" fill="url(#paint0_linear_194_2454)"/>
<defs>
<linearGradient id="paint0_linear_194_2454" x1="24.0001" y1="3.45215" x2="24.0001" y2="44.5483" gradientUnits="userSpaceOnUse">
<stop stop-color="#FE4139"/>
<stop offset="1" stop-color="#FFBE36"/>
</linearGradient>
</defs>
</svg>
