<svg width="55" height="55" viewBox="0 0 55 55" fill="none" xmlns="http://www.w3.org/2000/svg">
<path d="M4.68786 26.3776H14.4394C15.911 26.3776 17.1131 25.1712 17.1131 23.6944V13.908C17.1131 12.4312 15.911 11.2248 14.4394 11.2248H4.68786C3.21632 11.2248 2.01422 12.4312 2.01422 13.908V23.6944C2.01422 25.1816 3.21632 26.3776 4.68786 26.3776ZM3.46503 13.908C3.46503 13.232 4.01427 12.6808 4.68786 12.6808H14.4394C15.113 12.6808 15.6622 13.232 15.6622 13.908V23.6944C15.6622 24.3704 15.113 24.9216 14.4394 24.9216H4.68786C4.01427 24.9216 3.46503 24.3704 3.46503 23.6944V13.908ZM9.56882 22.8C11.7658 22.8 13.5482 21.0112 13.5482 18.8064C13.5482 16.6016 11.7658 14.8128 9.56882 14.8128C7.37187 14.8128 5.58944 16.6016 5.58944 18.8064C5.58944 21.0112 7.37187 22.8 9.56882 22.8ZM9.56882 16.2688C10.9678 16.2688 12.0974 17.4024 12.0974 18.8064C12.0974 20.2104 10.9575 21.344 9.56882 21.344C8.18018 21.344 7.04025 20.2 7.04025 18.8064C7.04025 17.4128 8.16982 16.2688 9.56882 16.2688ZM42.7303 36.736H31.4761C29.8388 36.736 28.502 38.0776 28.502 39.7208V51.0152C28.502 52.6584 29.8388 54 31.4761 54H42.7303C44.3676 54 45.7045 52.6584 45.7045 51.0152V39.7208C45.7045 38.0776 44.3676 36.736 42.7303 36.736ZM44.2537 51.0152C44.2537 51.8576 43.5697 52.544 42.7303 52.544H31.4761C30.6367 52.544 29.9528 51.8576 29.9528 51.0152V39.7208C29.9528 38.8784 30.6367 38.192 31.4761 38.192H42.7303C43.5697 38.192 44.2537 38.8784 44.2537 39.7208V51.0152ZM40.8753 41.6344L37.725 39.804C37.497 39.6688 37.2276 39.6688 36.9996 39.804C36.7716 39.9392 36.6369 40.1784 36.6369 40.4384V46.148C36.3053 45.9816 35.9218 45.888 35.528 45.888C34.1187 45.888 32.9684 47.0424 32.9684 48.4568C32.9684 49.8712 34.1187 51.0256 35.528 51.0256C36.9374 51.0256 38.0877 49.8712 38.0877 48.4568C38.0877 48.384 38.0877 48.3008 38.0773 48.228C38.0877 48.1864 38.0877 48.1448 38.0877 48.1136V41.6968L40.1499 42.8928C40.5023 43.0904 40.9375 42.976 41.1448 42.6224C41.352 42.2688 41.2277 41.832 40.8753 41.6344ZM35.528 49.5696C34.9166 49.5696 34.4192 49.0704 34.4192 48.4568C34.4192 47.8432 34.9166 47.344 35.528 47.344C36.1395 47.344 36.6369 47.8432 36.6369 48.4568C36.6369 49.0704 36.1395 49.5696 35.528 49.5696ZM25.7247 36.4136H22.6054H16.3462H10.0662H9.08176L25.1651 32.0872C25.3516 32.0352 25.5071 31.9208 25.6107 31.744C25.7143 31.5672 25.735 31.38 25.6832 31.1928L24.9164 28.3432C24.5433 26.9288 23.0925 26.0864 21.6831 26.4712L17.2478 27.6568L11.1958 29.2896L3.96245 31.224C3.2785 31.4112 2.70853 31.848 2.35619 32.4616C2.00385 33.0752 1.91059 33.7928 2.08676 34.4688L2.82253 37.2248V51.3376C2.82253 52.7936 4.00391 53.9896 5.46508 53.9896H23.7868C25.248 53.9896 26.4294 52.804 26.4294 51.3376V37.1416C26.4501 36.736 26.1185 36.4136 25.7247 36.4136ZM24.9993 41.2808H20.6157L22.9681 37.8592H24.9993V41.2808ZM14.3461 41.2808L16.6985 37.8592H21.1961L18.8437 41.2808H14.3461ZM8.07655 41.2808L10.4289 37.8592H14.9368L12.5844 41.2808H8.07655ZM4.29407 41.2808V37.8592H8.6776L6.32521 41.2808H4.29407ZM11.2062 30.7872L14.3565 33.4808L10.0041 34.656L6.84336 31.9624L11.2062 30.7872ZM17.2581 29.1648L20.4085 31.8584L16.056 33.0336L12.9057 30.34L17.2581 29.1648ZM22.0458 27.8752C22.1495 27.844 22.2531 27.8336 22.3567 27.8336C22.8852 27.8336 23.3619 28.1872 23.507 28.7176L24.077 30.8704L22.1184 31.4008L18.968 28.7072L22.0458 27.8752ZM3.62048 33.1896C3.77592 32.9088 4.03499 32.7112 4.34588 32.628L5.15419 32.4096L8.3149 35.1032L4.08681 36.2368L3.51685 34.084C3.42358 33.7928 3.46503 33.4704 3.62048 33.1896ZM23.8075 52.544H5.47545C4.82258 52.544 4.28371 52.0136 4.28371 51.348V42.7368H6.68791H12.9471H19.2064H24.9682V51.348C24.9993 52.0136 24.4604 52.544 23.8075 52.544ZM18.0664 47.1464L12.885 44.1408C12.657 44.0056 12.3875 44.0056 12.1596 44.1408C11.9316 44.276 11.7969 44.5152 11.7969 44.7752V50.776C11.7969 51.036 11.9316 51.2752 12.1596 51.4104C12.2736 51.4728 12.3979 51.504 12.5223 51.504C12.6466 51.504 12.771 51.4728 12.885 51.4104L18.0664 48.4048C18.2944 48.2696 18.4291 48.0304 18.4291 47.7704C18.4291 47.5104 18.2841 47.2712 18.0664 47.1464ZM13.2373 49.5176V46.0336L16.2426 47.7704L13.2373 49.5176ZM30.3258 27.7504C30.0046 28.104 29.8284 28.5824 29.8284 29.0504C29.8284 29.456 29.9631 29.872 30.2015 30.2152C29.9528 30.5584 29.8284 30.9744 29.8284 31.38C29.8284 32.2952 30.4813 33.2728 31.7041 33.2728H31.9735L32.5746 34.1672C33.0409 34.864 33.7871 35.2592 34.6265 35.2592H37.2379C38.067 35.2592 38.8235 34.864 39.2898 34.1672L39.8909 33.2728H40.1603C41.3728 33.2728 42.036 32.2952 42.036 31.38C42.036 30.9744 41.9013 30.5584 41.6629 30.2152C41.9116 29.872 42.036 29.456 42.036 29.0504C42.036 28.5928 41.8702 28.1248 41.5593 27.7712C41.6111 27.688 41.6733 27.6048 41.7355 27.5216C43.4453 25.088 45.3729 22.332 45.3729 19.1184C45.3729 13.8976 41.1344 9.644 35.9322 9.644C30.73 9.644 26.4915 13.8976 26.4915 19.1184C26.4915 22.3112 28.4087 25.0256 30.0978 27.4176C30.1704 27.532 30.2533 27.6464 30.3258 27.7504ZM40.5748 29.0504C40.5748 29.2064 40.523 29.4872 40.1499 29.4872H31.6937C31.331 29.4872 31.2689 29.2168 31.2689 29.0504C31.2689 28.8944 31.3207 28.6136 31.6937 28.6136H40.1499C40.523 28.6136 40.5748 28.884 40.5748 29.0504ZM38.0877 33.3352C37.8908 33.6264 37.6006 33.7824 37.2483 33.7824H34.6368C34.2845 33.7824 33.9943 33.6264 33.7974 33.3352L33.7456 33.252H38.1499L38.0877 33.3352ZM40.1603 31.8064H31.7041C31.3414 31.8064 31.2792 31.536 31.2792 31.3696C31.2792 31.2136 31.331 30.9328 31.7041 30.9328H40.1603C40.523 30.9328 40.5852 31.2032 40.5852 31.3696C40.5748 31.536 40.523 31.8064 40.1603 31.8064ZM35.9322 11.1C40.3365 11.1 43.922 14.6984 43.922 19.1184C43.922 21.8744 42.2018 24.3184 40.5437 26.6896C40.4297 26.8456 40.3261 27.012 40.2121 27.168H31.6834C31.5487 26.9704 31.4139 26.7832 31.2792 26.5856C29.6419 24.256 27.9424 21.8536 27.9424 19.1184C27.9424 14.6984 31.5279 11.1 35.9322 11.1ZM23.8593 8.0528C23.5795 7.772 23.5795 7.304 23.8593 7.0232C24.1391 6.7424 24.6055 6.7424 24.8853 7.0232L27.362 9.5088C27.6418 9.7896 27.6418 10.2576 27.362 10.5384C27.2169 10.684 27.0304 10.7568 26.8542 10.7568C26.6781 10.7568 26.4812 10.684 26.3465 10.5384L23.8593 8.0528ZM18.8644 19.1288C18.8644 18.7232 19.1856 18.4008 19.5898 18.4008H23.0925C23.4966 18.4008 23.8179 18.7232 23.8179 19.1288C23.8179 19.5344 23.4966 19.8568 23.0925 19.8568H19.5898C19.1856 19.8568 18.8644 19.5344 18.8644 19.1288ZM35.2068 6.2432V2.728C35.2068 2.3224 35.528 2 35.9322 2C36.3364 2 36.6576 2.3224 36.6576 2.728V6.2432C36.6576 6.6488 36.3364 6.9712 35.9322 6.9712C35.528 6.9712 35.2068 6.6488 35.2068 6.2432ZM53 19.1288C53 19.5344 52.6787 19.8568 52.2746 19.8568H48.7719C48.3678 19.8568 48.0465 19.5344 48.0465 19.1288C48.0465 18.7232 48.3678 18.4008 48.7719 18.4008H52.2746C52.6787 18.4008 53 18.7336 53 19.1288ZM48.0051 8.0528L45.5283 10.5384C45.3832 10.684 45.1967 10.7568 45.0102 10.7568C44.8236 10.7568 44.6371 10.684 44.492 10.5384C44.2122 10.2576 44.2122 9.7896 44.492 9.5088L46.9688 7.0232C47.2486 6.7424 47.7149 6.7424 47.9947 7.0232C48.2849 7.304 48.2848 7.7616 48.0051 8.0528ZM33.1549 24.9736C33.2689 25.036 33.3933 25.0672 33.5176 25.0672C33.642 25.0672 33.7663 25.036 33.8803 24.9736L40.637 21.0528C40.865 20.9176 40.9997 20.6784 40.9997 20.4184C40.9997 20.1584 40.865 19.9192 40.637 19.784L33.8803 15.8632C33.6523 15.728 33.3829 15.728 33.1549 15.8632C32.9269 15.9984 32.7922 16.2376 32.7922 16.4976V24.3288C32.7922 24.6096 32.9269 24.8488 33.1549 24.9736ZM34.243 17.7768L38.8235 20.4288L34.243 23.0912V17.7768Z" fill="url(#paint0_linear_194_2885)"/>
<defs>
<linearGradient id="paint0_linear_194_2885" x1="27.5" y1="2" x2="27.5" y2="54" gradientUnits="userSpaceOnUse">
<stop stop-color="#FE4139"/>
<stop offset="1" stop-color="#FFBE36"/>
</linearGradient>
</defs>
</svg>
