<svg width="55" height="55" viewBox="0 0 55 55" fill="none" xmlns="http://www.w3.org/2000/svg">
<g clip-path="url(#clip0_194_2831)">
<path d="M48.325 30.0629V27.5163C48.325 27.0704 47.9635 26.7091 47.5177 26.7091C47.0719 26.7091 46.7105 27.0704 46.7105 27.5163V29.3977C45.5284 29.009 44.2665 28.7978 42.9561 28.7978C42.8621 28.7978 42.7673 28.7998 42.6726 28.8021V17.4851C42.6726 17.0392 42.3111 16.6778 41.8653 16.6778H41.5458L44.6915 13.3335L47.8371 16.6778H47.5176C47.0718 16.6778 46.7104 17.0392 46.7104 17.4851V24.366C46.7104 24.8119 47.0717 25.1733 47.5176 25.1733C47.9635 25.1733 48.3249 24.8119 48.3249 24.366V18.2923H49.7046C50.3907 18.3151 50.7792 17.4161 50.2927 16.9321L45.2795 11.6024C44.9767 11.2665 44.4063 11.2665 44.1036 11.6024L39.0904 16.9321C38.6038 17.4162 38.9924 18.3151 39.6784 18.2923H41.0581V24.3487C40.0186 22.5972 38.5373 21.142 36.7729 20.1325V10.3249H38.1526C38.8387 10.3476 39.2271 9.44851 38.7406 8.96458L33.7275 3.63506C33.4246 3.29915 32.8542 3.29915 32.5515 3.63506L27.5383 8.96458C27.0516 9.44862 27.4404 10.3477 28.1264 10.3249H29.5061V18.6782C27.9703 18.8675 26.5211 19.3536 25.2209 20.0812V16.0133H26.6007C27.2868 16.0361 27.6752 15.1369 27.1887 14.6529L22.1755 9.32337C21.8727 8.98746 21.3023 8.98746 20.9996 9.32337L15.9864 14.6529C15.4998 15.137 15.8884 16.0359 16.5744 16.0133H17.9542V27.0827C17.5708 27.04 17.1842 27.0175 16.795 27.0175C15.7063 27.0175 14.6562 27.186 13.6689 27.4971V9.05621H15.0486C15.7347 9.07898 16.1232 8.17997 15.6367 7.69593L10.6233 2.36619C10.3206 2.03028 9.75004 2.03028 9.44732 2.36619L4.43405 7.69582C3.94732 8.17997 4.33608 9.07888 5.02208 9.0561H6.40181V15.6775C6.40181 16.1234 6.76328 16.4848 7.20908 16.4848C7.65488 16.4848 8.01636 16.1234 8.01636 15.6775V8.24893C8.01636 7.80303 7.65499 7.44166 7.20908 7.44166H6.88961L10.0352 4.0974L13.1809 7.44166H12.8614C12.4156 7.44166 12.0541 7.80303 12.0541 8.24893V28.16C10.4058 29.0056 9.01119 30.2777 8.01614 31.8298V18.9066C8.01614 18.4607 7.65478 18.0993 7.20887 18.0993C6.76307 18.0993 6.40159 18.4607 6.40159 18.9066V36.6884C6.39901 36.7251 6.39579 36.7617 6.39354 36.7985C2.70359 37.6053 0 40.9073 0 44.747C0 49.2346 3.65095 52.8855 8.1385 52.8855H32.9626C33.4084 52.8855 33.7699 52.5242 33.7699 52.0782C33.7699 51.6323 33.4085 51.271 32.9626 51.271H8.1385C4.54115 51.271 1.61444 48.3443 1.61444 44.7469C1.61444 41.4817 4.05313 38.7015 7.28696 38.2801C7.69022 38.2276 7.99144 37.8832 7.98993 37.4766C7.98982 37.4621 7.9895 37.4477 7.98886 37.4303C7.99272 32.5779 11.9416 28.6317 16.7948 28.6317C17.8649 28.6317 18.9137 28.8233 19.9115 29.2011C20.3677 29.3869 20.9205 29.0709 20.9928 28.5839C21.8337 23.7276 26.0257 20.2027 30.9606 20.2027C36.3038 20.2027 40.7397 24.3771 41.0598 29.7062C41.1412 30.7103 42.2719 30.4073 42.9563 30.4123C48.7071 30.4123 53.3857 35.091 53.3857 40.8417C53.3857 46.5924 48.7071 51.2711 42.9563 51.2711H36.1915C35.7457 51.2711 35.3842 51.6324 35.3842 52.0784C35.3842 52.5243 35.7457 52.8856 36.1915 52.8856H42.9561C49.5971 52.8856 55 47.4827 55 40.8417C55 36.1288 52.2786 32.0402 48.325 30.0629ZM33.1394 5.36627L36.2851 8.71042H35.9657C35.5199 8.71042 35.1584 9.07178 35.1584 9.51769V19.3653C33.8997 18.8814 32.5386 18.6095 31.1205 18.5903V9.51759C31.1205 9.07168 30.7591 8.71031 30.3133 8.71031H29.9938L33.1394 5.36627ZM19.596 27.4C19.5869 27.3974 19.5775 27.3953 19.5684 27.3928V15.2059C19.5684 14.76 19.2069 14.3986 18.7611 14.3986H18.4418L21.5874 11.0545L24.733 14.3986H24.4137C23.9679 14.3986 23.6064 14.76 23.6064 15.2059V21.1706C21.6753 22.7218 20.2383 24.8806 19.596 27.4Z" fill="url(#paint0_linear_194_2831)"/>
<path d="M30.4195 36.6302C30.8653 36.6302 31.2268 36.2688 31.2268 35.8229C31.2268 35.377 30.8653 35.0156 30.4195 35.0156H26.6394C26.1936 35.0156 25.8322 35.377 25.8322 35.8229V44.7942C25.8322 45.2401 26.1936 45.6015 26.6394 45.6015H30.4195C30.8653 45.6015 31.2268 45.2401 31.2268 44.7942C31.2268 44.3483 30.8653 43.987 30.4195 43.987H27.4466V41.1158H30.1407C30.5865 41.1158 30.948 40.7544 30.948 40.3085C30.948 39.8626 30.5866 39.5012 30.1407 39.5012H27.4466V36.6301H30.4195V36.6302Z" fill="url(#paint1_linear_194_2831)"/>
<path d="M20.8506 44.0278C19.8606 44.0278 18.9047 43.6252 18.2937 42.9509C17.9943 42.6206 17.4838 42.5955 17.1534 42.8947C16.8231 43.1941 16.798 43.7046 17.0972 44.035C18.0092 45.0414 19.4123 45.6424 20.8504 45.6424C22.5729 45.6424 24.0734 44.5127 24.3409 43.0147C24.6494 41.2867 23.2906 40.1291 21.9161 39.6222C20.751 39.1924 19.6702 38.7232 19.3974 38.6034C19.1081 38.3914 18.9677 38.0528 19.0203 37.6865C19.0865 37.2253 19.4408 36.8552 19.9681 36.6965C21.4206 36.2586 22.7332 37.3112 22.7591 37.3324C23.1004 37.6168 23.6075 37.5719 23.8936 37.2315C24.1804 36.8903 24.1364 36.381 23.7951 36.0942C23.715 36.0269 21.8097 34.4558 19.5023 35.1506C18.3747 35.4903 17.5776 36.3741 17.4221 37.4571C17.2774 38.4656 17.7141 39.4352 18.5617 39.9879C18.5974 40.0112 18.6349 40.0316 18.6738 40.0489C18.7258 40.072 19.963 40.6227 21.3572 41.137C22.3581 41.5062 22.8663 42.0872 22.7514 42.7311C22.6393 43.3595 21.935 44.0278 20.8506 44.0278Z" fill="url(#paint2_linear_194_2831)"/>
<path d="M42.6899 40.3078C42.6899 37.3665 40.2969 34.9736 37.3557 34.9736C34.4144 34.9736 32.0215 37.3666 32.0215 40.3078C32.0215 43.2491 34.4144 45.6419 37.3557 45.6419C40.2969 45.642 42.6899 43.2491 42.6899 40.3078ZM33.6359 40.3078C33.6359 38.2567 35.3046 36.5881 37.3556 36.5881C39.4066 36.5881 41.0753 38.2567 41.0753 40.3078C41.0753 42.3589 39.4066 44.0275 37.3556 44.0275C35.3046 44.0276 33.6359 42.3589 33.6359 40.3078Z" fill="url(#paint3_linear_194_2831)"/>
</g>
<defs>
<linearGradient id="paint0_linear_194_2831" x1="27.5" y1="2.11426" x2="27.5" y2="52.8856" gradientUnits="userSpaceOnUse">
<stop stop-color="#FE4139"/>
<stop offset="1" stop-color="#FFBE36"/>
</linearGradient>
<linearGradient id="paint1_linear_194_2831" x1="28.5295" y1="35.0156" x2="28.5295" y2="45.6015" gradientUnits="userSpaceOnUse">
<stop stop-color="#FE4139"/>
<stop offset="1" stop-color="#FFBE36"/>
</linearGradient>
<linearGradient id="paint2_linear_194_2831" x1="20.6367" y1="34.9736" x2="20.6367" y2="45.6424" gradientUnits="userSpaceOnUse">
<stop stop-color="#FE4139"/>
<stop offset="1" stop-color="#FFBE36"/>
</linearGradient>
<linearGradient id="paint3_linear_194_2831" x1="37.3557" y1="34.9736" x2="37.3557" y2="45.6419" gradientUnits="userSpaceOnUse">
<stop stop-color="#FE4139"/>
<stop offset="1" stop-color="#FFBE36"/>
</linearGradient>
<clipPath id="clip0_194_2831">
<rect width="55" height="55" fill="white"/>
</clipPath>
</defs>
</svg>
