<svg width="24" height="25" viewBox="0 0 24 25" fill="none" xmlns="http://www.w3.org/2000/svg">
<path d="M2 12.5C2 6.97715 6.47715 2.5 12 2.5C17.5228 2.5 22 6.97715 22 12.5C22 18.0228 17.5228 22.5 12 22.5H2L4.92893 19.5711C3.11929 17.7614 2 15.2614 2 12.5ZM6.82843 20.5H12C16.4183 20.5 20 16.9183 20 12.5C20 8.08172 16.4183 4.5 12 4.5C7.58172 4.5 4 8.08172 4 12.5C4 14.6524 4.85124 16.6649 6.34315 18.1569L7.75736 19.5711L6.82843 20.5ZM8 13.5H16C16 15.7091 14.2091 17.5 12 17.5C9.79086 17.5 8 15.7091 8 13.5Z" fill="#101010"/>
</svg>
