<svg width="170" height="42" viewBox="0 0 170 42" fill="none" xmlns="http://www.w3.org/2000/svg">
<g clip-path="url(#clip0_226_9399)">
<path d="M51.8601 28.6375H63.8121V25.0375H56.1081V11.4775H51.8601V28.6375Z" fill="#101010"/>
<path d="M70.8932 26.2377C69.1892 26.2377 68.3012 24.7497 68.3012 22.5177C68.3012 20.2857 69.1892 18.7737 70.8932 18.7737C72.5972 18.7737 73.5092 20.2857 73.5092 22.5177C73.5092 24.7497 72.5972 26.2377 70.8932 26.2377ZM70.9172 29.0217C74.8772 29.0217 77.4692 26.2137 77.4692 22.5177C77.4692 18.8217 74.8772 16.0137 70.9172 16.0137C66.9812 16.0137 64.3412 18.8217 64.3412 22.5177C64.3412 26.2137 66.9812 29.0217 70.9172 29.0217Z" fill="#101010"/>
<path d="M84.3237 32.8862C86.1477 32.8862 87.7557 32.4782 88.8357 31.5182C89.8197 30.6302 90.4677 29.2862 90.4677 27.4382V16.3502H86.7237V17.6702H86.6757C85.9557 16.6382 84.8517 15.9902 83.2197 15.9902C80.1717 15.9902 78.0597 18.5342 78.0597 22.1342C78.0597 25.9022 80.6277 27.9662 83.3877 27.9662C84.8757 27.9662 85.8117 27.3662 86.5317 26.5502H86.6277V27.7742C86.6277 29.2622 85.9317 30.1262 84.2757 30.1262C82.9797 30.1262 82.3317 29.5742 82.1157 28.9262H78.3237C78.7077 31.4942 80.9397 32.8862 84.3237 32.8862ZM84.2997 25.0622C82.8357 25.0622 81.8757 23.8622 81.8757 22.0142C81.8757 20.1422 82.8357 18.9422 84.2997 18.9422C85.9317 18.9422 86.7957 20.3342 86.7957 21.9902C86.7957 23.7182 86.0037 25.0622 84.2997 25.0622Z" fill="#101010"/>
<path d="M98.166 26.2377C96.462 26.2377 95.574 24.7497 95.574 22.5177C95.574 20.2857 96.462 18.7737 98.166 18.7737C99.87 18.7737 100.782 20.2857 100.782 22.5177C100.782 24.7497 99.87 26.2377 98.166 26.2377ZM98.19 29.0217C102.15 29.0217 104.742 26.2137 104.742 22.5177C104.742 18.8217 102.15 16.0137 98.19 16.0137C94.254 16.0137 91.614 18.8217 91.614 22.5177C91.614 26.2137 94.254 29.0217 98.19 29.0217Z" fill="#101010"/>
<path d="M105.884 28.6375H109.796V16.3495H105.884V28.6375ZM105.884 14.6455H109.796V11.4775H105.884V14.6455Z" fill="#101010"/>
<path d="M111.494 32.6942H115.406V27.3662H115.454C116.222 28.3982 117.35 29.0222 118.934 29.0222C122.15 29.0222 124.286 26.4782 124.286 22.4942C124.286 18.7982 122.294 15.9902 119.03 15.9902C117.35 15.9902 116.15 16.7342 115.31 17.8382H115.238V16.3502H111.494V32.6942ZM117.926 25.9982C116.246 25.9982 115.286 24.6302 115.286 22.6382C115.286 20.6462 116.15 19.1342 117.854 19.1342C119.534 19.1342 120.326 20.5262 120.326 22.6382C120.326 24.7262 119.414 25.9982 117.926 25.9982Z" fill="#101010"/>
<path d="M130.655 29.0222C133.871 29.0222 136.247 27.6302 136.247 24.9422C136.247 21.7982 133.703 21.2462 131.543 20.8862C129.983 20.5982 128.591 20.4782 128.591 19.6142C128.591 18.8462 129.335 18.4862 130.295 18.4862C131.375 18.4862 132.119 18.8222 132.263 19.9262H135.863C135.671 17.5022 133.799 15.9902 130.319 15.9902C127.415 15.9902 125.015 17.3342 125.015 19.9262C125.015 22.8062 127.295 23.3822 129.431 23.7422C131.063 24.0302 132.551 24.1502 132.551 25.2542C132.551 26.0462 131.807 26.4782 130.631 26.4782C129.335 26.4782 128.519 25.8782 128.375 24.6542H124.679C124.799 27.3662 127.055 29.0222 130.655 29.0222Z" fill="#101010"/>
<path d="M141.561 28.9976C143.265 28.9976 144.345 28.3256 145.233 27.1256H145.305V28.6376H149.049V16.3496H145.137V23.2136C145.137 24.6776 144.321 25.6856 142.977 25.6856C141.729 25.6856 141.129 24.9416 141.129 23.5976V16.3496H137.241V24.4136C137.241 27.1496 138.729 28.9976 141.561 28.9976Z" fill="#101010"/>
<path d="M150.75 28.6382H154.662V21.7502C154.662 20.2862 155.382 19.2542 156.606 19.2542C157.782 19.2542 158.334 20.0222 158.334 21.3422V28.6382H162.246V21.7502C162.246 20.2862 162.942 19.2542 164.19 19.2542C165.366 19.2542 165.918 20.0222 165.918 21.3422V28.6382H169.83V20.6462C169.83 17.8862 168.438 15.9902 165.654 15.9902C164.07 15.9902 162.75 16.6622 161.79 18.1502H161.742C161.118 16.8302 159.894 15.9902 158.286 15.9902C156.51 15.9902 155.334 16.8302 154.566 18.1022H154.494V16.3502H150.75V28.6382Z" fill="#101010"/>
<path fill-rule="evenodd" clip-rule="evenodd" d="M20.6841 40.6377C31.7298 40.6377 40.6841 31.6834 40.6841 20.6377C40.6841 9.592 31.7298 0.637695 20.6841 0.637695C9.63837 0.637695 0.684082 9.592 0.684082 20.6377C0.684082 31.6834 9.63837 40.6377 20.6841 40.6377ZM26.9234 9.95453C27.2271 8.87574 26.1802 8.23782 25.2241 8.91899L11.8772 18.4273C10.8403 19.166 11.0034 20.6377 12.1222 20.6377H15.6368V20.6105H22.4866L16.9053 22.5798L14.4448 31.3209C14.1411 32.3997 15.1879 33.0376 16.1441 32.3564L29.491 22.8482C30.5279 22.1095 30.3647 20.6377 29.246 20.6377H23.9162L26.9234 9.95453Z" fill="#FF4438"/>
</g>
<defs>
<clipPath id="clip0_226_9399">
<rect width="170" height="41" fill="white" transform="translate(0 0.5)"/>
</clipPath>
</defs>
</svg>
