<svg width="55" height="55" viewBox="0 0 55 55" fill="none" xmlns="http://www.w3.org/2000/svg">
<path d="M27.4981 43.0836C26.0478 43.0836 24.6301 42.6536 23.4242 41.8478C22.2183 41.0421 21.2785 39.8969 20.7235 38.557C20.1685 37.2171 20.0232 35.7427 20.3062 34.3202C20.5891 32.8978 21.2875 31.5912 22.313 30.5657C23.3385 29.5402 24.6451 28.8418 26.0676 28.5589C27.49 28.2759 28.9644 28.4211 30.3043 28.9762C31.6442 29.5312 32.7894 30.471 33.5951 31.6769C34.4009 32.8828 34.8309 34.3005 34.8309 35.7508C34.8288 37.6949 34.0555 39.5588 32.6808 40.9335C31.3061 42.3082 29.4422 43.0814 27.4981 43.0836ZM27.4981 30.2512C26.4104 30.2512 25.3471 30.5737 24.4427 31.178C23.5383 31.7823 22.8334 32.6413 22.4171 33.6462C22.0009 34.6511 21.892 35.7569 22.1042 36.8237C22.3164 37.8905 22.8402 38.8705 23.6093 39.6396C24.3784 40.4088 25.3584 40.9325 26.4252 41.1448C27.492 41.357 28.5978 41.248 29.6027 40.8318C30.6077 40.4155 31.4666 39.7106 32.0709 38.8062C32.6752 37.9018 32.9977 36.8385 32.9977 35.7508C32.9963 34.2927 32.4164 32.8947 31.3853 31.8636C30.3543 30.8325 28.9563 30.2526 27.4981 30.2512Z" fill="url(#paint0_linear_194_2981)"/>
<path d="M38.4974 55.0002C38.2543 55.0002 38.0211 54.9037 37.8492 54.7318C37.6773 54.5599 37.5808 54.3267 37.5808 54.0836V48.584C37.5808 47.6509 34.0216 45.8342 27.4981 45.8342C20.9747 45.8342 17.4155 47.6509 17.4155 48.584V54.0836C17.4155 54.3267 17.3189 54.5599 17.147 54.7318C16.9751 54.9037 16.742 55.0002 16.4989 55.0002C16.2558 55.0002 16.0226 54.9037 15.8507 54.7318C15.6788 54.5599 15.5823 54.3267 15.5823 54.0836V48.584C15.5823 45.5748 21.5769 44.001 27.4981 44.001C33.4194 44.001 39.414 45.5748 39.414 48.584V54.0836C39.414 54.3267 39.3174 54.5599 39.1455 54.7318C38.9736 54.9037 38.7405 55.0002 38.4974 55.0002Z" fill="url(#paint1_linear_194_2981)"/>
<path d="M43.0803 38.5006C41.63 38.5006 40.2123 38.0706 39.0064 37.2648C37.8006 36.4591 36.8607 35.3138 36.3057 33.9739C35.7507 32.634 35.6055 31.1597 35.8884 29.7372C36.1713 28.3148 36.8697 27.0082 37.8952 25.9827C38.9208 24.9572 40.2273 24.2588 41.6498 23.9759C43.0722 23.6929 44.5466 23.8381 45.8865 24.3931C47.2264 24.9481 48.3716 25.888 49.1774 27.0939C49.9831 28.2998 50.4132 29.7175 50.4132 31.1678C50.411 33.1119 49.6377 34.9758 48.263 36.3505C46.8883 37.7252 45.0244 38.4984 43.0803 38.5006ZM43.0803 25.6682C41.9926 25.6682 40.9293 25.9907 40.0249 26.595C39.1205 27.1993 38.4156 28.0583 37.9993 29.0632C37.5831 30.0681 37.4742 31.1739 37.6864 32.2407C37.8986 33.3075 38.4224 34.2875 39.1915 35.0566C39.9606 35.8258 40.9406 36.3495 42.0074 36.5617C43.0742 36.7739 44.18 36.665 45.1849 36.2488C46.1899 35.8325 47.0488 35.1276 47.6531 34.2232C48.2574 33.3188 48.58 32.2555 48.58 31.1678C48.5785 29.7097 47.9986 28.3116 46.9675 27.2806C45.9365 26.2495 44.5385 25.6696 43.0803 25.6682Z" fill="url(#paint2_linear_194_2981)"/>
<path d="M54.0796 50.4172C53.8365 50.4172 53.6033 50.3206 53.4314 50.1487C53.2596 49.9769 53.163 49.7437 53.163 49.5006V44.001C53.163 43.0679 49.6038 41.2512 43.0803 41.2512C39.3223 41.2512 35.8392 41.9065 34.006 42.9616C33.9017 43.0227 33.7863 43.0626 33.6666 43.079C33.5468 43.0954 33.425 43.0879 33.3081 43.057C33.1912 43.0261 33.0816 42.9724 32.9856 42.8989C32.8896 42.8255 32.809 42.7338 32.7486 42.6291C32.6882 42.5244 32.649 42.4088 32.6334 42.289C32.6179 42.1691 32.6261 42.0473 32.6578 41.9307C32.6895 41.814 32.7439 41.7048 32.818 41.6092C32.892 41.5137 32.9843 41.4337 33.0894 41.374C35.2205 40.1513 38.9556 39.418 43.0803 39.418C49.0016 39.418 54.9962 40.9918 54.9962 44.001V49.5006C54.9962 49.7437 54.8996 49.9769 54.7277 50.1487C54.5558 50.3206 54.3227 50.4172 54.0796 50.4172Z" fill="url(#paint3_linear_194_2981)"/>
<path d="M11.9158 38.5006C10.4655 38.5006 9.04782 38.0706 7.84194 37.2648C6.63606 36.4591 5.69619 35.3138 5.14119 33.9739C4.58618 32.634 4.44097 31.1597 4.72391 29.7372C5.00685 28.3148 5.70523 27.0082 6.73075 25.9827C7.75626 24.9572 9.06285 24.2588 10.4853 23.9759C11.9077 23.6929 13.3821 23.8381 14.722 24.3931C16.0619 24.9481 17.2071 25.888 18.0129 27.0939C18.8186 28.2998 19.2487 29.7175 19.2487 31.1678C19.2465 33.1119 18.4732 34.9758 17.0985 36.3505C15.7238 37.7252 13.86 38.4984 11.9158 38.5006ZM11.9158 25.6682C10.8281 25.6682 9.76482 25.9907 8.86041 26.595C7.95601 27.1993 7.25111 28.0583 6.83485 29.0632C6.4186 30.0681 6.30969 31.1739 6.52189 32.2407C6.7341 33.3075 7.25788 34.2875 8.02702 35.0566C8.79616 35.8258 9.7761 36.3495 10.8429 36.5617C11.9097 36.7739 13.0155 36.665 14.0205 36.2488C15.0254 35.8325 15.8843 35.1276 16.4886 34.2232C17.0929 33.3188 17.4155 32.2555 17.4155 31.1678C17.414 29.7097 16.8341 28.3116 15.8031 27.2806C14.772 26.2495 13.374 25.6696 11.9158 25.6682Z" fill="url(#paint4_linear_194_2981)"/>
<path d="M0.916604 50.4172C0.673505 50.4172 0.440364 50.3206 0.268467 50.1487C0.0965704 49.9769 0 49.7437 0 49.5006V44.001C0 40.9918 5.99459 39.418 11.9158 39.418C16.0406 39.418 19.7757 40.1513 21.9013 41.374C22.0064 41.4337 22.0986 41.5137 22.1727 41.6092C22.2468 41.7048 22.3012 41.814 22.3329 41.9307C22.3645 42.0473 22.3728 42.1691 22.3573 42.289C22.3417 42.4088 22.3025 42.5244 22.2421 42.6291C22.1816 42.7338 22.1011 42.8255 22.0051 42.8989C21.909 42.9724 21.7994 43.0261 21.6826 43.057C21.5657 43.0879 21.4439 43.0954 21.3241 43.079C21.2044 43.0626 21.089 43.0227 20.9847 42.9616C19.157 41.9065 15.6785 41.2512 11.9158 41.2512C5.39238 41.2512 1.83321 43.0679 1.83321 44.001V49.5006C1.83321 49.7437 1.73664 49.9769 1.56474 50.1487C1.39284 50.3206 1.1597 50.4172 0.916604 50.4172Z" fill="url(#paint5_linear_194_2981)"/>
<path d="M12.914 22.9189C12.7278 22.9188 12.5461 22.8619 12.393 22.756C12.2399 22.6501 12.1227 22.5 12.057 22.3258C10.5126 18.2306 10.6582 13.6896 12.4619 9.70175C14.2657 5.71392 17.5796 2.60594 21.6749 1.06154C25.7701 -0.482864 30.3111 -0.337188 34.299 1.46652C38.2868 3.27023 41.3948 6.58423 42.9392 10.6795C42.9838 10.7925 43.0055 10.9133 43.003 11.0348C43.0005 11.1563 42.9739 11.2762 42.9247 11.3873C42.8754 11.4984 42.8046 11.5986 42.7163 11.6821C42.628 11.7656 42.5239 11.8307 42.4102 11.8736C42.2965 11.9165 42.1754 11.9364 42.0539 11.9321C41.9324 11.9277 41.8131 11.8993 41.7027 11.8484C41.5923 11.7975 41.4932 11.7251 41.411 11.6355C41.3289 11.546 41.2654 11.4409 41.2242 11.3266C39.8514 7.68619 37.0887 4.74022 33.5439 3.13677C29.999 1.53332 25.9624 1.40373 22.322 2.77651C18.6816 4.14928 15.7356 6.91198 14.1322 10.4568C12.5287 14.0017 12.3992 18.0383 13.7719 21.6787C13.8145 21.7914 13.8344 21.9113 13.8305 22.0317C13.8267 22.152 13.7992 22.2705 13.7496 22.3802C13.6999 22.4899 13.6292 22.5888 13.5413 22.6711C13.4535 22.7535 13.3502 22.8178 13.2375 22.8602C13.134 22.8989 13.0245 22.9187 12.914 22.9189Z" fill="url(#paint6_linear_194_2981)"/>
<path d="M27.4981 27.5014C25.3226 27.5014 23.1961 26.8563 21.3872 25.6477C19.5784 24.4391 18.1686 22.7213 17.3361 20.7114C16.5036 18.7016 16.2858 16.49 16.7102 14.3563C17.1346 12.2227 18.1822 10.2628 19.7204 8.72454C21.2587 7.18627 23.2186 6.13869 25.3522 5.71428C27.4859 5.28987 29.6975 5.5077 31.7073 6.3402C33.7172 7.17271 35.435 8.58251 36.6436 10.3913C37.8522 12.2001 38.4973 14.3267 38.4973 16.5022C38.4942 19.4184 37.3343 22.2143 35.2722 24.2763C33.2102 26.3384 30.4143 27.4983 27.4981 27.5014ZM27.4981 7.33614C25.6852 7.33614 23.9131 7.87372 22.4057 8.8809C20.8984 9.88807 19.7235 11.3196 19.0298 12.9945C18.336 14.6694 18.1545 16.5123 18.5082 18.2904C18.8618 20.0684 19.7348 21.7017 21.0167 22.9835C22.2986 24.2654 23.9318 25.1384 25.7099 25.4921C27.4879 25.8458 29.3309 25.6642 31.0058 24.9705C32.6807 24.2767 34.1122 23.1019 35.1194 21.5946C36.1265 20.0872 36.6641 18.3151 36.6641 16.5022C36.6615 14.072 35.6949 11.7421 33.9765 10.0238C32.2581 8.30537 29.9283 7.33881 27.4981 7.33614Z" fill="url(#paint7_linear_194_2981)"/>
<path d="M27.4982 22.0022C26.4104 22.0022 25.3471 21.6796 24.4427 21.0753C23.5383 20.471 22.8334 19.6121 22.4172 18.6072C22.0009 17.6022 21.892 16.4965 22.1042 15.4296C22.3164 14.3628 22.8402 13.3829 23.6093 12.6137C24.3785 11.8446 25.3584 11.3208 26.4252 11.1086C27.4921 10.8964 28.5978 11.0053 29.6028 11.4216C30.6077 11.8378 31.4666 12.5427 32.0709 13.4471C32.6752 14.3515 32.9978 15.4148 32.9978 16.5026C32.9963 17.9607 32.4164 19.3587 31.3854 20.3898C30.3543 21.4208 28.9563 22.0007 27.4982 22.0022ZM27.4982 12.8361C26.773 12.8361 26.0641 13.0512 25.4612 13.454C24.8583 13.8569 24.3883 14.4295 24.1108 15.0995C23.8333 15.7694 23.7607 16.5066 23.9022 17.2178C24.0437 17.9291 24.3929 18.5823 24.9056 19.0951C25.4184 19.6079 26.0717 19.9571 26.7829 20.0985C27.4941 20.24 28.2313 20.1674 28.9012 19.8899C29.5712 19.6124 30.1438 19.1424 30.5467 18.5395C30.9495 17.9366 31.1646 17.2277 31.1646 16.5026C31.1646 15.5302 30.7783 14.5976 30.0907 13.91C29.4031 13.2224 28.4706 12.8361 27.4982 12.8361Z" fill="url(#paint8_linear_194_2981)"/>
<path d="M51.3298 21.086H43.7146C43.478 21.0855 43.2507 20.9935 43.0803 20.8293L39.5377 17.4195H27.4981C27.255 17.4195 27.0218 17.323 26.8499 17.1511C26.6781 16.9792 26.5815 16.746 26.5815 16.5029C26.5815 16.2598 26.6781 16.0267 26.8499 15.8548C27.0218 15.6829 27.255 15.5863 27.4981 15.5863H39.5377L43.0803 12.1766C43.251 12.0121 43.4786 11.9202 43.7156 11.9199H51.3298C51.5125 11.9199 51.6911 11.9745 51.8425 12.0767C51.994 12.179 52.1115 12.3241 52.1798 12.4936C52.2482 12.663 52.2644 12.849 52.2262 13.0277C52.1881 13.2064 52.0975 13.3697 51.9659 13.4965L48.844 16.5029L51.9659 19.5094C52.0975 19.6362 52.1881 19.7994 52.2262 19.9781C52.2644 20.1569 52.2482 20.3429 52.1798 20.5123C52.1115 20.6818 51.994 20.8269 51.8425 20.9291C51.6911 21.0314 51.5125 21.086 51.3298 21.086ZM44.0886 19.2528H49.0566L47.1528 17.4195H42.1812L44.0886 19.2528ZM42.1848 15.5863H47.1565L49.0603 13.7531H44.0886L42.1848 15.5863Z" fill="url(#paint9_linear_194_2981)"/>
<defs>
<linearGradient id="paint0_linear_194_2981" x1="27.4981" y1="28.418" x2="27.4981" y2="43.0836" gradientUnits="userSpaceOnUse">
<stop stop-color="#FE4139"/>
<stop offset="1" stop-color="#FFBE36"/>
</linearGradient>
<linearGradient id="paint1_linear_194_2981" x1="27.4981" y1="44.001" x2="27.4981" y2="55.0002" gradientUnits="userSpaceOnUse">
<stop stop-color="#FE4139"/>
<stop offset="1" stop-color="#FFBE36"/>
</linearGradient>
<linearGradient id="paint2_linear_194_2981" x1="43.0803" y1="23.835" x2="43.0803" y2="38.5006" gradientUnits="userSpaceOnUse">
<stop stop-color="#FE4139"/>
<stop offset="1" stop-color="#FFBE36"/>
</linearGradient>
<linearGradient id="paint3_linear_194_2981" x1="43.811" y1="39.418" x2="43.811" y2="50.4172" gradientUnits="userSpaceOnUse">
<stop stop-color="#FE4139"/>
<stop offset="1" stop-color="#FFBE36"/>
</linearGradient>
<linearGradient id="paint4_linear_194_2981" x1="11.9158" y1="23.835" x2="11.9158" y2="38.5006" gradientUnits="userSpaceOnUse">
<stop stop-color="#FE4139"/>
<stop offset="1" stop-color="#FFBE36"/>
</linearGradient>
<linearGradient id="paint5_linear_194_2981" x1="11.1824" y1="39.418" x2="11.1824" y2="50.4172" gradientUnits="userSpaceOnUse">
<stop stop-color="#FE4139"/>
<stop offset="1" stop-color="#FFBE36"/>
</linearGradient>
<linearGradient id="paint6_linear_194_2981" x1="26.9993" y1="0" x2="26.9993" y2="22.9189" gradientUnits="userSpaceOnUse">
<stop stop-color="#FE4139"/>
<stop offset="1" stop-color="#FFBE36"/>
</linearGradient>
<linearGradient id="paint7_linear_194_2981" x1="27.4981" y1="5.50293" x2="27.4981" y2="27.5014" gradientUnits="userSpaceOnUse">
<stop stop-color="#FE4139"/>
<stop offset="1" stop-color="#FFBE36"/>
</linearGradient>
<linearGradient id="paint8_linear_194_2981" x1="27.4982" y1="11.0029" x2="27.4982" y2="22.0022" gradientUnits="userSpaceOnUse">
<stop stop-color="#FE4139"/>
<stop offset="1" stop-color="#FFBE36"/>
</linearGradient>
<linearGradient id="paint9_linear_194_2981" x1="39.4139" y1="11.9199" x2="39.4139" y2="21.086" gradientUnits="userSpaceOnUse">
<stop stop-color="#FE4139"/>
<stop offset="1" stop-color="#FFBE36"/>
</linearGradient>
</defs>
</svg>
