<svg width="170" height="42" viewBox="0 0 170 42" fill="none" xmlns="http://www.w3.org/2000/svg">
<g clip-path="url(#clip0_226_9421)">
<path d="M51.3601 29.3534H63.3121V25.7534H55.6081V12.1934H51.3601V29.3534Z" fill="#101010"/>
<path d="M70.3932 26.9535C68.6892 26.9535 67.8012 25.4655 67.8012 23.2335C67.8012 21.0015 68.6892 19.4895 70.3932 19.4895C72.0972 19.4895 73.0092 21.0015 73.0092 23.2335C73.0092 25.4655 72.0972 26.9535 70.3932 26.9535ZM70.4172 29.7375C74.3772 29.7375 76.9692 26.9295 76.9692 23.2335C76.9692 19.5375 74.3772 16.7295 70.4172 16.7295C66.4812 16.7295 63.8412 19.5375 63.8412 23.2335C63.8412 26.9295 66.4812 29.7375 70.4172 29.7375Z" fill="#101010"/>
<path d="M83.8237 33.6011C85.6477 33.6011 87.2557 33.1931 88.3357 32.2331C89.3197 31.3451 89.9677 30.0011 89.9677 28.1531V17.0651H86.2237V18.3851H86.1757C85.4557 17.3531 84.3517 16.7051 82.7197 16.7051C79.6717 16.7051 77.5597 19.2491 77.5597 22.8491C77.5597 26.6171 80.1277 28.6811 82.8877 28.6811C84.3757 28.6811 85.3117 28.0811 86.0317 27.2651H86.1277V28.4891C86.1277 29.9771 85.4317 30.8411 83.7757 30.8411C82.4797 30.8411 81.8317 30.2891 81.6157 29.6411H77.8237C78.2077 32.2091 80.4397 33.6011 83.8237 33.6011ZM83.7997 25.7771C82.3357 25.7771 81.3757 24.5771 81.3757 22.7291C81.3757 20.8571 82.3357 19.6571 83.7997 19.6571C85.4317 19.6571 86.2957 21.0491 86.2957 22.7051C86.2957 24.4331 85.5037 25.7771 83.7997 25.7771Z" fill="#101010"/>
<path d="M97.666 26.9535C95.962 26.9535 95.074 25.4655 95.074 23.2335C95.074 21.0015 95.962 19.4895 97.666 19.4895C99.37 19.4895 100.282 21.0015 100.282 23.2335C100.282 25.4655 99.37 26.9535 97.666 26.9535ZM97.69 29.7375C101.65 29.7375 104.242 26.9295 104.242 23.2335C104.242 19.5375 101.65 16.7295 97.69 16.7295C93.754 16.7295 91.114 19.5375 91.114 23.2335C91.114 26.9295 93.754 29.7375 97.69 29.7375Z" fill="#101010"/>
<path d="M105.384 29.3534H109.296V17.0654H105.384V29.3534ZM105.384 15.3614H109.296V12.1934H105.384V15.3614Z" fill="#101010"/>
<path d="M110.994 33.4091H114.906V28.0811H114.954C115.722 29.1131 116.85 29.7371 118.434 29.7371C121.65 29.7371 123.786 27.1931 123.786 23.2091C123.786 19.5131 121.794 16.7051 118.53 16.7051C116.85 16.7051 115.65 17.4491 114.81 18.5531H114.738V17.0651H110.994V33.4091ZM117.426 26.7131C115.746 26.7131 114.786 25.3451 114.786 23.3531C114.786 21.3611 115.65 19.8491 117.354 19.8491C119.034 19.8491 119.826 21.2411 119.826 23.3531C119.826 25.4411 118.914 26.7131 117.426 26.7131Z" fill="#101010"/>
<path d="M130.155 29.7371C133.371 29.7371 135.747 28.3451 135.747 25.6571C135.747 22.5131 133.203 21.9611 131.043 21.6011C129.483 21.3131 128.091 21.1931 128.091 20.3291C128.091 19.5611 128.835 19.2011 129.795 19.2011C130.875 19.2011 131.619 19.5371 131.763 20.6411H135.363C135.171 18.2171 133.299 16.7051 129.819 16.7051C126.915 16.7051 124.515 18.0491 124.515 20.6411C124.515 23.5211 126.795 24.0971 128.931 24.4571C130.563 24.7451 132.051 24.8651 132.051 25.9691C132.051 26.7611 131.307 27.1931 130.131 27.1931C128.835 27.1931 128.019 26.5931 127.875 25.3691H124.179C124.299 28.0811 126.555 29.7371 130.155 29.7371Z" fill="#101010"/>
<path d="M141.061 29.7134C142.765 29.7134 143.845 29.0414 144.733 27.8414H144.805V29.3534H148.549V17.0654H144.637V23.9294C144.637 25.3934 143.821 26.4014 142.477 26.4014C141.229 26.4014 140.629 25.6574 140.629 24.3134V17.0654H136.741V25.1294C136.741 27.8654 138.229 29.7134 141.061 29.7134Z" fill="#101010"/>
<path d="M150.25 29.3531H154.162V22.4651C154.162 21.0011 154.882 19.9691 156.106 19.9691C157.282 19.9691 157.834 20.7371 157.834 22.0571V29.3531H161.746V22.4651C161.746 21.0011 162.442 19.9691 163.69 19.9691C164.866 19.9691 165.418 20.7371 165.418 22.0571V29.3531H169.33V21.3611C169.33 18.6011 167.938 16.7051 165.154 16.7051C163.57 16.7051 162.25 17.3771 161.29 18.8651H161.242C160.618 17.5451 159.394 16.7051 157.786 16.7051C156.01 16.7051 154.834 17.5451 154.066 18.8171H153.994V17.0651H150.25V29.3531Z" fill="#101010"/>
<path fill-rule="evenodd" clip-rule="evenodd" d="M21.1842 0.961914C32.446 0.961914 41.5755 10.0914 41.5755 21.3532C41.5755 32.6151 32.446 41.7446 21.1842 41.7446C9.92234 41.7446 0.792847 32.6151 0.792847 21.3532C0.792847 10.0914 9.92234 0.961914 21.1842 0.961914ZM40.7928 21.3532C40.7928 10.5237 32.0137 1.74454 21.1842 1.74454C20.3106 1.74454 19.4505 1.80165 18.6071 1.91237C19.152 1.86472 19.7034 1.84041 20.2606 1.84041C30.6088 1.84041 38.9977 10.2293 38.9977 20.5775C38.9977 30.9256 30.6088 39.3145 20.2606 39.3145C10.4637 39.3145 2.42284 31.7956 1.59401 22.2135C2.04426 32.6439 10.6428 40.9619 21.1842 40.9619C32.0137 40.9619 40.7928 32.1828 40.7928 21.3532ZM38.215 20.5775C38.215 10.6615 30.1766 2.62303 20.2606 2.62303C19.4555 2.62303 18.6627 2.67603 17.8856 2.77872C18.3641 2.73846 18.8482 2.71793 19.3371 2.71793C28.7717 2.71793 36.4199 10.3662 36.4199 19.8007C36.4199 29.2353 28.7717 36.8835 19.3371 36.8835C10.4165 36.8835 3.09287 30.0458 2.3215 21.3256C2.71369 30.8946 10.5953 38.5319 20.2606 38.5319C30.1766 38.5319 38.215 30.4934 38.215 20.5775ZM19.3371 3.50056C28.3394 3.50056 35.6373 10.7984 35.6373 19.8007C35.6373 28.803 28.3394 36.1008 19.3371 36.1008C10.5434 36.1008 3.37602 29.1372 3.04867 20.4235C3.75542 28.2885 10.3647 34.4524 18.4137 34.4524C26.934 34.4524 33.8412 27.5453 33.8412 19.0249C33.8412 10.5045 26.934 3.59739 18.4137 3.59739C17.9729 3.59739 17.5364 3.61588 17.105 3.65211C17.8348 3.55218 18.5799 3.50056 19.3371 3.50056ZM33.0585 19.0249C33.0585 10.9368 26.5018 4.38003 18.4137 4.38003C17.7303 4.38003 17.0578 4.42682 16.3994 4.5174C16.7589 4.48926 17.1223 4.47493 17.4891 4.47493C25.0959 4.47493 31.2624 10.6414 31.2624 18.2482C31.2624 25.8549 25.0959 32.0214 17.4891 32.0214C10.3295 32.0214 4.44576 26.5585 3.77885 19.5736C4.06738 27.4075 10.5092 33.6698 18.4137 33.6698C26.5018 33.6698 33.0585 27.1131 33.0585 19.0249ZM17.4891 5.25756C24.6636 5.25756 30.4797 11.0737 30.4797 18.2482C30.4797 25.4227 24.6636 31.2388 17.4891 31.2388C10.4559 31.2388 4.7282 25.6496 4.50526 18.6706C5.10739 24.8008 10.2772 29.5904 16.5656 29.5904C23.2588 29.5904 28.6846 24.1645 28.6846 17.4714C28.6846 10.7783 23.2588 5.35245 16.5656 5.35245C16.2587 5.35245 15.9544 5.36386 15.6532 5.38628C16.253 5.30144 16.8659 5.25756 17.4891 5.25756ZM27.902 17.4714C27.902 11.2105 22.8265 6.13508 16.5656 6.13508C15.9941 6.13508 15.4325 6.17736 14.8837 6.25899C15.1342 6.24104 15.3871 6.23191 15.6422 6.23191C21.4211 6.23191 26.1059 10.9167 26.1059 16.6956C26.1059 22.4746 21.4211 27.1593 15.6422 27.1593C10.227 27.1593 5.77257 23.0458 5.23324 17.773C5.39313 23.8945 10.4056 28.8078 16.5656 28.8078C22.8265 28.8078 27.902 23.7323 27.902 17.4714ZM15.6422 7.01455C20.9889 7.01455 25.3232 11.3489 25.3232 16.6956C25.3232 22.0424 20.9889 26.3767 15.6422 26.3767C10.3635 26.3767 6.07156 22.152 5.96317 16.8993C6.4508 21.3032 10.1848 24.7283 14.7187 24.7283C19.584 24.7283 23.5281 20.7842 23.5281 15.9189C23.5281 11.0536 19.584 7.10944 14.7187 7.10944C14.5326 7.10944 14.3479 7.1152 14.1647 7.12657C14.6464 7.0528 15.1398 7.01455 15.6422 7.01455ZM22.7455 15.9189C22.7455 11.4858 19.1518 7.89207 14.7187 7.89207C14.2735 7.89207 13.8368 7.92831 13.4113 7.998C13.5381 7.99132 13.6657 7.98794 13.7942 7.98794C17.7458 7.98794 20.9493 11.1914 20.9493 15.1431C20.9493 19.0948 17.7458 22.2983 13.7942 22.2983C10.1402 22.2983 7.126 19.5593 6.69252 16.0225C6.74802 20.4079 10.3202 23.9457 14.7187 23.9457C19.1518 23.9457 22.7455 20.352 22.7455 15.9189ZM13.7942 8.77056C17.3136 8.77056 20.1667 11.6236 20.1667 15.1431C20.1667 18.6626 17.3136 21.5156 13.7942 21.5156C10.2747 21.5156 7.42163 18.6626 7.42163 15.1431C7.42163 15.1347 7.42165 15.1262 7.42168 15.1178C7.7881 17.7998 10.0881 19.8663 12.8707 19.8663C15.9082 19.8663 18.3706 17.4039 18.3706 14.3664C18.3706 11.3288 15.9082 8.86645 12.8707 8.86645C12.802 8.86645 12.7336 8.86769 12.6655 8.87019C13.0318 8.80472 13.409 8.77056 13.7942 8.77056ZM17.5879 14.3664C17.5879 11.7611 15.476 9.64907 12.8707 9.64907C10.2654 9.64907 8.1534 11.7611 8.1534 14.3664C8.1534 16.9716 10.2654 19.0836 12.8707 19.0836C15.476 19.0836 17.5879 16.9716 17.5879 14.3664Z" fill="#FF4438"/>
</g>
<defs>
<clipPath id="clip0_226_9421">
<rect width="169" height="42" fill="white" transform="translate(0.5)"/>
</clipPath>
</defs>
</svg>
