<svg width="42" height="43" viewBox="0 0 42 43" fill="none" xmlns="http://www.w3.org/2000/svg">
<g clip-path="url(#clip0_194_2801)">
<path d="M21 0.875C17.7714 0.87478 14.5863 1.61896 11.6922 3.04971C8.79798 4.48047 6.27265 6.55927 4.31241 9.12458C2.35217 11.6899 1.00981 14.6726 0.389628 17.841C-0.230551 21.0094 -0.111846 24.2782 0.736521 27.3932C1.58489 30.5083 3.14007 33.3858 5.28122 35.8022C7.42237 38.2185 10.0918 40.1087 13.0822 41.3257C16.0725 42.5428 19.3032 43.054 22.5232 42.8196C25.7432 42.5852 28.8658 41.6115 31.6484 39.9742L37.8217 41.6542C38.2314 41.7664 38.6635 41.7681 39.0741 41.6593C39.4847 41.5505 39.8592 41.3349 40.1595 41.0346C40.4599 40.7342 40.6754 40.3597 40.7843 39.9491C40.8931 39.5385 40.8913 39.1064 40.7792 38.6967L39.0992 32.5234C40.9757 29.3337 41.976 25.7047 41.9987 22.004C42.0215 18.3033 41.0659 14.6624 39.2287 11.4498C37.3915 8.2373 34.7379 5.56732 31.5368 3.71029C28.3357 1.85327 24.7007 0.875149 21 0.875ZM37.6698 32.6032L39.4289 39.0663C39.4756 39.2377 39.4761 39.4185 39.4304 39.5902C39.3847 39.7619 39.2944 39.9184 39.1687 40.0439C39.0429 40.1695 38.8862 40.2595 38.7144 40.3049C38.5427 40.3503 38.3619 40.3495 38.1906 40.3025L31.7275 38.5434C31.6356 38.5182 31.5396 38.5121 31.4453 38.5256C31.351 38.5391 31.2605 38.5718 31.1794 38.6218C27.0835 41.1115 22.2172 42.0139 17.501 41.1585C12.7847 40.3031 8.54538 37.7491 5.58473 33.9796C2.62409 30.21 1.14738 25.4863 1.43388 20.7016C1.72038 15.917 3.75023 11.4032 7.13954 8.01387C10.5289 4.62456 15.0427 2.59471 19.8273 2.30821C24.6119 2.02171 29.3357 3.49842 33.1053 6.45906C36.8748 9.41971 39.4288 13.659 40.2842 18.3753C41.1396 23.0916 40.2371 27.9578 37.7475 32.0537C37.6977 32.1352 37.6652 32.2259 37.6518 32.3204C37.6385 32.4149 37.6446 32.5112 37.6698 32.6032Z" fill="url(#paint0_linear_194_2801)"/>
<path d="M14.7 26.0748C14.8856 26.0748 15.0637 26.0011 15.195 25.8698C15.3262 25.7385 15.4 25.5605 15.4 25.3748C15.4 25.1892 15.3262 25.0111 15.195 24.8798C15.0637 24.7486 14.8856 24.6748 14.7 24.6748H11.5801C11.9375 24.3897 12.3206 24.1385 12.7246 23.9244C13.9167 23.2356 15.4 22.3795 15.4 20.4748C15.4 19.7322 15.105 19.02 14.5799 18.4949C14.0548 17.9698 13.3426 17.6748 12.6 17.6748C11.8574 17.6748 11.1452 17.9698 10.6201 18.4949C10.095 19.02 9.79999 19.7322 9.79999 20.4748C9.79999 20.6605 9.87374 20.8385 10.005 20.9698C10.1363 21.1011 10.3143 21.1748 10.5 21.1748C10.6856 21.1748 10.8637 21.1011 10.995 20.9698C11.1262 20.8385 11.2 20.6605 11.2 20.4748C11.2 20.1035 11.3475 19.7474 11.61 19.4849C11.8726 19.2223 12.2287 19.0748 12.6 19.0748C12.9713 19.0748 13.3274 19.2223 13.5899 19.4849C13.8525 19.7474 14 20.1035 14 20.4748C14 21.4975 13.2538 22.0022 12.0246 22.7148C10.9816 23.314 9.79999 23.9958 9.79999 25.3748C9.79999 25.5605 9.87374 25.7385 10.005 25.8698C10.1363 26.0011 10.3143 26.0748 10.5 26.0748H14.7Z" fill="url(#paint1_linear_194_2801)"/>
<path d="M28 18.3748C28 18.5605 28.0738 18.7385 28.205 18.8698C28.3363 19.0011 28.5144 19.0748 28.7 19.0748H31.0674L28.07 25.0619C27.987 25.2281 27.9734 25.4204 28.0323 25.5966C28.0911 25.7727 28.2175 25.9183 28.3836 26.0013C28.5498 26.0843 28.7421 26.0979 28.9183 26.0391C29.0944 25.9803 29.24 25.8539 29.323 25.6877L32.823 18.6877C32.8762 18.5812 32.9014 18.4629 32.8962 18.344C32.8909 18.2251 32.8554 18.1095 32.7931 18.0081C32.7307 17.9067 32.6435 17.8229 32.5398 17.7645C32.436 17.7062 32.319 17.6753 32.2 17.6748H28.7C28.5144 17.6748 28.3363 17.7486 28.205 17.8798C28.0738 18.0111 28 18.1892 28 18.3748Z" fill="url(#paint2_linear_194_2801)"/>
<path d="M20.3 26.0747C20.4856 26.0747 20.6637 26.0009 20.795 25.8696C20.9262 25.7384 21 25.5603 21 25.3747V23.9747H21.7C21.8856 23.9747 22.0637 23.9009 22.195 23.7696C22.3262 23.6384 22.4 23.4603 22.4 23.2747C22.4 23.089 22.3262 22.911 22.195 22.7797C22.0637 22.6484 21.8856 22.5747 21.7 22.5747H21V21.8747C21 21.689 20.9262 21.511 20.795 21.3797C20.6637 21.2484 20.4856 21.1747 20.3 21.1747C20.1143 21.1747 19.9363 21.2484 19.805 21.3797C19.6737 21.511 19.6 21.689 19.6 21.8747V22.5747H18.0068L20.2076 18.7247C20.2558 18.6448 20.2875 18.556 20.3009 18.4637C20.3144 18.3713 20.3092 18.2772 20.2857 18.1869C20.2622 18.0966 20.2209 18.0119 20.1642 17.9378C20.1075 17.8636 20.0365 17.8016 19.9555 17.7553C19.8745 17.709 19.785 17.6794 19.6924 17.6682C19.5997 17.6569 19.5058 17.6644 19.416 17.69C19.3263 17.7156 19.2426 17.7589 19.1699 17.8173C19.0971 17.8758 19.0368 17.9482 18.9924 18.0303L16.1924 22.9303C16.1323 23.0366 16.1011 23.1569 16.1018 23.2791C16.1026 23.4012 16.1353 23.5211 16.1968 23.6267C16.2582 23.7323 16.3462 23.82 16.452 23.881C16.5579 23.9421 16.6778 23.9744 16.8 23.9747H19.6V25.3747C19.6 25.5603 19.6737 25.7384 19.805 25.8696C19.9363 26.0009 20.1143 26.0747 20.3 26.0747Z" fill="url(#paint3_linear_194_2801)"/>
<path d="M25.221 17.5053L23.121 25.9053C23.0761 26.0854 23.1046 26.2759 23.2002 26.435C23.2957 26.5941 23.4505 26.7087 23.6306 26.7537C23.686 26.7675 23.7429 26.7745 23.8 26.7747C23.956 26.7745 24.1075 26.7222 24.2304 26.6261C24.3533 26.5299 24.4405 26.3955 24.4783 26.2441L26.5783 17.8441C26.603 17.7541 26.6094 17.6601 26.5972 17.5677C26.5851 17.4752 26.5545 17.386 26.5074 17.3055C26.4603 17.225 26.3976 17.1547 26.3229 17.0988C26.2483 17.0428 26.1632 17.0024 26.0727 16.9798C25.9821 16.9572 25.888 16.953 25.7958 16.9673C25.7037 16.9816 25.6153 17.0142 25.5359 17.0631C25.4564 17.1121 25.3876 17.1764 25.3334 17.2524C25.2792 17.3283 25.2415 17.4143 25.221 17.5053Z" fill="url(#paint4_linear_194_2801)"/>
<path d="M33.1023 13.5132C32.9452 13.612 32.8337 13.769 32.7924 13.9499C32.7511 14.1308 32.7832 14.3207 32.8818 14.4778C34.6155 17.2546 35.3209 20.5513 34.8751 23.7944C34.4293 27.0374 32.8606 30.0216 30.442 32.2275C28.0233 34.4335 24.9078 35.7217 21.6375 35.8679C18.3672 36.0141 15.1492 35.0091 12.5433 33.0278L14.0301 32.9354C14.2157 32.9238 14.3892 32.839 14.5122 32.6995C14.6353 32.56 14.6979 32.3773 14.6863 32.1917C14.6747 32.006 14.5899 31.8326 14.4504 31.7095C14.3109 31.5865 14.1282 31.5238 13.9426 31.5354L10.7289 31.7356C10.5436 31.7473 10.3706 31.8322 10.2478 31.9714C10.1251 32.1107 10.0627 32.2931 10.0744 32.4783L10.2746 35.6913C10.2856 35.8694 10.3643 36.0365 10.4943 36.1585C10.6244 36.2805 10.7962 36.3483 10.9746 36.3479H11.0187C11.1105 36.3422 11.2003 36.3185 11.2829 36.2781C11.3655 36.2377 11.4394 36.1814 11.5002 36.1124C11.5611 36.0434 11.6077 35.9631 11.6375 35.8761C11.6673 35.7891 11.6797 35.697 11.6739 35.6052L11.5766 34.0407C14.4312 36.2551 17.9738 37.3947 21.5841 37.2598C25.1944 37.125 28.6421 35.7243 31.3236 33.3032C34.0051 30.882 35.7493 27.5947 36.2508 24.0169C36.7524 20.4391 35.9793 16.7989 34.0669 13.7337C33.9682 13.5767 33.8111 13.4652 33.6302 13.4239C33.4494 13.3825 33.2595 13.4147 33.1023 13.5132Z" fill="url(#paint5_linear_194_2801)"/>
<path d="M7.00002 21.8751C6.99842 19.2685 7.72499 16.7133 9.09783 14.4975C10.4707 12.2817 12.4352 10.4935 14.7699 9.33437C17.1046 8.17528 19.7167 7.69141 22.3116 7.93733C24.9066 8.18325 27.3813 9.14917 29.4567 10.7262L27.9699 10.8186C27.878 10.8214 27.7875 10.8424 27.7037 10.8802C27.6199 10.918 27.5443 10.9719 27.4813 11.039C27.4183 11.106 27.3691 11.1847 27.3366 11.2708C27.3041 11.3568 27.2888 11.4484 27.2916 11.5403C27.2945 11.6322 27.3154 11.7227 27.3532 11.8065C27.391 11.8904 27.445 11.9659 27.512 12.0289C27.579 12.0919 27.6578 12.1411 27.7438 12.1736C27.8298 12.2062 27.9214 12.2214 28.0133 12.2186H28.0574L31.2711 12.0184C31.4564 12.0067 31.6294 11.9219 31.7522 11.7826C31.8749 11.6433 31.9373 11.461 31.9256 11.2757L31.7254 8.0627C31.7211 7.97048 31.6983 7.88007 31.6584 7.79682C31.6185 7.71358 31.5623 7.6392 31.4931 7.57809C31.4239 7.51699 31.3431 7.4704 31.2555 7.4411C31.168 7.41179 31.0755 7.40037 30.9834 7.4075C30.8916 7.4132 30.8018 7.43694 30.7192 7.47736C30.6366 7.51778 30.5628 7.57409 30.5019 7.64306C30.4411 7.71204 30.3944 7.79233 30.3646 7.87934C30.3348 7.96636 30.3224 8.0584 30.3282 8.1502L30.4255 9.7147C27.5712 7.50127 24.0294 6.36226 20.42 6.49706C16.8105 6.63185 13.3635 8.03185 10.6823 10.452C8.00103 12.8721 6.25641 16.1582 5.75382 19.735C5.25122 23.3118 6.02267 26.9515 7.93312 30.0168C7.99612 30.1173 8.08366 30.2002 8.18749 30.2577C8.29133 30.3151 8.40806 30.3452 8.52672 30.3451C8.65813 30.3453 8.78687 30.3079 8.89772 30.2373C9.0548 30.1386 9.16626 29.9815 9.20761 29.8006C9.24895 29.6198 9.2168 29.4299 9.11822 29.2727C7.73046 27.0551 6.99629 24.4911 7.00002 21.8751Z" fill="url(#paint6_linear_194_2801)"/>
</g>
<defs>
<linearGradient id="paint0_linear_194_2801" x1="20.9988" y1="0.875" x2="20.9988" y2="42.875" gradientUnits="userSpaceOnUse">
<stop stop-color="#FE4139"/>
<stop offset="1" stop-color="#FFBE36"/>
</linearGradient>
<linearGradient id="paint1_linear_194_2801" x1="12.6" y1="17.6748" x2="12.6" y2="26.0748" gradientUnits="userSpaceOnUse">
<stop stop-color="#FE4139"/>
<stop offset="1" stop-color="#FFBE36"/>
</linearGradient>
<linearGradient id="paint2_linear_194_2801" x1="30.4465" y1="17.6748" x2="30.4465" y2="26.0751" gradientUnits="userSpaceOnUse">
<stop stop-color="#FE4139"/>
<stop offset="1" stop-color="#FFBE36"/>
</linearGradient>
<linearGradient id="paint3_linear_194_2801" x1="19.2509" y1="17.6631" x2="19.2509" y2="26.0747" gradientUnits="userSpaceOnUse">
<stop stop-color="#FE4139"/>
<stop offset="1" stop-color="#FFBE36"/>
</linearGradient>
<linearGradient id="paint4_linear_194_2801" x1="24.8517" y1="16.959" x2="24.8517" y2="26.7747" gradientUnits="userSpaceOnUse">
<stop stop-color="#FE4139"/>
<stop offset="1" stop-color="#FFBE36"/>
</linearGradient>
<linearGradient id="paint5_linear_194_2801" x1="23.2364" y1="13.4062" x2="23.2364" y2="37.2705" gradientUnits="userSpaceOnUse">
<stop stop-color="#FE4139"/>
<stop offset="1" stop-color="#FFBE36"/>
</linearGradient>
<linearGradient id="paint6_linear_194_2801" x1="18.7655" y1="6.48633" x2="18.7655" y2="30.3451" gradientUnits="userSpaceOnUse">
<stop stop-color="#FE4139"/>
<stop offset="1" stop-color="#FFBE36"/>
</linearGradient>
<clipPath id="clip0_194_2801">
<rect width="42" height="42" fill="white" transform="translate(0 0.875)"/>
</clipPath>
</defs>
</svg>
