<svg width="50" height="50" viewBox="0 0 50 50" fill="none" xmlns="http://www.w3.org/2000/svg">
<g clip-path="url(#clip0_194_6671)">
<path d="M13.7367 36.0502H8.53906C8.12751 36.0502 7.7998 35.7224 7.7998 35.3109V30.1133C7.7998 29.7017 8.12751 29.374 8.53906 29.374H13.7367C14.1482 29.374 14.4759 29.7017 14.4759 30.1133V35.3109C14.4759 35.7148 14.1406 36.0502 13.7367 36.0502ZM9.27831 34.5716H12.9974V30.8525H9.27831V34.5716Z" fill="url(#paint0_linear_194_6671)"/>
<path d="M13.7367 45.9193H8.53906C8.12751 45.9193 7.7998 45.5916 7.7998 45.18V39.9824C7.7998 39.5709 8.12751 39.2432 8.53906 39.2432H13.7367C14.1482 39.2432 14.4759 39.5709 14.4759 39.9824V45.18C14.4759 45.5916 14.1406 45.9193 13.7367 45.9193ZM9.27831 44.4408H12.9974V40.7217H9.27831V44.4408Z" fill="url(#paint1_linear_194_6671)"/>
<path d="M45.3253 49.1661H5.11609C2.75354 49.1661 0.833008 47.2456 0.833008 44.8907V9.62C0.833008 7.25744 2.75354 5.33691 5.11609 5.33691H21.7988C22.2103 5.33691 22.538 5.66462 22.538 6.07617C22.538 6.48771 22.2103 6.81542 21.7988 6.81542H5.11609C3.569 6.81542 2.31151 8.07291 2.31151 9.62V44.8907C2.31151 46.4378 3.569 47.6876 5.11609 47.6876H45.3253C46.8724 47.6876 48.1222 46.4302 48.1222 44.8907V9.62C48.1222 8.07291 46.8648 6.81542 45.3253 6.81542H28.6426C28.231 6.81542 27.9033 6.48771 27.9033 6.07617C27.9033 5.66462 28.231 5.33691 28.6426 5.33691H45.3253C47.6878 5.33691 49.6007 7.25744 49.6007 9.62V44.8907C49.6084 47.2456 47.6878 49.1661 45.3253 49.1661Z" fill="url(#paint2_linear_194_6671)"/>
<path d="M48.8691 17.8506H1.57226C1.16834 17.8506 0.833008 17.5229 0.833008 17.1113C0.833008 16.6998 1.16072 16.3721 1.57226 16.3721H48.8691C49.2807 16.3721 49.6084 16.6998 49.6084 17.1113C49.6084 17.5229 49.2807 17.8506 48.8691 17.8506Z" fill="url(#paint3_linear_194_6671)"/>
<path d="M28.6438 10.8091H21.8076C21.3961 10.8091 21.0684 10.4814 21.0684 10.0698V1.57226C21.0684 1.16072 21.3961 0.833008 21.8076 0.833008H28.6438C29.0553 0.833008 29.383 1.16072 29.383 1.57226V10.0698C29.383 10.4738 29.0477 10.8091 28.6438 10.8091ZM22.5469 9.33059H27.9045V2.31151H22.5469V9.33059Z" fill="url(#paint4_linear_194_6671)"/>
<path d="M34.4339 26.1732H29.2363C28.8248 26.1732 28.4971 25.8455 28.4971 25.4339V20.2363C28.4971 19.8248 28.8248 19.4971 29.2363 19.4971H34.4339C34.8455 19.4971 35.1732 19.8248 35.1732 20.2363V25.4339C35.1732 25.8455 34.8455 26.1732 34.4339 26.1732ZM29.9756 24.6947H33.6947V20.9756H29.9756V24.6947Z" fill="url(#paint5_linear_194_6671)"/>
<path d="M44.9672 26.1732H39.7695C39.358 26.1732 39.0303 25.8455 39.0303 25.4339V20.2363C39.0303 19.8248 39.358 19.4971 39.7695 19.4971H44.9672C45.3787 19.4971 45.7064 19.8248 45.7064 20.2363V25.4339C45.7064 25.8455 45.3711 26.1732 44.9672 26.1732ZM40.5088 24.6947H44.2279V20.9756H40.5088V24.6947Z" fill="url(#paint6_linear_194_6671)"/>
<path d="M24.1459 36.0502H18.9482C18.5367 36.0502 18.209 35.7224 18.209 35.3109V30.1133C18.209 29.7017 18.5367 29.374 18.9482 29.374H24.1459C24.5574 29.374 24.8851 29.7017 24.8851 30.1133V35.3109C24.8851 35.7148 24.5498 36.0502 24.1459 36.0502ZM19.6875 34.5716H23.4066V30.8525H19.6875V34.5716Z" fill="url(#paint7_linear_194_6671)"/>
<path d="M34.557 36.0502H29.3594C28.9478 36.0502 28.6201 35.7224 28.6201 35.3109V30.1133C28.6201 29.7017 28.9478 29.374 29.3594 29.374H34.557C34.9685 29.374 35.2962 29.7017 35.2962 30.1133V35.3109C35.2962 35.7148 34.9609 36.0502 34.557 36.0502ZM30.0986 34.5716H33.8177V30.8525H30.0986V34.5716Z" fill="url(#paint8_linear_194_6671)"/>
<path d="M44.9672 36.0502H39.7695C39.358 36.0502 39.0303 35.7224 39.0303 35.3109V30.1133C39.0303 29.7017 39.358 29.374 39.7695 29.374H44.9672C45.3787 29.374 45.7064 29.7017 45.7064 30.1133V35.3109C45.7064 35.7148 45.3711 36.0502 44.9672 36.0502ZM40.5088 34.5716H44.2279V30.8525H40.5088V34.5716Z" fill="url(#paint9_linear_194_6671)"/>
<path d="M24.1459 45.9193H18.9482C18.5367 45.9193 18.209 45.5916 18.209 45.18V39.9824C18.209 39.5709 18.5367 39.2432 18.9482 39.2432H24.1459C24.5574 39.2432 24.8851 39.5709 24.8851 39.9824V45.18C24.8851 45.5916 24.5498 45.9193 24.1459 45.9193ZM19.6875 44.4408H23.4066V40.7217H19.6875V44.4408Z" fill="url(#paint10_linear_194_6671)"/>
<path d="M34.557 45.9193H29.3594C28.9478 45.9193 28.6201 45.5916 28.6201 45.18V39.9824C28.6201 39.5709 28.9478 39.2432 29.3594 39.2432H34.557C34.9685 39.2432 35.2962 39.5709 35.2962 39.9824V45.18C35.2962 45.5916 34.9609 45.9193 34.557 45.9193ZM30.0986 44.4408H33.8177V40.7217H30.0986V44.4408Z" fill="url(#paint11_linear_194_6671)"/>
<path d="M44.9672 45.9193H39.7695C39.358 45.9193 39.0303 45.5916 39.0303 45.18V39.9824C39.0303 39.5709 39.358 39.2432 39.7695 39.2432H44.9672C45.3787 39.2432 45.7064 39.5709 45.7064 39.9824V45.18C45.7064 45.5916 45.3711 45.9193 44.9672 45.9193ZM40.5088 44.4408H44.2279V40.7217H40.5088V44.4408Z" fill="url(#paint12_linear_194_6671)"/>
</g>
<defs>
<linearGradient id="paint0_linear_194_6671" x1="11.1379" y1="29.374" x2="11.1379" y2="36.0502" gradientUnits="userSpaceOnUse">
<stop stop-color="#FE4139"/>
<stop offset="1" stop-color="#FFBE36"/>
</linearGradient>
<linearGradient id="paint1_linear_194_6671" x1="11.1379" y1="39.2432" x2="11.1379" y2="45.9193" gradientUnits="userSpaceOnUse">
<stop stop-color="#FE4139"/>
<stop offset="1" stop-color="#FFBE36"/>
</linearGradient>
<linearGradient id="paint2_linear_194_6671" x1="25.2169" y1="5.33691" x2="25.2169" y2="49.1661" gradientUnits="userSpaceOnUse">
<stop stop-color="#FE4139"/>
<stop offset="1" stop-color="#FFBE36"/>
</linearGradient>
<linearGradient id="paint3_linear_194_6671" x1="25.2207" y1="16.3721" x2="25.2207" y2="17.8506" gradientUnits="userSpaceOnUse">
<stop stop-color="#FE4139"/>
<stop offset="1" stop-color="#FFBE36"/>
</linearGradient>
<linearGradient id="paint4_linear_194_6671" x1="25.2257" y1="0.833008" x2="25.2257" y2="10.8091" gradientUnits="userSpaceOnUse">
<stop stop-color="#FE4139"/>
<stop offset="1" stop-color="#FFBE36"/>
</linearGradient>
<linearGradient id="paint5_linear_194_6671" x1="31.8351" y1="19.4971" x2="31.8351" y2="26.1732" gradientUnits="userSpaceOnUse">
<stop stop-color="#FE4139"/>
<stop offset="1" stop-color="#FFBE36"/>
</linearGradient>
<linearGradient id="paint6_linear_194_6671" x1="42.3683" y1="19.4971" x2="42.3683" y2="26.1732" gradientUnits="userSpaceOnUse">
<stop stop-color="#FE4139"/>
<stop offset="1" stop-color="#FFBE36"/>
</linearGradient>
<linearGradient id="paint7_linear_194_6671" x1="21.547" y1="29.374" x2="21.547" y2="36.0502" gradientUnits="userSpaceOnUse">
<stop stop-color="#FE4139"/>
<stop offset="1" stop-color="#FFBE36"/>
</linearGradient>
<linearGradient id="paint8_linear_194_6671" x1="31.9582" y1="29.374" x2="31.9582" y2="36.0502" gradientUnits="userSpaceOnUse">
<stop stop-color="#FE4139"/>
<stop offset="1" stop-color="#FFBE36"/>
</linearGradient>
<linearGradient id="paint9_linear_194_6671" x1="42.3683" y1="29.374" x2="42.3683" y2="36.0502" gradientUnits="userSpaceOnUse">
<stop stop-color="#FE4139"/>
<stop offset="1" stop-color="#FFBE36"/>
</linearGradient>
<linearGradient id="paint10_linear_194_6671" x1="21.547" y1="39.2432" x2="21.547" y2="45.9193" gradientUnits="userSpaceOnUse">
<stop stop-color="#FE4139"/>
<stop offset="1" stop-color="#FFBE36"/>
</linearGradient>
<linearGradient id="paint11_linear_194_6671" x1="31.9582" y1="39.2432" x2="31.9582" y2="45.9193" gradientUnits="userSpaceOnUse">
<stop stop-color="#FE4139"/>
<stop offset="1" stop-color="#FFBE36"/>
</linearGradient>
<linearGradient id="paint12_linear_194_6671" x1="42.3683" y1="39.2432" x2="42.3683" y2="45.9193" gradientUnits="userSpaceOnUse">
<stop stop-color="#FE4139"/>
<stop offset="1" stop-color="#FFBE36"/>
</linearGradient>
<clipPath id="clip0_194_6671">
<rect width="50" height="50" fill="white"/>
</clipPath>
</defs>
</svg>
