<svg width="60" height="60" viewBox="0 0 60 60" fill="none" xmlns="http://www.w3.org/2000/svg">
<path d="M21.994 16.5342H53.266L36.1833 29.9488C35.8213 30.2328 35.3906 30.3715 35 30.4095C34.6066 30.3708 34.1746 30.2322 33.8086 29.9488L21.6006 20.3588C21.4713 20.2548 21.3253 20.1755 21.1646 20.1262C21.7393 19.3155 22.0673 18.3348 22.05 17.2782C22.0466 17.0362 22.0253 16.7868 21.994 16.5342ZM14.0413 7.90683C14.0806 7.9135 14.1453 7.93816 14.286 8.0035C14.564 8.1355 15.006 8.4755 15.4386 8.9495C16.31 9.89883 17.1806 11.3368 17.6326 12.2862C17.6466 12.3142 17.6613 12.3448 17.6746 12.3762C18.9573 14.5768 19.5106 16.2602 19.5273 17.3162C19.5453 18.3768 19.2606 18.8335 18.3613 19.3502L16.0413 20.6875C14.53 21.5575 13.816 23.1168 13.6386 24.5715C13.4606 26.0268 13.7226 27.4408 14.37 28.5588L20.0966 38.4288C20.7453 39.5462 21.8526 40.4808 23.2066 41.0548C24.562 41.6302 26.276 41.7928 27.7873 40.9248L30.1073 39.5902C31.006 39.0748 31.5493 39.0642 32.462 39.6068C33.3773 40.1508 34.566 41.4648 35.8433 43.6668C35.8613 43.6995 35.8786 43.7268 35.8993 43.7582C36.498 44.6215 37.3133 46.0862 37.7066 47.3128C37.902 47.9222 37.9786 48.4728 37.954 48.7775C37.9266 49.0835 37.92 49.0522 37.8393 49.1002L36.074 50.1122C31.6393 52.0355 27.5746 51.6015 23.942 49.7175C20.3026 47.8255 17.1393 44.4088 14.934 40.3975C14.9266 40.3895 14.9233 40.3795 14.9173 40.3742L10.0866 32.0488C10.0786 32.0408 10.0753 32.0335 10.0686 32.0228C7.67862 28.1162 6.28595 23.6808 6.46062 19.6002C6.63529 15.5255 8.28862 11.8108 12.1833 8.95283L13.9493 7.94416C13.99 7.92083 14.0033 7.90283 14.0413 7.90683ZM14.0593 5.42616C13.592 5.41883 13.1153 5.51683 12.6866 5.7655L10.8193 6.8395C10.7773 6.8635 10.7386 6.88816 10.7006 6.91216C6.20795 10.2002 4.13929 14.7775 3.93729 19.4955C3.73529 24.2115 5.30995 29.0788 7.91129 33.3342L12.726 41.6308L12.7146 41.6062C15.118 45.9735 18.562 49.7622 22.7706 51.9448C26.9813 54.1308 31.9973 54.6375 37.1066 52.4095C37.1486 52.3915 37.1913 52.3715 37.2293 52.3482L39.0993 51.2742C39.964 50.7822 40.3986 49.8248 40.4693 48.9888C40.542 48.1555 40.372 47.3442 40.114 46.5448C39.6086 44.9642 38.7273 43.4288 37.9993 42.3755C36.624 40.0095 35.296 38.3675 33.7613 37.4495C32.2146 36.5275 30.358 36.5408 28.8433 37.4115L26.5233 38.7488C25.838 39.1435 25.0366 39.0975 24.1933 38.7408C23.354 38.3842 22.5766 37.6708 22.288 37.1708L16.5613 27.3015C16.272 26.7988 16.0353 25.7735 16.1473 24.8695C16.2553 23.9682 16.6213 23.2622 17.3073 22.8668L19.5613 21.5708C19.62 21.8728 19.7906 22.1468 20.038 22.3308L32.2466 31.9228C33.0406 32.5468 33.9813 32.8942 34.9286 32.9488C34.9766 32.9515 35.026 32.9515 35.0746 32.9488C36.0226 32.8942 36.9586 32.5462 37.7533 31.9228L54.568 18.7135V40.5362C54.568 40.8682 54.1893 41.3055 53.4466 41.3055H41.806C41.1053 41.3015 40.538 41.8668 40.538 42.5635C40.538 43.2588 41.106 43.8242 41.806 43.8202H53.4466C55.3493 43.8202 57.098 42.4448 57.098 40.5362V17.3035C57.098 15.3935 55.3493 14.0188 53.4466 14.0188H21.3013C20.9453 13.1288 20.4753 12.1855 19.8833 11.1602C19.3293 10.0068 18.4306 8.48216 17.306 7.25616C16.738 6.63483 16.1253 6.08416 15.3593 5.72816V5.7315C14.9786 5.5515 14.526 5.43616 14.0593 5.42616Z" fill="url(#paint0_linear_226_9673)"/>
<defs>
<linearGradient id="paint0_linear_226_9673" x1="30.5089" y1="5.42578" x2="30.5089" y2="53.8523" gradientUnits="userSpaceOnUse">
<stop stop-color="#FE4139"/>
<stop offset="1" stop-color="#FFBE36"/>
</linearGradient>
</defs>
</svg>
