<svg width="48" height="56" viewBox="0 0 48 56" fill="none" xmlns="http://www.w3.org/2000/svg">
<path d="M0.973497 35.8304L4.75 37.0895V48.125C4.75 48.5021 4.99062 48.8355 5.3485 48.9554L23.7235 55.0804C23.8136 55.1101 23.9064 55.125 24 55.125C24.0936 55.125 24.1864 55.1101 24.2765 55.0804L42.6515 48.9554C43.0094 48.8355 43.25 48.5021 43.25 48.125V37.0895L47.0265 35.8304C47.2899 35.742 47.4964 35.5346 47.5821 35.2704C47.6679 35.0061 47.6232 34.7174 47.4622 34.4916L43.0872 28.3666C42.9796 28.2161 42.8274 28.1032 42.6515 28.0446L25.4542 22.3125L32.5584 19.9448C32.8629 20.0585 33.1849 20.125 33.5191 20.125C35.025 20.125 36.25 18.9 36.25 17.3941C36.25 16.6644 35.9656 15.9784 35.4502 15.463L32.2372 12.25L32.8252 11.662C33.3406 11.1466 33.625 10.4606 33.625 9.73088C33.625 8.225 32.4 7 30.8941 7C30.1644 7 29.4784 7.28437 28.963 7.79975L28.375 8.38775L25.162 5.17475C24.6466 4.65938 23.9606 4.375 23.2309 4.375C21.725 4.375 20.5 5.6 20.5 7.10588C20.5 7.44013 20.5665 7.763 20.6802 8.06662L17.9852 16.1525L13.5 20.6378C12.9356 21.2021 12.625 21.952 12.625 22.75C12.625 23.1534 12.7055 23.5445 12.8569 23.9059L12.5497 24.213C12.0921 24.6706 11.8296 25.2656 11.7736 25.9035L5.3485 28.0455C5.1735 28.1041 5.02037 28.2161 4.91275 28.3675L0.537747 34.4925C0.376747 34.7182 0.332122 35.007 0.417872 35.2713C0.503622 35.5355 0.710122 35.742 0.973497 35.8304ZM6.5 37.6722L19.3485 41.9554C19.4395 41.9851 19.5331 42 19.625 42C19.9015 42 20.1692 41.8679 20.3372 41.6334L23.125 37.7309V53.0364L6.5 47.495V37.6722ZM14.4809 28.875C15.2106 28.875 15.8966 28.5906 16.412 28.0752L16.7191 27.7681C17.0805 27.9195 17.4716 28 17.875 28C18.4989 28 19.0904 27.8049 19.59 27.4523L24.2564 32.1186C24.427 32.2893 24.651 32.375 24.875 32.375C25.099 32.375 25.323 32.2893 25.4936 32.1186L28.9936 28.6186C29.3357 28.2765 29.3357 27.7235 28.9936 27.3814L25.9267 24.3145L39.6082 28.875L24 34.0777L8.39175 28.875L12.1849 27.6106C12.6705 28.3684 13.5157 28.875 14.4809 28.875ZM13.9375 25.2997L15.3252 26.6875L15.1747 26.838C14.9892 27.0226 14.7434 27.125 14.4809 27.125C13.9401 27.125 13.5 26.6849 13.5 26.1441C13.5 25.8816 13.6024 25.6357 13.787 25.4503L13.9375 25.2997ZM30.9116 18.6489L24.2362 20.874L19.751 16.3888L21.9761 9.71338L30.9116 18.6489ZM23.125 23.9872L27.1377 28L24.875 30.2627L20.8622 26.25L23.125 23.9872ZM41.5 47.4941L24.875 53.0355V37.7309L27.6627 41.6334C27.8307 41.8679 28.0985 42 28.375 42C28.4669 42 28.5605 41.9851 28.6515 41.9554L41.5 37.6722V47.4941ZM45.3491 34.5441L28.711 40.0899L25.4009 35.455L42.039 29.9092L45.3491 34.5441ZM30.2002 9.037C30.3857 8.85238 30.6316 8.75 30.8941 8.75C31.4349 8.75 31.875 9.19013 31.875 9.73088C31.875 9.99338 31.7726 10.2392 31.588 10.4247L31 11.0128L29.6122 9.625L30.2002 9.037ZM23.2309 6.125C23.4934 6.125 23.7392 6.22738 23.9247 6.412L34.213 16.7003C34.3976 16.8858 34.5 17.1316 34.5 17.3941C34.5 17.9349 34.0599 18.375 33.5191 18.375C33.2566 18.375 33.0107 18.2726 32.8252 18.088L22.537 7.79975C22.3524 7.61425 22.25 7.36838 22.25 7.10588C22.25 6.56513 22.6901 6.125 23.2309 6.125ZM14.7372 21.875L18.75 17.8622L22.7627 21.875L18.75 25.8878C18.2897 26.348 17.4602 26.348 17 25.8878L14.7372 23.625C14.5071 23.3949 14.375 23.0755 14.375 22.75C14.375 22.4245 14.5071 22.1051 14.7372 21.875ZM5.961 29.9092L22.5991 35.455L19.289 40.0899L2.65087 34.5441L5.961 29.9092Z" fill="url(#paint0_linear_194_2444)"/>
<path d="M33.0025 6.38477L36.5026 2.88468L37.74 4.12211L34.2399 7.6222L33.0025 6.38477Z" fill="url(#paint1_linear_194_2444)"/>
<path d="M35.375 8.75H39.75V10.5H35.375V8.75Z" fill="url(#paint2_linear_194_2444)"/>
<path d="M30.125 0.875H31.875V5.25H30.125V0.875Z" fill="url(#paint3_linear_194_2444)"/>
<defs>
<linearGradient id="paint0_linear_194_2444" x1="24" y1="4.375" x2="24" y2="55.125" gradientUnits="userSpaceOnUse">
<stop stop-color="#FE4139"/>
<stop offset="1" stop-color="#FFBE36"/>
</linearGradient>
<linearGradient id="paint1_linear_194_2444" x1="34.7525" y1="4.63472" x2="35.99" y2="5.87216" gradientUnits="userSpaceOnUse">
<stop stop-color="#FE4139"/>
<stop offset="1" stop-color="#FFBE36"/>
</linearGradient>
<linearGradient id="paint2_linear_194_2444" x1="37.5625" y1="8.75" x2="37.5625" y2="10.5" gradientUnits="userSpaceOnUse">
<stop stop-color="#FE4139"/>
<stop offset="1" stop-color="#FFBE36"/>
</linearGradient>
<linearGradient id="paint3_linear_194_2444" x1="31" y1="0.875" x2="31" y2="5.25" gradientUnits="userSpaceOnUse">
<stop stop-color="#FE4139"/>
<stop offset="1" stop-color="#FFBE36"/>
</linearGradient>
</defs>
</svg>
