<svg width="170" height="42" viewBox="0 0 170 42" fill="none" xmlns="http://www.w3.org/2000/svg">
<g clip-path="url(#clip0_226_9448)">
<path d="M51.2775 29.8231H63.2295V26.2231H55.5255V12.6631H51.2775V29.8231Z" fill="#101010"/>
<path d="M70.3105 27.4232C68.6065 27.4232 67.7185 25.9352 67.7185 23.7032C67.7185 21.4712 68.6065 19.9592 70.3105 19.9592C72.0145 19.9592 72.9265 21.4712 72.9265 23.7032C72.9265 25.9352 72.0145 27.4232 70.3105 27.4232ZM70.3345 30.2072C74.2945 30.2072 76.8865 27.3992 76.8865 23.7032C76.8865 20.0072 74.2945 17.1992 70.3345 17.1992C66.3985 17.1992 63.7585 20.0072 63.7585 23.7032C63.7585 27.3992 66.3985 30.2072 70.3345 30.2072Z" fill="#101010"/>
<path d="M83.7411 34.0708C85.5651 34.0708 87.1731 33.6628 88.2531 32.7028C89.2371 31.8148 89.8851 30.4708 89.8851 28.6228V17.5348H86.1411V18.8548H86.0931C85.3731 17.8228 84.2691 17.1748 82.6371 17.1748C79.5891 17.1748 77.4771 19.7188 77.4771 23.3188C77.4771 27.0868 80.0451 29.1508 82.8051 29.1508C84.2931 29.1508 85.2291 28.5508 85.9491 27.7348H86.0451V28.9588C86.0451 30.4468 85.3491 31.3108 83.6931 31.3108C82.3971 31.3108 81.7491 30.7588 81.5331 30.1108H77.7411C78.1251 32.6788 80.3571 34.0708 83.7411 34.0708ZM83.7171 26.2468C82.2531 26.2468 81.2931 25.0468 81.2931 23.1988C81.2931 21.3268 82.2531 20.1268 83.7171 20.1268C85.3491 20.1268 86.2131 21.5188 86.2131 23.1748C86.2131 24.9028 85.4211 26.2468 83.7171 26.2468Z" fill="#101010"/>
<path d="M97.5834 27.4232C95.8794 27.4232 94.9914 25.9352 94.9914 23.7032C94.9914 21.4712 95.8794 19.9592 97.5834 19.9592C99.2874 19.9592 100.199 21.4712 100.199 23.7032C100.199 25.9352 99.2874 27.4232 97.5834 27.4232ZM97.6074 30.2072C101.567 30.2072 104.159 27.3992 104.159 23.7032C104.159 20.0072 101.567 17.1992 97.6074 17.1992C93.6714 17.1992 91.0314 20.0072 91.0314 23.7032C91.0314 27.3992 93.6714 30.2072 97.6074 30.2072Z" fill="#101010"/>
<path d="M105.302 29.8231H109.214V17.5351H105.302V29.8231ZM105.302 15.8311H109.214V12.6631H105.302V15.8311Z" fill="#101010"/>
<path d="M110.911 33.8788H114.823V28.5508H114.871C115.639 29.5828 116.767 30.2068 118.351 30.2068C121.567 30.2068 123.703 27.6628 123.703 23.6788C123.703 19.9828 121.711 17.1748 118.447 17.1748C116.767 17.1748 115.567 17.9188 114.727 19.0228H114.655V17.5348H110.911V33.8788ZM117.343 27.1828C115.663 27.1828 114.703 25.8148 114.703 23.8228C114.703 21.8308 115.567 20.3188 117.271 20.3188C118.951 20.3188 119.743 21.7108 119.743 23.8228C119.743 25.9108 118.831 27.1828 117.343 27.1828Z" fill="#101010"/>
<path d="M130.072 30.2068C133.288 30.2068 135.664 28.8148 135.664 26.1268C135.664 22.9828 133.12 22.4308 130.96 22.0708C129.4 21.7828 128.008 21.6628 128.008 20.7988C128.008 20.0308 128.752 19.6708 129.712 19.6708C130.792 19.6708 131.536 20.0068 131.68 21.1108H135.28C135.088 18.6868 133.216 17.1748 129.736 17.1748C126.832 17.1748 124.432 18.5188 124.432 21.1108C124.432 23.9908 126.712 24.5668 128.848 24.9268C130.48 25.2148 131.968 25.3348 131.968 26.4388C131.968 27.2308 131.224 27.6628 130.048 27.6628C128.752 27.6628 127.936 27.0628 127.792 25.8388H124.096C124.216 28.5508 126.472 30.2068 130.072 30.2068Z" fill="#101010"/>
<path d="M140.978 30.1832C142.682 30.1832 143.762 29.5112 144.65 28.3112H144.722V29.8232H148.466V17.5352H144.554V24.3992C144.554 25.8632 143.738 26.8712 142.394 26.8712C141.146 26.8712 140.546 26.1272 140.546 24.7832V17.5352H136.658V25.5992C136.658 28.3352 138.146 30.1832 140.978 30.1832Z" fill="#101010"/>
<path d="M150.168 29.8228H154.08V22.9348C154.08 21.4708 154.8 20.4388 156.024 20.4388C157.2 20.4388 157.752 21.2068 157.752 22.5268V29.8228H161.664V22.9348C161.664 21.4708 162.36 20.4388 163.608 20.4388C164.784 20.4388 165.336 21.2068 165.336 22.5268V29.8228H169.248V21.8308C169.248 19.0708 167.856 17.1748 165.072 17.1748C163.488 17.1748 162.168 17.8468 161.208 19.3348H161.16C160.536 18.0148 159.312 17.1748 157.704 17.1748C155.928 17.1748 154.752 18.0148 153.984 19.2868H153.912V17.5348H150.168V29.8228Z" fill="#101010"/>
<path fill-rule="evenodd" clip-rule="evenodd" d="M20.1014 40.8232C31.1472 40.8232 40.1014 31.8689 40.1014 20.8232C40.1014 9.77754 31.1472 0.823242 20.1014 0.823242C9.05573 0.823242 0.10144 9.77754 0.10144 20.8232C0.10144 31.8689 9.05573 40.8232 20.1014 40.8232ZM23.1884 16.2758C24.8932 14.5709 24.8932 11.8068 23.1884 10.1019C21.4835 8.39702 18.7194 8.39702 17.0145 10.1019C15.3097 11.8068 15.3097 14.5709 17.0145 16.2758L20.1014 19.3627L23.1884 16.2758ZM24.6489 23.9102C26.3538 25.6151 29.1179 25.6151 30.8228 23.9102C32.5276 22.2053 32.5276 19.4412 30.8228 17.7363C29.1179 16.0315 26.3538 16.0315 24.6489 17.7363L21.562 20.8233L24.6489 23.9102ZM23.1884 31.5446C24.8932 29.8397 24.8932 27.0756 23.1884 25.3707L20.1014 22.2838L17.0145 25.3707C15.3097 27.0756 15.3097 29.8397 17.0145 31.5446C18.7194 33.2495 21.4835 33.2495 23.1884 31.5446ZM9.38007 23.9102C7.67523 22.2053 7.67523 19.4412 9.38007 17.7363C11.085 16.0315 13.8491 16.0315 15.554 17.7363L18.6409 20.8233L15.554 23.9102C13.8491 25.6151 11.085 25.6151 9.38007 23.9102Z" fill="#FF4438"/>
</g>
<defs>
<clipPath id="clip0_226_9448">
<rect width="170" height="41" fill="white" transform="translate(0 0.5)"/>
</clipPath>
</defs>
</svg>
