<svg width="50" height="50" viewBox="0 0 50 50" fill="none" xmlns="http://www.w3.org/2000/svg">
<g clip-path="url(#clip0_194_6713)">
<path d="M49.9522 49.0074L42.628 29.7135C42.5672 29.5533 42.452 29.4195 42.3028 29.3354L34.5015 24.9403L36.7791 21.329C38.1769 19.1108 38.9159 16.5474 38.9159 13.916C38.9159 6.24266 32.6732 0 24.9999 0C17.3266 0 11.0839 6.24266 11.0839 13.916C11.0839 16.5481 11.8232 19.1116 13.2218 21.3292C13.2592 21.3886 15.4989 24.9405 15.4989 24.9405L7.69722 29.3354C7.54791 29.4195 7.43277 29.5533 7.37193 29.7135L0.0477256 49.0074C-0.0617469 49.2957 0.0211631 49.6217 0.254854 49.8228C0.488838 50.0239 0.82331 50.057 1.09196 49.9056L12.8662 43.2722L24.6404 49.9056C24.8635 50.0312 25.1363 50.0312 25.3594 49.9056L37.1336 43.2722L48.9078 49.9056C49.0201 49.9688 49.144 49.9999 49.2673 49.9999C49.4387 49.9999 49.6089 49.9398 49.745 49.8228C49.9789 49.6217 50.0617 49.2957 49.9522 49.0074ZM25.7324 37.96C26.1906 37.7983 26.5879 37.4867 26.8575 37.0599C26.8947 37.0013 33.1299 27.1152 33.1299 27.1152L36.3056 42.0573L25.7324 48.014V37.96ZM14.4609 20.5476C13.21 18.5642 12.5489 16.2711 12.5489 13.9159C12.5489 7.05028 18.1344 1.46474 25 1.46474C31.8656 1.46474 37.4512 7.05028 37.4512 13.9159C37.4512 16.2706 36.7902 18.5639 35.5401 20.5476C35.4424 20.7026 25.7918 36.0065 25.6235 36.2708C25.6219 36.2731 25.6205 36.2754 25.6191 36.2777C25.4832 36.4925 25.2519 36.6209 25 36.6209C24.748 36.6209 24.5155 36.4919 24.3795 36.2781C24.2817 36.1229 14.6119 20.7887 14.4642 20.553C14.4631 20.5512 14.462 20.5495 14.4609 20.5476ZM8.64722 30.4814L15.4749 26.635L14.2855 32.2311C14.2014 32.6268 14.4539 33.0157 14.8496 33.0998C14.9009 33.1108 14.9522 33.116 15.0026 33.116C15.341 33.116 15.6451 32.88 15.7182 32.5358L16.8703 27.1157L23.1418 37.0618C23.4124 37.4875 23.81 37.7984 24.2674 37.9599V48.0142L13.6945 42.0574L15.1092 35.4013C15.1933 35.0056 14.9408 34.6167 14.5452 34.5325C14.1491 34.448 13.7605 34.7011 13.6764 35.0966L12.2185 41.9556L2.13493 47.6366L8.64722 30.4814ZM37.7814 41.9557L34.5253 26.6349L41.3527 30.4814L47.8651 47.6366L37.7814 41.9557Z" fill="url(#paint0_linear_194_6713)"/>
<path d="M33.0566 13.916C33.0566 9.47363 29.4424 5.85938 25 5.85938C20.5576 5.85938 16.9434 9.47363 16.9434 13.916C16.9434 18.3584 20.5576 21.9727 25 21.9727C29.4424 21.9727 33.0566 18.3584 33.0566 13.916ZM18.4082 13.916C18.4082 10.2812 21.3652 7.32422 25 7.32422C28.6348 7.32422 31.5918 10.2812 31.5918 13.916C31.5918 17.5508 28.6348 20.5078 25 20.5078C21.3652 20.5078 18.4082 17.5508 18.4082 13.916Z" fill="url(#paint1_linear_194_6713)"/>
<path d="M30.127 13.916C30.127 11.0891 27.827 8.78906 25 8.78906C22.173 8.78906 19.873 11.0891 19.873 13.916C19.873 16.743 22.173 19.043 25 19.043C27.827 19.043 30.127 16.743 30.127 13.916ZM21.3379 13.916C21.3379 11.8967 22.9807 10.2539 25 10.2539C27.0193 10.2539 28.6621 11.8967 28.6621 13.916C28.6621 15.9354 27.0193 17.5781 25 17.5781C22.9807 17.5781 21.3379 15.9354 21.3379 13.916Z" fill="url(#paint2_linear_194_6713)"/>
</g>
<defs>
<linearGradient id="paint0_linear_194_6713" x1="25" y1="0" x2="25" y2="50" gradientUnits="userSpaceOnUse">
<stop stop-color="#FE4139"/>
<stop offset="1" stop-color="#FFBE36"/>
</linearGradient>
<linearGradient id="paint1_linear_194_6713" x1="25" y1="5.85938" x2="25" y2="21.9727" gradientUnits="userSpaceOnUse">
<stop stop-color="#FE4139"/>
<stop offset="1" stop-color="#FFBE36"/>
</linearGradient>
<linearGradient id="paint2_linear_194_6713" x1="25" y1="8.78906" x2="25" y2="19.043" gradientUnits="userSpaceOnUse">
<stop stop-color="#FE4139"/>
<stop offset="1" stop-color="#FFBE36"/>
</linearGradient>
<clipPath id="clip0_194_6713">
<rect width="50" height="50" fill="white"/>
</clipPath>
</defs>
</svg>
