<svg width="50" height="50" viewBox="0 0 50 50" fill="none" xmlns="http://www.w3.org/2000/svg">
<path d="M13.3292 3.125H6.10645C5.48505 3.12568 4.8893 3.37283 4.44991 3.81222C4.01052 4.25161 3.76337 4.84736 3.7627 5.46875V12.6915C3.76337 13.3129 4.01052 13.9086 4.44991 14.348C4.8893 14.7874 5.48505 15.0346 6.10645 15.0352H13.3292C13.9506 15.0346 14.5463 14.7874 14.9857 14.348C15.4251 13.9086 15.6723 13.3129 15.6729 12.6915V5.46875C15.6723 4.84736 15.4251 4.25161 14.9857 3.81222C14.5463 3.37283 13.9506 3.12568 13.3292 3.125ZM14.1104 12.6915C14.1102 12.8986 14.0279 13.0972 13.8814 13.2437C13.7349 13.3902 13.5363 13.4725 13.3292 13.4727H6.10645C5.89931 13.4725 5.70071 13.3902 5.55425 13.2437C5.40778 13.0972 5.3254 12.8986 5.3252 12.6915V5.46875C5.3254 5.26161 5.40778 5.06302 5.55425 4.91655C5.70071 4.77008 5.89931 4.68771 6.10645 4.6875H13.3292C13.5363 4.68771 13.7349 4.77008 13.8814 4.91655C14.0279 5.06302 14.1102 5.26161 14.1104 5.46875V12.6915Z" fill="url(#paint0_linear_194_6652)"/>
<path d="M13.3292 19.0449H6.10645C5.48505 19.0456 4.8893 19.2927 4.44991 19.7321C4.01052 20.1715 3.76337 20.7673 3.7627 21.3887V28.6114C3.76337 29.2328 4.01052 29.8286 4.44991 30.268C4.8893 30.7073 5.48505 30.9545 6.10645 30.9552H13.3292C13.9506 30.9545 14.5463 30.7073 14.9857 30.268C15.4251 29.8286 15.6723 29.2328 15.6729 28.6114V21.3887C15.6723 20.7673 15.4251 20.1715 14.9857 19.7321C14.5463 19.2927 13.9506 19.0456 13.3292 19.0449ZM14.1104 28.6114C14.1102 28.8186 14.0279 29.0172 13.8814 29.1636C13.7349 29.3101 13.5363 29.3925 13.3292 29.3927H6.10645C5.89931 29.3925 5.70071 29.3101 5.55425 29.1636C5.40778 29.0172 5.3254 28.8186 5.3252 28.6114V21.3887C5.3254 21.1815 5.40778 20.9829 5.55425 20.8365C5.70071 20.69 5.89931 20.6076 6.10645 20.6074H13.3292C13.5363 20.6076 13.7349 20.69 13.8814 20.8365C14.0279 20.9829 14.1102 21.1815 14.1104 21.3887V28.6114Z" fill="url(#paint1_linear_194_6652)"/>
<path d="M13.3292 34.9648H6.10645C5.48505 34.9655 4.8893 35.2127 4.44991 35.6521C4.01052 36.0915 3.76337 36.6872 3.7627 37.3086V44.5313C3.76337 45.1527 4.01052 45.7485 4.44991 46.1879C4.8893 46.6273 5.48505 46.8744 6.10645 46.8751H13.3292C13.9506 46.8744 14.5463 46.6273 14.9857 46.1879C15.4251 45.7485 15.6723 45.1527 15.6729 44.5313V37.3086C15.6723 36.6872 15.4251 36.0915 14.9857 35.6521C14.5463 35.2127 13.9506 34.9655 13.3292 34.9648ZM14.1104 44.5313C14.1102 44.7385 14.0279 44.9371 13.8814 45.0835C13.7349 45.23 13.5363 45.3124 13.3292 45.3126H6.10645C5.89931 45.3124 5.70071 45.23 5.55425 45.0835C5.40778 44.9371 5.3254 44.7385 5.3252 44.5313V37.3086C5.3254 37.1015 5.40778 36.9029 5.55425 36.7564C5.70071 36.6099 5.89931 36.5276 6.10645 36.5273H13.3292C13.5363 36.5276 13.7349 36.6099 13.8814 36.7564C14.0279 36.9029 14.1102 37.1015 14.1104 37.3086V44.5313Z" fill="url(#paint2_linear_194_6652)"/>
<path d="M17.6777 5.08496H45.4563C45.6635 5.08496 45.8622 5.00265 46.0087 4.85614C46.1553 4.70963 46.2376 4.51091 46.2376 4.30371C46.2376 4.09651 46.1553 3.8978 46.0087 3.75128C45.8622 3.60477 45.6635 3.52246 45.4563 3.52246H17.6777C17.4705 3.52246 17.2718 3.60477 17.1253 3.75128C16.9788 3.8978 16.8965 4.09651 16.8965 4.30371C16.8965 4.51091 16.9788 4.70963 17.1253 4.85614C17.2718 5.00265 17.4705 5.08496 17.6777 5.08496Z" fill="url(#paint3_linear_194_6652)"/>
<path d="M17.6777 9.86133H37.5004C37.7076 9.86133 37.9063 9.77902 38.0528 9.63251C38.1993 9.48599 38.2816 9.28728 38.2816 9.08008C38.2816 8.87288 38.1993 8.67416 38.0528 8.52765C37.9063 8.38114 37.7076 8.29883 37.5004 8.29883H17.6777C17.4705 8.29883 17.2718 8.38114 17.1253 8.52765C16.9788 8.67416 16.8965 8.87288 16.8965 9.08008C16.8965 9.28728 16.9788 9.48599 17.1253 9.63251C17.2718 9.77902 17.4705 9.86133 17.6777 9.86133Z" fill="url(#paint4_linear_194_6652)"/>
<path d="M17.6777 14.6377H32.1018C32.309 14.6377 32.5077 14.5554 32.6543 14.4089C32.8008 14.2624 32.8831 14.0636 32.8831 13.8564C32.8831 13.6492 32.8008 13.4505 32.6543 13.304C32.5077 13.1575 32.309 13.0752 32.1018 13.0752H17.6777C17.4705 13.0752 17.2718 13.1575 17.1253 13.304C16.9788 13.4505 16.8965 13.6492 16.8965 13.8564C16.8965 14.0636 16.9788 14.2624 17.1253 14.4089C17.2718 14.5554 17.4705 14.6377 17.6777 14.6377Z" fill="url(#paint5_linear_194_6652)"/>
<path d="M45.4563 19.4424H17.6777C17.4705 19.4424 17.2718 19.5247 17.1253 19.6712C16.9788 19.8177 16.8965 20.0164 16.8965 20.2236C16.8965 20.4308 16.9788 20.6295 17.1253 20.7761C17.2718 20.9226 17.4705 21.0049 17.6777 21.0049H45.4563C45.6635 21.0049 45.8622 20.9226 46.0087 20.7761C46.1553 20.6295 46.2376 20.4308 46.2376 20.2236C46.2376 20.0164 46.1553 19.8177 46.0087 19.6712C45.8622 19.5247 45.6635 19.4424 45.4563 19.4424Z" fill="url(#paint6_linear_194_6652)"/>
<path d="M17.6777 25.7812H37.5004C37.7076 25.7812 37.9063 25.6989 38.0528 25.5524C38.1993 25.4059 38.2816 25.2072 38.2816 25C38.2816 24.7928 38.1993 24.5941 38.0528 24.4476C37.9063 24.3011 37.7076 24.2188 37.5004 24.2188H17.6777C17.4705 24.2188 17.2718 24.3011 17.1253 24.4476C16.9788 24.5941 16.8965 24.7928 16.8965 25C16.8965 25.2072 16.9788 25.4059 17.1253 25.5524C17.2718 25.6989 17.4705 25.7812 17.6777 25.7812Z" fill="url(#paint7_linear_194_6652)"/>
<path d="M17.6777 30.5576H32.1018C32.309 30.5576 32.5077 30.4753 32.6543 30.3288C32.8008 30.1823 32.8831 29.9836 32.8831 29.7764C32.8831 29.5692 32.8008 29.3705 32.6543 29.2239C32.5077 29.0774 32.309 28.9951 32.1018 28.9951H17.6777C17.4705 28.9951 17.2718 29.0774 17.1253 29.2239C16.9788 29.3705 16.8965 29.5692 16.8965 29.7764C16.8965 29.9836 16.9788 30.1823 17.1253 30.3288C17.2718 30.4753 17.4705 30.5576 17.6777 30.5576Z" fill="url(#paint8_linear_194_6652)"/>
<path d="M45.4563 35.3623H17.6777C17.4705 35.3623 17.2718 35.4446 17.1253 35.5911C16.9788 35.7376 16.8965 35.9364 16.8965 36.1436C16.8965 36.3508 16.9788 36.5495 17.1253 36.696C17.2718 36.8425 17.4705 36.9248 17.6777 36.9248H45.4563C45.6635 36.9248 45.8622 36.8425 46.0087 36.696C46.1553 36.5495 46.2376 36.3508 46.2376 36.1436C46.2376 35.9364 46.1553 35.7376 46.0087 35.5911C45.8622 35.4446 45.6635 35.3623 45.4563 35.3623Z" fill="url(#paint9_linear_194_6652)"/>
<path d="M37.5004 40.1387H17.6777C17.4705 40.1387 17.2718 40.221 17.1253 40.3675C16.9788 40.514 16.8965 40.7127 16.8965 40.9199C16.8965 41.1271 16.9788 41.3258 17.1253 41.4723C17.2718 41.6189 17.4705 41.7012 17.6777 41.7012H37.5004C37.7076 41.7012 37.9063 41.6189 38.0528 41.4723C38.1993 41.3258 38.2816 41.1271 38.2816 40.9199C38.2816 40.7127 38.1993 40.514 38.0528 40.3675C37.9063 40.221 37.7076 40.1387 37.5004 40.1387Z" fill="url(#paint10_linear_194_6652)"/>
<path d="M32.0919 44.915H17.6777C17.4705 44.915 17.2718 44.9974 17.1253 45.1439C16.9788 45.2904 16.8965 45.4891 16.8965 45.6963C16.8965 45.9035 16.9788 46.1022 17.1253 46.2487C17.2718 46.3952 17.4705 46.4775 17.6777 46.4775H32.092C32.2992 46.4775 32.4979 46.3952 32.6444 46.2487C32.7909 46.1022 32.8732 45.9035 32.8732 45.6963C32.8732 45.4891 32.7909 45.2904 32.6444 45.1439C32.4979 44.9974 32.2991 44.915 32.0919 44.915Z" fill="url(#paint11_linear_194_6652)"/>
<defs>
<linearGradient id="paint0_linear_194_6652" x1="9.71782" y1="3.125" x2="9.71782" y2="15.0352" gradientUnits="userSpaceOnUse">
<stop stop-color="#FE4139"/>
<stop offset="1" stop-color="#FFBE36"/>
</linearGradient>
<linearGradient id="paint1_linear_194_6652" x1="9.71782" y1="19.0449" x2="9.71782" y2="30.9552" gradientUnits="userSpaceOnUse">
<stop stop-color="#FE4139"/>
<stop offset="1" stop-color="#FFBE36"/>
</linearGradient>
<linearGradient id="paint2_linear_194_6652" x1="9.71782" y1="34.9648" x2="9.71782" y2="46.8751" gradientUnits="userSpaceOnUse">
<stop stop-color="#FE4139"/>
<stop offset="1" stop-color="#FFBE36"/>
</linearGradient>
<linearGradient id="paint3_linear_194_6652" x1="31.567" y1="3.52246" x2="31.567" y2="5.08496" gradientUnits="userSpaceOnUse">
<stop stop-color="#FE4139"/>
<stop offset="1" stop-color="#FFBE36"/>
</linearGradient>
<linearGradient id="paint4_linear_194_6652" x1="27.5891" y1="8.29883" x2="27.5891" y2="9.86133" gradientUnits="userSpaceOnUse">
<stop stop-color="#FE4139"/>
<stop offset="1" stop-color="#FFBE36"/>
</linearGradient>
<linearGradient id="paint5_linear_194_6652" x1="24.8898" y1="13.0752" x2="24.8898" y2="14.6377" gradientUnits="userSpaceOnUse">
<stop stop-color="#FE4139"/>
<stop offset="1" stop-color="#FFBE36"/>
</linearGradient>
<linearGradient id="paint6_linear_194_6652" x1="31.567" y1="19.4424" x2="31.567" y2="21.0049" gradientUnits="userSpaceOnUse">
<stop stop-color="#FE4139"/>
<stop offset="1" stop-color="#FFBE36"/>
</linearGradient>
<linearGradient id="paint7_linear_194_6652" x1="27.5891" y1="24.2188" x2="27.5891" y2="25.7812" gradientUnits="userSpaceOnUse">
<stop stop-color="#FE4139"/>
<stop offset="1" stop-color="#FFBE36"/>
</linearGradient>
<linearGradient id="paint8_linear_194_6652" x1="24.8898" y1="28.9951" x2="24.8898" y2="30.5576" gradientUnits="userSpaceOnUse">
<stop stop-color="#FE4139"/>
<stop offset="1" stop-color="#FFBE36"/>
</linearGradient>
<linearGradient id="paint9_linear_194_6652" x1="31.567" y1="35.3623" x2="31.567" y2="36.9248" gradientUnits="userSpaceOnUse">
<stop stop-color="#FE4139"/>
<stop offset="1" stop-color="#FFBE36"/>
</linearGradient>
<linearGradient id="paint10_linear_194_6652" x1="27.5891" y1="40.1387" x2="27.5891" y2="41.7012" gradientUnits="userSpaceOnUse">
<stop stop-color="#FE4139"/>
<stop offset="1" stop-color="#FFBE36"/>
</linearGradient>
<linearGradient id="paint11_linear_194_6652" x1="24.8848" y1="44.915" x2="24.8848" y2="46.4775" gradientUnits="userSpaceOnUse">
<stop stop-color="#FE4139"/>
<stop offset="1" stop-color="#FFBE36"/>
</linearGradient>
</defs>
</svg>
