<svg width="55" height="55" viewBox="0 0 55 55" fill="none" xmlns="http://www.w3.org/2000/svg">
<path d="M31.7969 46.4062H30.0781V37.9844C30.0781 37.7565 29.9876 37.5379 29.8264 37.3767C29.6653 37.2155 29.4467 37.125 29.2188 37.125C28.9908 37.125 28.7722 37.2155 28.6111 37.3767C28.4499 37.5379 28.3594 37.7565 28.3594 37.9844V46.4062H6.01562V29.2188H13.1656C13.3935 29.2188 13.6121 29.1282 13.7733 28.967C13.9345 28.8059 14.025 28.5873 14.025 28.3594C14.025 28.1315 13.9345 27.9129 13.7733 27.7517C13.6121 27.5905 13.3935 27.5 13.1656 27.5H5.15625C4.92833 27.5 4.70974 27.5905 4.54858 27.7517C4.38742 27.9129 4.29688 28.1315 4.29688 28.3594V46.4062H2.57812C2.3502 46.4062 2.13162 46.4968 1.97046 46.658C1.80929 46.8191 1.71875 47.0377 1.71875 47.2656V48.9844C1.71875 50.124 2.17146 51.2169 2.97728 52.0227C3.7831 52.8285 4.87602 53.2812 6.01562 53.2812H28.3594C29.499 53.2812 30.5919 52.8285 31.3977 52.0227C32.2035 51.2169 32.6562 50.124 32.6562 48.9844V47.2656C32.6562 47.0377 32.5657 46.8191 32.4045 46.658C32.2434 46.4968 32.0248 46.4062 31.7969 46.4062ZM30.9375 48.9844C30.9375 49.6681 30.6659 50.3239 30.1824 50.8074C29.6989 51.2909 29.0431 51.5625 28.3594 51.5625H26.6406V50.7031C26.6406 50.4752 26.5501 50.2566 26.3889 50.0955C26.2278 49.9343 26.0092 49.8438 25.7812 49.8438C25.5533 49.8438 25.3347 49.9343 25.1736 50.0955C25.0124 50.2566 24.9219 50.4752 24.9219 50.7031V51.5625H9.45312V50.7031C9.45312 50.4752 9.36258 50.2566 9.20142 50.0955C9.04026 49.9343 8.82167 49.8438 8.59375 49.8438C8.36583 49.8438 8.14724 49.9343 7.98608 50.0955C7.82492 50.2566 7.73438 50.4752 7.73438 50.7031V51.5625H6.01562C5.33186 51.5625 4.67611 51.2909 4.19262 50.8074C3.70912 50.3239 3.4375 49.6681 3.4375 48.9844V48.125H30.9375V48.9844Z" fill="url(#paint0_linear_194_2861)"/>
<path d="M46.4062 6.875H48.125C48.3529 6.875 48.5715 6.78446 48.7327 6.62329C48.8938 6.46213 48.9844 6.24355 48.9844 6.01562C48.9844 5.7877 48.8938 5.56912 48.7327 5.40796C48.5715 5.24679 48.3529 5.15625 48.125 5.15625H46.4062C45.7225 5.15625 45.0667 5.42787 44.5832 5.91137C44.0997 6.39486 43.8281 7.05061 43.8281 7.73438V8.59375H42.9688C42.7408 8.59375 42.5222 8.68429 42.3611 8.84546C42.1999 9.00662 42.1094 9.2252 42.1094 9.45312C42.1094 9.68105 42.1999 9.89963 42.3611 10.0608C42.5222 10.222 42.7408 10.3125 42.9688 10.3125H43.8281V12.8906C43.8281 13.1185 43.9187 13.3371 44.0798 13.4983C44.241 13.6595 44.4596 13.75 44.6875 13.75C44.9154 13.75 45.134 13.6595 45.2952 13.4983C45.4563 13.3371 45.5469 13.1185 45.5469 12.8906V10.3125H46.4062C46.6342 10.3125 46.8528 10.222 47.0139 10.0608C47.1751 9.89963 47.2656 9.68105 47.2656 9.45312C47.2656 9.2252 47.1751 9.00662 47.0139 8.84546C46.8528 8.68429 46.6342 8.59375 46.4062 8.59375H45.5469V7.73438C45.5469 7.50645 45.6374 7.28787 45.7986 7.12671C45.9597 6.96554 46.1783 6.875 46.4062 6.875Z" fill="url(#paint1_linear_194_2861)"/>
<path d="M50.7031 1.71875H40.3906C39.7069 1.71875 39.0511 1.99037 38.5676 2.47387C38.0841 2.95736 37.8125 3.61311 37.8125 4.29688V6.01562C37.8125 6.24355 37.903 6.46213 38.0642 6.62329C38.2254 6.78446 38.444 6.875 38.6719 6.875C38.8998 6.875 39.1184 6.78446 39.2795 6.62329C39.4407 6.46213 39.5312 6.24355 39.5312 6.01562V4.29688C39.5312 4.06895 39.6218 3.85037 39.783 3.68921C39.9441 3.52804 40.1627 3.4375 40.3906 3.4375H50.7031C50.931 3.4375 51.1496 3.52804 51.3108 3.68921C51.472 3.85037 51.5625 4.06895 51.5625 4.29688V14.6094C51.5625 14.8373 51.472 15.0559 51.3108 15.217C51.1496 15.3782 50.931 15.4688 50.7031 15.4688H40.3906C40.1627 15.4688 39.9441 15.3782 39.783 15.217C39.6218 15.0559 39.5312 14.8373 39.5312 14.6094V9.45312C39.5312 9.2252 39.4407 9.00662 39.2795 8.84546C39.1184 8.68429 38.8998 8.59375 38.6719 8.59375C38.444 8.59375 38.2254 8.68429 38.0642 8.84546C37.903 9.00662 37.8125 9.2252 37.8125 9.45312V14.6094C37.8125 15.2931 38.0841 15.9489 38.5676 16.4324C39.0511 16.9159 39.7069 17.1875 40.3906 17.1875H50.7031C51.3869 17.1875 52.0426 16.9159 52.5261 16.4324C53.0096 15.9489 53.2812 15.2931 53.2812 14.6094V4.29688C53.2812 3.61311 53.0096 2.95736 52.5261 2.47387C52.0426 1.99037 51.3869 1.71875 50.7031 1.71875Z" fill="url(#paint2_linear_194_2861)"/>
<path d="M42.1094 36.0938C42.1094 36.7736 42.311 37.4382 42.6887 38.0035C43.0664 38.5688 43.6033 39.0094 44.2314 39.2696C44.8595 39.5298 45.5507 39.5978 46.2175 39.4652C46.8843 39.3326 47.4968 39.0052 47.9776 38.5244C48.4583 38.0437 48.7857 37.4312 48.9183 36.7644C49.051 36.0976 48.9829 35.4064 48.7227 34.7783C48.4625 34.1502 48.0219 33.6133 47.4566 33.2356C46.8914 32.8579 46.2267 32.6562 45.5469 32.6562C44.6352 32.6562 43.7609 33.0184 43.1162 33.6631C42.4715 34.3077 42.1094 35.1821 42.1094 36.0938ZM47.2656 36.0938C47.2656 36.4337 47.1648 36.766 46.976 37.0486C46.7871 37.3313 46.5187 37.5516 46.2046 37.6817C45.8906 37.8118 45.545 37.8458 45.2116 37.7795C44.8782 37.7132 44.5719 37.5495 44.3315 37.3091C44.0912 37.0687 43.9275 36.7625 43.8612 36.4291C43.7948 36.0957 43.8289 35.7501 43.959 35.436C44.089 35.122 44.3093 34.8535 44.592 34.6647C44.8746 34.4758 45.2069 34.375 45.5469 34.375C46.0027 34.375 46.4399 34.5561 46.7622 34.8784C47.0845 35.2007 47.2656 35.6379 47.2656 36.0938Z" fill="url(#paint3_linear_194_2861)"/>
<path d="M50.7031 28.3594H40.3906C39.7069 28.3594 39.0511 28.631 38.5676 29.1145C38.0841 29.598 37.8125 30.2537 37.8125 30.9375V41.25C37.8125 41.9338 38.0841 42.5895 38.5676 43.073C39.0511 43.5565 39.7069 43.8281 40.3906 43.8281H50.7031C51.3869 43.8281 52.0426 43.5565 52.5261 43.073C53.0096 42.5895 53.2812 41.9338 53.2812 41.25V39.5312C53.2812 39.3033 53.1907 39.0847 53.0295 38.9236C52.8684 38.7624 52.6498 38.6719 52.4219 38.6719C52.194 38.6719 51.9754 38.7624 51.8142 38.9236C51.653 39.0847 51.5625 39.3033 51.5625 39.5312V41.25C51.5625 41.4779 51.472 41.6965 51.3108 41.8577C51.1496 42.0188 50.931 42.1094 50.7031 42.1094H40.3906C40.1627 42.1094 39.9441 42.0188 39.783 41.8577C39.6218 41.6965 39.5312 41.4779 39.5312 41.25V30.9375C39.5312 30.7096 39.6218 30.491 39.783 30.3298C39.9441 30.1687 40.1627 30.0781 40.3906 30.0781H50.7031C50.931 30.0781 51.1496 30.1687 51.3108 30.3298C51.472 30.491 51.5625 30.7096 51.5625 30.9375V36.0938C51.5625 36.3217 51.653 36.5403 51.8142 36.7014C51.9754 36.8626 52.194 36.9531 52.4219 36.9531C52.6498 36.9531 52.8684 36.8626 53.0295 36.7014C53.1907 36.5403 53.2812 36.3217 53.2812 36.0938V30.9375C53.2812 30.2537 53.0096 29.598 52.5261 29.1145C52.0426 28.631 51.3869 28.3594 50.7031 28.3594Z" fill="url(#paint4_linear_194_2861)"/>
<path d="M21.0289 11.9027C21.1657 11.9874 21.3235 12.0321 21.4844 12.0316C21.6189 12.0308 21.7514 11.9984 21.8711 11.937L27.0273 9.35892C27.1681 9.28681 27.2862 9.17724 27.3687 9.04229C27.4512 8.90734 27.4949 8.75224 27.4949 8.59408C27.4949 8.43591 27.4512 8.28082 27.3687 8.14587C27.2862 8.01092 27.1681 7.90135 27.0273 7.82924L21.8711 5.25111C21.7403 5.18519 21.5948 5.1538 21.4484 5.15993C21.302 5.16606 21.1597 5.20951 21.0348 5.28614C20.91 5.36277 20.8068 5.47005 20.7351 5.59778C20.6633 5.72551 20.6254 5.86946 20.625 6.01595V11.1722C20.6247 11.3183 20.6616 11.462 20.7323 11.5898C20.803 11.7176 20.9051 11.8253 21.0289 11.9027ZM22.3438 7.40814L24.7156 8.59408L22.3438 9.78002V7.40814Z" fill="url(#paint5_linear_194_2861)"/>
<path d="M23.2031 16.3281C24.7328 16.3281 26.2282 15.8745 27.5001 15.0247C28.772 14.1748 29.7634 12.9668 30.3488 11.5536C30.9342 10.1403 31.0873 8.58517 30.7889 7.08485C30.4905 5.58453 29.7538 4.2064 28.6722 3.12472C27.5905 2.04305 26.2124 1.30642 24.712 1.00799C23.2117 0.70956 21.6566 0.862726 20.2433 1.44812C18.83 2.03352 17.6221 3.02485 16.7722 4.29677C15.9224 5.56868 15.4688 7.06404 15.4688 8.59375C15.4688 10.645 16.2836 12.6123 17.7341 14.0628C19.1846 15.5133 21.1518 16.3281 23.2031 16.3281ZM23.2031 2.57813C24.3929 2.57813 25.556 2.93094 26.5452 3.59194C27.5345 4.25295 28.3055 5.19246 28.7608 6.29167C29.2161 7.39089 29.3353 8.60043 29.1032 9.76734C28.871 10.9343 28.2981 12.0061 27.4568 12.8474C26.6155 13.6887 25.5436 14.2617 24.3767 14.4938C23.2098 14.7259 22.0003 14.6068 20.901 14.1515C19.8018 13.6962 18.8623 12.9251 18.2013 11.9359C17.5403 10.9466 17.1875 9.78353 17.1875 8.59375C17.1875 6.99831 17.8213 5.46821 18.9494 4.34006C20.0776 3.21192 21.6077 2.57813 23.2031 2.57813Z" fill="url(#paint6_linear_194_2861)"/>
<path d="M31.7969 19.7656C31.9303 19.7656 32.0619 19.7346 32.1812 19.6749C32.3005 19.6152 32.4043 19.5286 32.4844 19.4219L35.0625 15.9844C35.1993 15.802 35.258 15.5728 35.2257 15.3472C35.1935 15.1216 35.073 14.918 34.8906 14.7813C34.7083 14.6445 34.4791 14.5858 34.2535 14.618C34.0278 14.6502 33.8243 14.7708 33.6875 14.9531L31.1094 18.3906C30.9726 18.573 30.9139 18.8022 30.9461 19.0278C30.9784 19.2534 31.0989 19.457 31.2813 19.5938C31.43 19.7053 31.6109 19.7656 31.7969 19.7656Z" fill="url(#paint7_linear_194_2861)"/>
<path d="M33.6875 22.8594C33.7676 22.9661 33.8714 23.0527 33.9907 23.1124C34.11 23.1721 34.2416 23.2031 34.375 23.2031C34.5609 23.2031 34.7419 23.1428 34.8906 23.0313L38.3281 20.4531C38.5105 20.3164 38.631 20.1128 38.6632 19.8872C38.6955 19.6615 38.6368 19.4323 38.5 19.25C38.3632 19.0677 38.1597 18.9471 37.934 18.9149C37.7084 18.8827 37.4792 18.9414 37.2969 19.0781L33.8594 21.6563C33.677 21.793 33.5565 21.9966 33.5243 22.2222C33.492 22.4478 33.5508 22.677 33.6875 22.8594Z" fill="url(#paint8_linear_194_2861)"/>
<path d="M42.1094 24.7497C42.089 24.6358 42.0457 24.5272 41.9823 24.4303C41.9188 24.3335 41.8365 24.2505 41.7402 24.1863C41.6439 24.1221 41.5356 24.078 41.4218 24.0567C41.3081 24.0354 41.1912 24.0373 41.0781 24.0622L36.7813 24.9216C36.6684 24.9329 36.5589 24.9663 36.4589 25.0199C36.359 25.0735 36.2706 25.1463 36.1988 25.2341C36.0537 25.4113 35.985 25.639 36.0078 25.8669C36.0306 26.0948 36.143 26.3044 36.3203 26.4494C36.4976 26.5945 36.7252 26.6631 36.9531 26.6403H37.125L41.4219 25.781C41.5358 25.7605 41.6445 25.7173 41.7413 25.6539C41.8381 25.5904 41.9211 25.5081 41.9853 25.4118C42.0495 25.3155 42.0936 25.2072 42.1149 25.0934C42.1362 24.9796 42.1344 24.8627 42.1094 24.7497Z" fill="url(#paint9_linear_194_2861)"/>
<path d="M2.57812 24.9219H12.8906C13.1185 24.9219 13.3371 24.8313 13.4983 24.6702C13.6595 24.509 13.75 24.2904 13.75 24.0625V10.3125C13.75 10.0846 13.6595 9.86599 13.4983 9.70483C13.3371 9.54367 13.1185 9.45312 12.8906 9.45312H2.57812C2.3502 9.45312 2.13162 9.54367 1.97046 9.70483C1.80929 9.86599 1.71875 10.0846 1.71875 10.3125V24.0625C1.71875 24.2904 1.80929 24.509 1.97046 24.6702C2.13162 24.8313 2.3502 24.9219 2.57812 24.9219ZM3.4375 11.1719H12.0312V23.2031H3.4375V11.1719Z" fill="url(#paint10_linear_194_2861)"/>
<path d="M9.45312 12.8906H7.73438C7.50645 12.8906 7.28787 12.9812 7.12671 13.1423C6.96554 13.3035 6.875 13.5221 6.875 13.75C6.875 13.9779 6.96554 14.1965 7.12671 14.3577C7.28787 14.5188 7.50645 14.6094 7.73438 14.6094H9.45312C9.68105 14.6094 9.89963 14.5188 10.0608 14.3577C10.222 14.1965 10.3125 13.9779 10.3125 13.75C10.3125 13.5221 10.222 13.3035 10.0608 13.1423C9.89963 12.9812 9.68105 12.8906 9.45312 12.8906Z" fill="url(#paint11_linear_194_2861)"/>
<path d="M9.45312 16.3281H6.01562C5.7877 16.3281 5.56912 16.4187 5.40796 16.5798C5.24679 16.741 5.15625 16.9596 5.15625 17.1875C5.15625 17.4154 5.24679 17.634 5.40796 17.7952C5.56912 17.9563 5.7877 18.0469 6.01562 18.0469H9.45312C9.68105 18.0469 9.89963 17.9563 10.0608 17.7952C10.222 17.634 10.3125 17.4154 10.3125 17.1875C10.3125 16.9596 10.222 16.741 10.0608 16.5798C9.89963 16.4187 9.68105 16.3281 9.45312 16.3281Z" fill="url(#paint12_linear_194_2861)"/>
<path d="M9.45312 19.7656H6.01562C5.7877 19.7656 5.56912 19.8562 5.40796 20.0173C5.24679 20.1785 5.15625 20.3971 5.15625 20.625C5.15625 20.8529 5.24679 21.0715 5.40796 21.2327C5.56912 21.3938 5.7877 21.4844 6.01562 21.4844H9.45312C9.68105 21.4844 9.89963 21.3938 10.0608 21.2327C10.222 21.0715 10.3125 20.8529 10.3125 20.625C10.3125 20.3971 10.222 20.1785 10.0608 20.0173C9.89963 19.8562 9.68105 19.7656 9.45312 19.7656Z" fill="url(#paint13_linear_194_2861)"/>
<path d="M31.0406 24.6637C30.9842 24.5655 30.909 24.4794 30.8193 24.4103C30.7296 24.3412 30.6271 24.2904 30.5178 24.2609C30.4085 24.2314 30.2944 24.2236 30.1821 24.2382C30.0698 24.2528 29.9615 24.2893 29.8633 24.3457C29.7651 24.4022 29.679 24.4774 29.6099 24.5671C29.5408 24.6568 29.49 24.7592 29.4605 24.8685C29.4309 24.9779 29.4232 25.0919 29.4378 25.2042C29.4523 25.3166 29.4889 25.4249 29.5453 25.5231L33.3352 32.0801L19.5852 37.2364C19.5852 37.2364 19.5851 37.2364 19.525 37.2364H19.4562L17.2219 38.5254L15.7351 39.3848C15.5394 39.4979 15.3233 39.5714 15.0991 39.6009C14.875 39.6304 14.6472 39.6153 14.4289 39.5567C13.9903 39.4382 13.6164 39.1508 13.3891 38.7574L11.6703 35.784C11.4681 35.395 11.4222 34.9434 11.542 34.5216C11.6618 34.0999 11.9383 33.7399 12.3148 33.5153L15.2883 31.7965L17.4367 35.5176C17.5124 35.6487 17.6214 35.7576 17.7527 35.833C17.884 35.9085 18.0329 35.9479 18.1844 35.9473C18.3355 35.9479 18.4841 35.9086 18.6153 35.8334C18.7464 35.7583 18.8553 35.6498 18.9312 35.5191C19.007 35.3883 19.047 35.2399 19.0472 35.0888C19.0473 34.9376 19.0076 34.7891 18.932 34.6582L16.7148 30.8254L27.5 21.9309L27.8523 22.541C27.9088 22.6392 27.984 22.7253 28.0737 22.7944C28.1634 22.8636 28.2658 22.9143 28.3752 22.9439C28.4845 22.9734 28.5986 22.9811 28.7109 22.9665C28.8232 22.952 28.9315 22.9154 29.0297 22.859C29.1279 22.8026 29.214 22.7274 29.2831 22.6377C29.3522 22.548 29.403 22.4455 29.4325 22.3362C29.462 22.2269 29.4697 22.1128 29.4552 22.0005C29.4406 21.8882 29.4041 21.7798 29.3477 21.6817L28.4883 20.1949C28.4253 20.0873 28.3396 19.9946 28.2372 19.9234C28.1348 19.8521 28.0182 19.8041 27.8953 19.7824C27.7718 19.7592 27.6447 19.7633 27.5229 19.7944C27.4012 19.8256 27.2877 19.8831 27.1906 19.9629L15.1594 29.8801L11.4984 31.9942C10.8414 32.3768 10.3299 32.9665 10.0438 33.6709C9.75763 34.3753 9.71312 35.1547 9.91718 35.8871L9.05781 36.377C8.61502 36.6313 8.2577 37.0113 8.03117 37.4689C7.80464 37.9265 7.71909 38.441 7.78536 38.9473C7.85164 39.4536 8.06676 39.9288 8.40345 40.3127C8.74014 40.6966 9.18324 40.9718 9.67656 41.1035C9.89525 41.1615 10.1206 41.1904 10.3469 41.1895C10.799 41.1876 11.2429 41.0692 11.6359 40.8457L12.4953 40.3559C12.9081 40.7823 13.4273 41.0909 13.9992 41.2496C14.2929 41.3318 14.5966 41.3723 14.9016 41.3699C15.5056 41.3713 16.099 41.2111 16.6203 40.9059L17.368 40.4762L19.0867 43.4582C19.4283 44.0488 19.99 44.4799 20.6488 44.6571C21.3076 44.8342 22.0098 44.7431 22.6016 44.4035C22.8951 44.2344 23.1525 44.009 23.3589 43.7404C23.5653 43.4717 23.7167 43.165 23.8045 42.8378C23.8923 42.5105 23.9147 42.1692 23.8705 41.8333C23.8263 41.4974 23.7163 41.1735 23.5469 40.8801L21.9828 38.1559L34.8734 33.3176C34.9903 33.2737 35.0963 33.2048 35.1838 33.1157C35.2714 33.0267 35.3385 32.9196 35.3805 32.802C35.4223 32.6857 35.4386 32.5619 35.4282 32.4388C35.4178 32.3157 35.381 32.1963 35.3203 32.0887L31.0406 24.6637ZM10.7422 39.3504C10.6443 39.407 10.5363 39.4437 10.4242 39.4585C10.3121 39.4732 10.1982 39.4657 10.0891 39.4364C9.86888 39.3792 9.68037 39.237 9.56484 39.041C9.50826 38.9432 9.47155 38.8351 9.4568 38.723C9.44206 38.611 9.44956 38.4971 9.4789 38.3879C9.50824 38.2782 9.55904 38.1753 9.62837 38.0854C9.6977 37.9954 9.78418 37.92 9.88281 37.8637L10.6305 37.434L11.4898 38.9207L10.7422 39.3504ZM22.0516 41.7567C22.1081 41.8545 22.1448 41.9626 22.1596 42.0747C22.1743 42.1867 22.1668 42.3006 22.1375 42.4098C22.0762 42.6282 21.931 42.8136 21.7336 42.9254C21.5373 43.0382 21.3044 43.0689 21.0856 43.011C20.8668 42.9531 20.6796 42.8111 20.5648 42.616L18.8461 39.634L20.2726 38.8176H20.3414L22.0516 41.7567Z" fill="url(#paint14_linear_194_2861)"/>
<defs>
<linearGradient id="paint0_linear_194_2861" x1="17.1875" y1="27.5" x2="17.1875" y2="53.2812" gradientUnits="userSpaceOnUse">
<stop stop-color="#FE4139"/>
<stop offset="1" stop-color="#FFBE36"/>
</linearGradient>
<linearGradient id="paint1_linear_194_2861" x1="45.5469" y1="5.15625" x2="45.5469" y2="13.75" gradientUnits="userSpaceOnUse">
<stop stop-color="#FE4139"/>
<stop offset="1" stop-color="#FFBE36"/>
</linearGradient>
<linearGradient id="paint2_linear_194_2861" x1="45.5469" y1="1.71875" x2="45.5469" y2="17.1875" gradientUnits="userSpaceOnUse">
<stop stop-color="#FE4139"/>
<stop offset="1" stop-color="#FFBE36"/>
</linearGradient>
<linearGradient id="paint3_linear_194_2861" x1="45.5469" y1="32.6562" x2="45.5469" y2="39.5313" gradientUnits="userSpaceOnUse">
<stop stop-color="#FE4139"/>
<stop offset="1" stop-color="#FFBE36"/>
</linearGradient>
<linearGradient id="paint4_linear_194_2861" x1="45.5469" y1="28.3594" x2="45.5469" y2="43.8281" gradientUnits="userSpaceOnUse">
<stop stop-color="#FE4139"/>
<stop offset="1" stop-color="#FFBE36"/>
</linearGradient>
<linearGradient id="paint5_linear_194_2861" x1="24.0599" y1="5.15918" x2="24.0599" y2="12.0316" gradientUnits="userSpaceOnUse">
<stop stop-color="#FE4139"/>
<stop offset="1" stop-color="#FFBE36"/>
</linearGradient>
<linearGradient id="paint6_linear_194_2861" x1="23.2031" y1="0.859375" x2="23.2031" y2="16.3281" gradientUnits="userSpaceOnUse">
<stop stop-color="#FE4139"/>
<stop offset="1" stop-color="#FFBE36"/>
</linearGradient>
<linearGradient id="paint7_linear_194_2861" x1="33.0859" y1="14.6094" x2="33.0859" y2="19.7656" gradientUnits="userSpaceOnUse">
<stop stop-color="#FE4139"/>
<stop offset="1" stop-color="#FFBE36"/>
</linearGradient>
<linearGradient id="paint8_linear_194_2861" x1="36.0938" y1="18.9062" x2="36.0938" y2="23.2031" gradientUnits="userSpaceOnUse">
<stop stop-color="#FE4139"/>
<stop offset="1" stop-color="#FFBE36"/>
</linearGradient>
<linearGradient id="paint9_linear_194_2861" x1="39.0666" y1="24.042" x2="39.0666" y2="26.6446" gradientUnits="userSpaceOnUse">
<stop stop-color="#FE4139"/>
<stop offset="1" stop-color="#FFBE36"/>
</linearGradient>
<linearGradient id="paint10_linear_194_2861" x1="7.73438" y1="9.45312" x2="7.73438" y2="24.9219" gradientUnits="userSpaceOnUse">
<stop stop-color="#FE4139"/>
<stop offset="1" stop-color="#FFBE36"/>
</linearGradient>
<linearGradient id="paint11_linear_194_2861" x1="8.59375" y1="12.8906" x2="8.59375" y2="14.6094" gradientUnits="userSpaceOnUse">
<stop stop-color="#FE4139"/>
<stop offset="1" stop-color="#FFBE36"/>
</linearGradient>
<linearGradient id="paint12_linear_194_2861" x1="7.73438" y1="16.3281" x2="7.73438" y2="18.0469" gradientUnits="userSpaceOnUse">
<stop stop-color="#FE4139"/>
<stop offset="1" stop-color="#FFBE36"/>
</linearGradient>
<linearGradient id="paint13_linear_194_2861" x1="7.73438" y1="19.7656" x2="7.73438" y2="21.4844" gradientUnits="userSpaceOnUse">
<stop stop-color="#FE4139"/>
<stop offset="1" stop-color="#FFBE36"/>
</linearGradient>
<linearGradient id="paint14_linear_194_2861" x1="21.5974" y1="19.7676" x2="21.5974" y2="44.7455" gradientUnits="userSpaceOnUse">
<stop stop-color="#FE4139"/>
<stop offset="1" stop-color="#FFBE36"/>
</linearGradient>
</defs>
</svg>
