<svg width="61" height="55" viewBox="0 0 61 55" fill="none" xmlns="http://www.w3.org/2000/svg">
<path d="M27.0259 19.9141H0.948276C0.37931 19.9141 0 19.44 0 18.9658V12.8969C0 10.2417 2.18103 7.96582 4.93103 7.96582H30.25C30.819 7.96582 31.1983 8.43996 31.1983 8.9141C31.1983 9.38823 30.7241 9.86237 30.25 9.86237H4.83621C3.22414 9.86237 1.89655 11.19 1.89655 12.802V17.9227H27.0259C27.5948 17.9227 27.9741 18.3969 27.9741 18.871C27.9741 19.3451 27.5948 19.9141 27.0259 19.9141Z" fill="url(#paint0_linear_194_2950)"/>
<path d="M4.83621 55.0004C3.50862 55.0004 2.27586 54.5263 1.42241 53.578C0.474138 52.6297 0 51.397 0 50.0694V18.8711C0 18.3022 0.474138 17.9229 0.948276 17.9229H27.0259C27.5948 17.9229 27.9741 18.397 27.9741 18.8711C27.9741 19.3453 27.5 19.8194 27.0259 19.8194H1.89655V49.9746C1.89655 50.7332 2.18103 51.4918 2.75 52.0608C3.31897 52.6297 4.07759 52.9142 4.83621 52.9142H49.3103C50.9224 52.9142 52.25 51.5867 52.25 49.9746V31.0091C52.25 30.4401 52.7241 30.0608 53.1983 30.0608C53.6724 30.0608 54.1466 30.5349 54.1466 31.0091V49.9746C54.1466 52.6298 51.9655 54.9056 49.2155 54.9056H4.83621V55.0004Z" fill="url(#paint1_linear_194_2950)"/>
<path d="M8.53448 14.8878H6.44828C5.87931 14.8878 5.5 14.4136 5.5 13.9395C5.5 13.4653 5.97414 12.9912 6.44828 12.9912H8.53448C9.10345 12.9912 9.48276 13.4653 9.48276 13.9395C9.48276 14.4136 9.10345 14.8878 8.53448 14.8878Z" fill="url(#paint2_linear_194_2950)"/>
<path d="M13.181 14.8878H11.0948C10.5259 14.8878 10.1465 14.4136 10.1465 13.9395C10.1465 13.4653 10.6207 12.9912 11.0948 12.9912H13.181C13.75 12.9912 14.1293 13.4653 14.1293 13.9395C14.1293 14.4136 13.75 14.8878 13.181 14.8878Z" fill="url(#paint3_linear_194_2950)"/>
<path d="M17.8276 14.8878H15.7414C15.1725 14.8878 14.7932 14.4136 14.7932 13.9395C14.7932 13.4653 15.2673 12.9912 15.7414 12.9912H17.8276C18.3966 12.9912 18.7759 13.4653 18.7759 13.9395C18.7759 14.4136 18.3966 14.8878 17.8276 14.8878Z" fill="url(#paint4_linear_194_2950)"/>
<path d="M23.3276 37.0776H9.48281C7.87074 37.0776 6.54315 35.75 6.54315 34.1379V25.8879C6.54315 24.2758 7.87074 22.9482 9.48281 22.9482H23.3276C24.9397 22.9482 26.2673 24.2758 26.2673 25.8879V34.1379C26.2673 35.75 24.9397 37.0776 23.3276 37.0776ZM23.3276 24.8448H9.48281C8.91384 24.8448 8.53453 25.3189 8.53453 25.7931V34.1379C8.53453 34.7069 9.00867 35.0862 9.48281 35.0862H23.3276C23.8966 35.0862 24.2759 34.612 24.2759 34.1379V25.8879C24.2759 25.3189 23.8018 24.8448 23.3276 24.8448Z" fill="url(#paint5_linear_194_2950)"/>
<path d="M33.2845 31.1983H32.2414C31.6725 31.1983 31.2932 30.7242 31.2932 30.25C31.2932 29.7759 31.7673 29.3018 32.2414 29.3018H33.2845C33.8535 29.3018 34.2328 29.7759 34.2328 30.25C34.2328 30.7242 33.7587 31.1983 33.2845 31.1983Z" fill="url(#paint6_linear_194_2950)"/>
<path d="M47.2242 37.4571H32.2414C31.6725 37.4571 31.2932 36.983 31.2932 36.5088C31.2932 36.0347 31.7673 35.5605 32.2414 35.5605H47.2242C47.7932 35.5605 48.1725 36.0347 48.1725 36.5088C48.1725 36.983 47.6983 37.4571 47.2242 37.4571Z" fill="url(#paint7_linear_194_2950)"/>
<path d="M47.2241 43.7159H7.01718C6.44822 43.7159 6.06891 43.2417 6.06891 42.7676C6.06891 42.2935 6.54305 41.8193 7.01718 41.8193H47.2241C47.793 41.8193 48.1724 42.2935 48.1724 42.7676C48.1724 43.2417 47.6982 43.7159 47.2241 43.7159Z" fill="url(#paint8_linear_194_2950)"/>
<path d="M47.2241 49.9737H7.01718C6.44822 49.9737 6.06891 49.4996 6.06891 49.0254C6.06891 48.5513 6.54305 48.0771 7.01718 48.0771H47.2241C47.793 48.0771 48.1724 48.5513 48.1724 49.0254C48.1724 49.4996 47.6982 49.9737 47.2241 49.9737Z" fill="url(#paint9_linear_194_2950)"/>
<path d="M45.8965 31.5776H44.3793C43.1465 31.5776 42.1034 30.6293 41.9138 29.4914L41.5345 27.1207C41.5345 26.931 41.3448 26.8362 41.25 26.7414C40.8707 26.6466 40.5862 26.4569 40.2069 26.3621C40.0172 26.2672 39.9224 26.2672 39.7328 26.3621L37.8362 27.7845C36.8879 28.4483 35.4655 28.3534 34.6121 27.5L33.4741 26.3621C32.6207 25.5086 32.5259 24.181 33.1896 23.1379L34.6121 21.2414C34.7069 21.0517 34.7069 20.8621 34.6121 20.7672C34.4224 20.4828 34.3276 20.1034 34.1379 19.7241C34.0431 19.5345 33.9483 19.4397 33.7586 19.4397L31.4828 19.0603C30.25 18.8707 29.3965 17.8276 29.3965 16.5948V14.9828C29.3965 13.75 30.25 12.7069 31.4828 12.5172L33.7586 12.1379C33.9483 12.1379 34.0431 11.9483 34.1379 11.8534C34.2328 11.4741 34.4224 11.1897 34.6121 10.8103C34.7069 10.6207 34.7069 10.431 34.6121 10.3362L33.1896 8.43966C32.431 7.49138 32.6207 6.16379 33.3793 5.21552L34.5172 4.07759C35.3707 3.22414 36.7931 3.12931 37.7414 3.88793L39.5431 5.31035C39.7328 5.5 39.9224 5.40517 40.0172 5.31035C40.3965 5.12069 40.681 5.02586 41.0603 4.83621C41.25 4.74138 41.3448 4.64655 41.4396 4.4569L41.819 2.08621C42.1034 0.948276 43.1465 0 44.3793 0H45.8965C47.1293 0 48.1724 0.948276 48.3621 2.08621L48.7414 4.4569C48.7414 4.64655 48.931 4.74138 49.0259 4.83621C49.4052 4.93104 49.6896 5.12069 50.069 5.21552C50.2586 5.31034 50.3534 5.31034 50.5431 5.21552L52.4396 3.7931C53.3879 3.03448 54.8103 3.22414 55.6638 4.07759L56.8017 5.21552C57.6552 6.06897 57.75 7.39655 57.0862 8.43966L55.6638 10.3362C55.569 10.5259 55.569 10.7155 55.6638 10.8103C55.8534 11.0948 55.9483 11.4741 56.1379 11.8534C56.2328 12.0431 56.3276 12.1379 56.5172 12.1379L58.7931 12.5172C60.0259 12.7069 60.8793 13.75 60.8793 14.9828V16.5948C60.8793 17.8276 60.0259 18.8707 58.7931 19.0603L56.5172 19.4397C56.3276 19.4397 56.2328 19.6293 56.1379 19.7241C56.0431 20.1034 55.8534 20.3879 55.7586 20.7672C55.6638 20.9569 55.6638 21.1466 55.7586 21.3362L57.181 23.2328C57.8448 24.181 57.75 25.5086 56.9914 26.4569L55.569 27.5C54.7155 28.3534 53.2931 28.4483 52.3448 27.6897L50.5431 26.2672C50.3534 26.0776 50.1638 26.1724 50.069 26.2672C49.6896 26.4569 49.4052 26.5517 49.0259 26.7414C48.8362 26.8362 48.7414 26.931 48.7414 27.1207L48.3621 29.4914C48.1724 30.6293 47.1293 31.5776 45.8965 31.5776ZM39.9224 24.2759C40.3017 24.2759 40.681 24.3707 40.9655 24.5603C41.25 24.6552 41.5345 24.8448 41.819 24.9397C42.6724 25.2241 43.2414 25.9828 43.431 26.8362L43.8103 29.2069C43.8103 29.4914 44.0948 29.681 44.2845 29.681H45.8017C46.0862 29.681 46.2759 29.4914 46.2759 29.3017L46.6552 26.931C46.75 26.0776 47.4138 25.319 48.2672 25.0345C48.5517 24.9397 48.8362 24.8448 49.1207 24.6552C49.8793 24.2759 50.9224 24.3707 51.681 24.9397L53.5776 26.3621C53.8621 26.5517 54.0517 26.4569 54.2414 26.2672L55.3793 25.1293C55.569 24.9397 55.569 24.6552 55.3793 24.4655L53.9569 22.569C53.3879 21.8103 53.2931 20.8621 53.6724 20.1034C53.7672 19.819 53.9569 19.5345 54.0517 19.25C54.3362 18.3966 55.0948 17.7328 55.9483 17.6379L58.2241 17.2586C58.5086 17.2586 58.6034 16.9741 58.6034 16.7845V15.1724C58.6034 14.8879 58.4138 14.6983 58.2241 14.6983L55.9483 14.319C55.0948 14.2241 54.3362 13.5603 54.0517 12.7069C53.9569 12.4224 53.8621 12.1379 53.6724 11.8534C53.2931 11 53.3879 10.0517 53.8621 9.2931L55.2845 7.39655C55.4741 7.2069 55.3793 6.92241 55.2845 6.73276L54.1465 5.59483C54.0517 5.5 53.8621 5.40517 53.7672 5.40517C53.6724 5.40517 53.5776 5.40517 53.4828 5.5L51.681 6.92241C51.0172 7.49138 49.9741 7.58621 49.1207 7.2069C48.8362 7.11207 48.5517 6.92241 48.2672 6.82759C47.4138 6.5431 46.8448 5.78448 46.6552 4.93103L46.2759 2.56034C46.2759 2.27586 45.9914 2.08621 45.8017 2.08621H44.2845C44 2.08621 43.8103 2.27586 43.8103 2.46552L43.5259 4.74138C43.431 5.59483 42.7672 6.35345 41.9138 6.63793C41.6293 6.73276 41.3448 6.82759 41.0603 7.01724C40.3017 7.39655 39.2586 7.30172 38.5 6.73276L36.6034 5.31035C36.319 5.02586 36.1293 5.21552 35.9397 5.40517L34.8017 6.5431C34.6121 6.73276 34.6121 7.01724 34.8017 7.2069L36.2241 9.10345C36.6983 9.86207 36.7931 10.8103 36.4138 11.569C36.319 11.8534 36.1293 12.1379 36.0345 12.4224C35.75 13.2759 34.9914 13.9397 34.1379 14.0345L31.8621 14.4138C31.5776 14.4138 31.4828 14.6983 31.4828 14.8879V16.5C31.4828 16.7845 31.6724 16.9741 31.8621 16.9741L34.1379 17.3534C34.9914 17.4483 35.75 18.1121 36.0345 18.9655C36.1293 19.25 36.2241 19.5345 36.4138 19.819C36.7931 20.6724 36.6983 21.6207 36.1293 22.3793L34.7069 24.2759C34.5172 24.4655 34.6121 24.75 34.7069 24.9397L35.8448 26.0776C36.0345 26.2672 36.2241 26.3621 36.5086 26.1724L38.4052 24.75C38.8793 24.4655 39.4483 24.2759 39.9224 24.2759Z" fill="url(#paint10_linear_194_2950)"/>
<path d="M45.1379 22.0946C41.6293 22.0946 38.7845 19.2498 38.7845 15.7411C38.7845 12.2325 41.6293 9.3877 45.1379 9.3877C48.6466 9.3877 51.4914 12.2325 51.4914 15.7411C51.4914 19.2498 48.6466 22.0946 45.1379 22.0946ZM45.1379 11.3791C42.6724 11.3791 40.7759 13.3705 40.7759 15.7411C40.7759 18.2067 42.7672 20.1032 45.1379 20.1032C47.5086 20.1032 49.5 18.1118 49.5 15.7411C49.5 13.3705 47.5086 11.3791 45.1379 11.3791Z" fill="url(#paint11_linear_194_2950)"/>
<defs>
<linearGradient id="paint0_linear_194_2950" x1="15.5991" y1="7.96582" x2="15.5991" y2="19.9141" gradientUnits="userSpaceOnUse">
<stop stop-color="#FE4139"/>
<stop offset="1" stop-color="#FFBE36"/>
</linearGradient>
<linearGradient id="paint1_linear_194_2950" x1="27.0733" y1="17.9229" x2="27.0733" y2="55.0004" gradientUnits="userSpaceOnUse">
<stop stop-color="#FE4139"/>
<stop offset="1" stop-color="#FFBE36"/>
</linearGradient>
<linearGradient id="paint2_linear_194_2950" x1="7.49138" y1="12.9912" x2="7.49138" y2="14.8878" gradientUnits="userSpaceOnUse">
<stop stop-color="#FE4139"/>
<stop offset="1" stop-color="#FFBE36"/>
</linearGradient>
<linearGradient id="paint3_linear_194_2950" x1="12.1379" y1="12.9912" x2="12.1379" y2="14.8878" gradientUnits="userSpaceOnUse">
<stop stop-color="#FE4139"/>
<stop offset="1" stop-color="#FFBE36"/>
</linearGradient>
<linearGradient id="paint4_linear_194_2950" x1="16.7845" y1="12.9912" x2="16.7845" y2="14.8878" gradientUnits="userSpaceOnUse">
<stop stop-color="#FE4139"/>
<stop offset="1" stop-color="#FFBE36"/>
</linearGradient>
<linearGradient id="paint5_linear_194_2950" x1="16.4052" y1="22.9482" x2="16.4052" y2="37.0776" gradientUnits="userSpaceOnUse">
<stop stop-color="#FE4139"/>
<stop offset="1" stop-color="#FFBE36"/>
</linearGradient>
<linearGradient id="paint6_linear_194_2950" x1="32.763" y1="29.3018" x2="32.763" y2="31.1983" gradientUnits="userSpaceOnUse">
<stop stop-color="#FE4139"/>
<stop offset="1" stop-color="#FFBE36"/>
</linearGradient>
<linearGradient id="paint7_linear_194_2950" x1="39.7328" y1="35.5605" x2="39.7328" y2="37.4571" gradientUnits="userSpaceOnUse">
<stop stop-color="#FE4139"/>
<stop offset="1" stop-color="#FFBE36"/>
</linearGradient>
<linearGradient id="paint8_linear_194_2950" x1="27.1206" y1="41.8193" x2="27.1206" y2="43.7159" gradientUnits="userSpaceOnUse">
<stop stop-color="#FE4139"/>
<stop offset="1" stop-color="#FFBE36"/>
</linearGradient>
<linearGradient id="paint9_linear_194_2950" x1="27.1206" y1="48.0771" x2="27.1206" y2="49.9737" gradientUnits="userSpaceOnUse">
<stop stop-color="#FE4139"/>
<stop offset="1" stop-color="#FFBE36"/>
</linearGradient>
<linearGradient id="paint10_linear_194_2950" x1="45.1379" y1="0" x2="45.1379" y2="31.5776" gradientUnits="userSpaceOnUse">
<stop stop-color="#FE4139"/>
<stop offset="1" stop-color="#FFBE36"/>
</linearGradient>
<linearGradient id="paint11_linear_194_2950" x1="45.1379" y1="9.3877" x2="45.1379" y2="22.0946" gradientUnits="userSpaceOnUse">
<stop stop-color="#FE4139"/>
<stop offset="1" stop-color="#FFBE36"/>
</linearGradient>
</defs>
</svg>
