<svg width="50" height="50" viewBox="0 0 50 50" fill="none" xmlns="http://www.w3.org/2000/svg">
<path d="M44.9973 34.228C45.0129 33.8299 44.9467 33.4329 44.8027 33.0614C44.6587 32.69 44.4401 32.352 44.1602 32.0685C43.2386 31.178 41.6401 30.7951 38.8172 30.8485C35.9114 30.9749 33.0238 31.3744 30.1928 32.0418C28.4132 32.4297 26.6587 32.9249 24.9388 33.5245C23.6031 33.9697 22.6814 34.2858 21.6084 34.2858H21.5683C21.2245 34.3044 20.8814 34.2368 20.5704 34.089C20.2593 33.9413 19.9901 33.7181 19.7873 33.4399C19.5936 33.1323 19.4781 32.782 19.4509 32.4196C19.4237 32.0571 19.4857 31.6935 19.6315 31.3606C20.3426 29.4199 20.6148 27.3458 20.4285 25.2874C20.1346 22.4155 18.7053 20.7636 16.5014 20.7458C16.157 20.7247 15.8121 20.7764 15.4891 20.8976C15.1661 21.0189 14.8723 21.2068 14.6269 21.4493C13.821 22.2864 13.8076 23.5598 13.8655 24.9C13.9145 26.12 12.5876 27.3622 11.7951 28.1058C10.0141 29.7888 8.64272 32.2466 8.3444 34.366C8.29988 34.6821 8.26871 34.9715 8.23754 35.2565C8.23134 35.7281 8.13302 36.1939 7.94813 36.6279C7.05957 37.429 6.1244 38.1768 5.14752 38.8675C5.05299 38.9373 4.97325 39.0253 4.91288 39.1261C4.8525 39.227 4.8127 39.3388 4.79577 39.4552C4.79577 39.5665 4.43512 42.189 7.0888 45.5595C8.99002 47.9772 11.706 49.0681 13.4559 49.0681H13.5182C13.7804 49.0925 14.0446 49.0544 14.2892 48.9568C14.5338 48.8593 14.7517 48.7052 14.9252 48.5071C15.3704 47.8882 17.0935 46.0182 17.7748 45.653C19.4979 44.7225 21.2344 43.8721 22.7972 43.1819C26.4928 43.1107 35.9276 43.0483 38.0648 43.5782C38.4229 43.668 38.7909 43.7128 39.1601 43.7118C40.7674 43.7118 42.4416 42.9059 42.9581 41.2673C43.135 40.7994 43.2114 40.2995 43.1822 39.8C43.1531 39.3006 43.019 38.8129 42.7889 38.3688C42.6192 38.0679 42.4028 37.7958 42.1477 37.5629C44.4407 36.797 44.9884 35.3812 44.9973 34.228ZM41.2617 40.733C40.95 41.717 39.5519 42.1133 38.4967 41.8506C36.7424 41.4054 31.3148 41.343 27.2764 41.3564L27.6949 41.2006C31.501 39.7546 35.4504 38.7187 39.4762 38.1105C40.3667 38.3688 40.9633 38.7517 41.226 39.2281C41.3344 39.4632 41.3934 39.7181 41.3995 39.9769C41.4057 40.2357 41.3587 40.493 41.2617 40.733ZM40.2999 36.196C33.1448 37.2913 29.3468 38.7072 27.076 39.5531L26.4037 39.7579C23.1513 40.9781 19.9857 42.4181 16.9288 44.068C15.8914 44.6245 14.1683 46.5925 13.6206 47.2693C12.8948 47.3717 10.3302 46.7884 8.48688 44.442C6.83501 42.3448 6.58122 40.7019 6.5545 40.0296C7.39157 39.4018 8.97666 38.1862 9.36403 37.6875C9.80927 37.0865 9.91168 36.3518 10.0185 35.4257C10.0453 35.1763 10.0764 34.9047 10.1165 34.6064C10.3614 32.8878 11.5279 30.7951 13.024 29.397C13.9724 28.5065 15.74 26.8502 15.6509 24.8154C15.6242 24.192 15.5752 23.0344 15.9181 22.6782C15.9582 22.6381 16.0739 22.5179 16.4836 22.5179C17.7258 22.5179 18.456 23.5153 18.6519 25.461C18.8214 27.2478 18.5918 29.05 17.9796 30.7372C17.7303 31.3388 17.6325 31.9923 17.6946 32.6405C17.7567 33.2887 17.9769 33.9117 18.3358 34.455C18.7005 34.9694 19.1861 35.3863 19.7498 35.6689C20.3134 35.9515 20.9379 36.0912 21.5683 36.0757C22.9575 36.0757 24.0305 35.724 25.5177 35.2253C27.1873 34.6401 28.8913 34.1583 30.6202 33.7827C33.3339 33.1397 36.1023 32.755 38.8885 32.634C41.0524 32.5939 42.406 32.8299 42.9224 33.3419C43.034 33.4595 43.1182 33.6003 43.169 33.7543C43.2198 33.9082 43.236 34.0715 43.2163 34.2324C43.2119 34.5886 43.203 35.7507 40.2999 36.196Z" fill="url(#paint0_linear_194_6639)"/>
<path d="M13.3143 16.1595C13.3811 16.1595 20.1801 17.1747 22.9851 19.9797C25.7902 22.7848 26.7965 29.5748 26.7965 29.6416C26.7965 29.8778 26.8903 30.1043 27.0573 30.2713C27.2243 30.4383 27.4508 30.5321 27.687 30.5321C27.9231 30.5321 28.1496 30.4383 28.3166 30.2713C28.4836 30.1043 28.5775 29.8778 28.5775 29.6416C28.5775 29.5748 29.5926 22.7759 32.3977 19.9708C35.2028 17.1658 41.9928 16.1595 42.0596 16.1595C42.2958 16.1595 42.5223 16.0657 42.6893 15.8987C42.8563 15.7317 42.9501 15.5052 42.9501 15.269C42.9501 15.0328 42.8563 14.8063 42.6893 14.6393C42.5223 14.4723 42.2958 14.3785 42.0596 14.3785C41.9928 14.3785 35.1939 13.3633 32.3888 10.5583C29.5837 7.75319 28.5775 0.963145 28.5775 0.896358C28.5775 0.660183 28.4836 0.433681 28.3166 0.26668C28.1496 0.0996794 27.9231 0.00585938 27.687 0.00585938C27.4508 0.00585938 27.2243 0.0996794 27.0573 0.26668C26.8903 0.433681 26.7965 0.660183 26.7965 0.896358C26.7965 0.963145 25.7813 7.7621 22.9762 10.5672C20.1712 13.3722 13.3811 14.3785 13.3143 14.3785C13.0782 14.3785 12.8516 14.4723 12.6846 14.6393C12.5176 14.8063 12.4238 15.0328 12.4238 15.269C12.4238 15.5052 12.5176 15.7317 12.6846 15.8987C12.8516 16.0657 13.0782 16.1595 13.3143 16.1595ZM24.2452 11.8361C25.9282 10.1531 27.0235 7.38364 27.687 5.10841C28.3504 7.39699 29.468 10.1531 31.1287 11.8361C32.7895 13.5192 35.5812 14.6145 37.8564 15.2779C35.5634 15.9413 32.8118 17.0589 31.1287 18.7197C29.4457 20.3805 28.3504 23.1499 27.687 25.4385C27.0235 23.1499 25.906 20.3938 24.2452 18.7108C22.5844 17.0277 19.7927 15.9324 17.5175 15.269C19.8105 14.6056 22.5621 13.5103 24.2452 11.8272V11.8361Z" fill="url(#paint1_linear_194_6639)"/>
<path d="M35.7012 8.14526C35.937 8.14426 36.1628 8.04979 36.329 7.88256L38.11 6.10156C38.2559 5.93121 38.3321 5.71208 38.3235 5.48796C38.3148 5.26385 38.2219 5.05125 38.0633 4.89266C37.9047 4.73406 37.6921 4.64116 37.468 4.6325C37.2439 4.62384 37.0248 4.70008 36.8544 4.84596L35.0734 6.62696C34.9496 6.75148 34.8654 6.90982 34.8314 7.08206C34.7973 7.25431 34.8149 7.43278 34.882 7.59504C34.9491 7.75729 35.0627 7.8961 35.2084 7.994C35.3542 8.0919 35.5256 8.14452 35.7012 8.14526Z" fill="url(#paint2_linear_194_6639)"/>
<path d="M35.0734 22.6554C34.9075 22.8223 34.8145 23.048 34.8145 23.2832C34.8145 23.5185 34.9075 23.7442 35.0734 23.911L36.8544 25.692C37.0248 25.8379 37.2439 25.9142 37.468 25.9055C37.6921 25.8968 37.9047 25.8039 38.0633 25.6453C38.2219 25.4867 38.3148 25.2741 38.3235 25.05C38.3321 24.8259 38.2559 24.6068 38.11 24.4364L36.329 22.6554C36.1622 22.4896 35.9365 22.3965 35.7012 22.3965C35.4659 22.3965 35.2402 22.4896 35.0734 22.6554Z" fill="url(#paint3_linear_194_6639)"/>
<path d="M19.044 7.88256C19.2143 8.02845 19.4334 8.10468 19.6576 8.09602C19.8817 8.08737 20.0943 7.99446 20.2529 7.83587C20.4115 7.67727 20.5044 7.46468 20.513 7.24056C20.5217 7.01644 20.4454 6.79731 20.2996 6.62696L18.5186 4.84596C18.3482 4.70008 18.1291 4.62384 17.905 4.6325C17.6808 4.64116 17.4682 4.73406 17.3096 4.89266C17.1511 5.05125 17.0581 5.26385 17.0495 5.48796C17.0408 5.71208 17.1171 5.93121 17.263 6.10157L19.044 7.88256Z" fill="url(#paint4_linear_194_6639)"/>
<defs>
<linearGradient id="paint0_linear_194_6639" x1="24.8894" y1="20.7412" x2="24.8894" y2="49.0753" gradientUnits="userSpaceOnUse">
<stop stop-color="#FE4139"/>
<stop offset="1" stop-color="#FFBE36"/>
</linearGradient>
<linearGradient id="paint1_linear_194_6639" x1="27.687" y1="0.00585937" x2="27.687" y2="30.5321" gradientUnits="userSpaceOnUse">
<stop stop-color="#FE4139"/>
<stop offset="1" stop-color="#FFBE36"/>
</linearGradient>
<linearGradient id="paint2_linear_194_6639" x1="36.5693" y1="4.63184" x2="36.5693" y2="8.14526" gradientUnits="userSpaceOnUse">
<stop stop-color="#FE4139"/>
<stop offset="1" stop-color="#FFBE36"/>
</linearGradient>
<linearGradient id="paint3_linear_194_6639" x1="36.5693" y1="22.3965" x2="36.5693" y2="25.9062" gradientUnits="userSpaceOnUse">
<stop stop-color="#FE4139"/>
<stop offset="1" stop-color="#FFBE36"/>
</linearGradient>
<linearGradient id="paint4_linear_194_6639" x1="18.7813" y1="4.63184" x2="18.7813" y2="8.09669" gradientUnits="userSpaceOnUse">
<stop stop-color="#FE4139"/>
<stop offset="1" stop-color="#FFBE36"/>
</linearGradient>
</defs>
</svg>
