<svg width="51" height="55" viewBox="0 0 51 55" fill="none" xmlns="http://www.w3.org/2000/svg">
<path d="M49.1489 0H0.877659C0.392957 0 0 0.392957 0 0.87766V14.9202C0 15.4049 0.392957 15.7979 0.877659 15.7979H49.1489C49.6336 15.7979 50.0266 15.4049 50.0266 14.9202V0.87766C50.0266 0.392957 49.6336 0 49.1489 0ZM1.75532 1.75532H34.2287V14.0426H1.75532V1.75532ZM48.2713 14.0426H35.984V1.75532H48.2713V14.0426Z" fill="url(#paint0_linear_194_2997)"/>
<path d="M14.9202 43.2973H30.2792C30.7639 43.2973 31.1569 42.9044 31.1569 42.4197C31.1569 41.9349 30.7639 41.542 30.2792 41.542H14.9202C14.4355 41.542 14.0425 41.9349 14.0425 42.4197C14.0425 42.9044 14.4355 43.2973 14.9202 43.2973Z" fill="url(#paint1_linear_194_2997)"/>
<path d="M45.6383 36.8613H14.9202C14.4355 36.8613 14.0425 37.2543 14.0425 37.739C14.0425 38.2237 14.4355 38.6166 14.9202 38.6166H45.6383C46.123 38.6166 46.5159 38.2237 46.5159 37.739C46.5159 37.2543 46.123 36.8613 45.6383 36.8613Z" fill="url(#paint2_linear_194_2997)"/>
<path d="M14.9202 29.2553H30.2792C30.7639 29.2553 31.1569 28.8624 31.1569 28.3777C31.1569 27.893 30.7639 27.5 30.2792 27.5H14.9202C14.4355 27.5 14.0425 27.893 14.0425 28.3777C14.0425 28.8624 14.4355 29.2553 14.9202 29.2553Z" fill="url(#paint3_linear_194_2997)"/>
<path d="M14.9202 24.5747H45.6383C46.123 24.5747 46.5159 24.1817 46.5159 23.697C46.5159 23.2123 46.123 22.8193 45.6383 22.8193H14.9202C14.4355 22.8193 14.0425 23.2123 14.0425 23.697C14.0425 24.1817 14.4355 24.5747 14.9202 24.5747Z" fill="url(#paint4_linear_194_2997)"/>
<path d="M49.1489 18.1387H0.877659C0.392957 18.1387 0 18.5316 0 19.0163V33.0589C0 33.5436 0.392957 33.9365 0.877659 33.9365H49.1489C49.6336 33.9365 50.0266 33.5436 50.0266 33.0589V19.0163C50.0266 18.5316 49.6336 18.1387 49.1489 18.1387ZM48.2713 32.1812H1.75532V19.894H48.2713V32.1812Z" fill="url(#paint5_linear_194_2997)"/>
<path d="M38.7894 9.63095C39.4666 10.3082 40.3668 10.6811 41.3245 10.6811C41.9823 10.6811 42.6129 10.5051 43.1629 10.1755L45.0177 12.0302C45.1891 12.2016 45.4137 12.2873 45.6383 12.2873C45.8629 12.2873 46.0875 12.2017 46.2589 12.0302C46.6016 11.6875 46.6016 11.1318 46.2589 10.7891L44.4041 8.93433C44.7337 8.38444 44.9097 7.7537 44.9097 7.09592C44.9097 6.13822 44.5368 5.23798 43.8596 4.56077C43.1825 3.88369 42.2821 3.51074 41.3245 3.51074C40.3668 3.51074 39.4666 3.88369 38.7894 4.56077C37.3916 5.95859 37.3916 8.23314 38.7894 9.63095ZM40.0306 5.80202C40.3763 5.45645 40.8357 5.26606 41.3245 5.26606C41.8133 5.26606 42.2729 5.45634 42.6184 5.80202C42.9641 6.1477 43.1544 6.60713 43.1544 7.09592C43.1544 7.58472 42.9641 8.04415 42.6184 8.38983C42.2728 8.73551 41.8133 8.92578 41.3245 8.92578C40.8357 8.92578 40.3762 8.73551 40.0306 8.38983C39.3172 7.67635 39.3172 6.5155 40.0306 5.80202Z" fill="url(#paint6_linear_194_2997)"/>
<path d="M11.4096 35.6914H4.38828C3.90358 35.6914 3.51062 36.0844 3.51062 36.5691V43.5903C3.51062 44.075 3.90358 44.468 4.38828 44.468H11.4096C11.8943 44.468 12.2872 44.075 12.2872 43.5903V36.5691C12.2872 36.0844 11.8943 35.6914 11.4096 35.6914ZM10.5319 42.7127H5.26594V37.4467H10.5319V42.7127Z" fill="url(#paint7_linear_194_2997)"/>
<path d="M30.2792 52.0742H14.9202C14.4355 52.0742 14.0425 52.4672 14.0425 52.9519C14.0425 53.4366 14.4355 53.8295 14.9202 53.8295H30.2792C30.7639 53.8295 31.1569 53.4366 31.1569 52.9519C31.1569 52.4672 30.7639 52.0742 30.2792 52.0742Z" fill="url(#paint8_linear_194_2997)"/>
<path d="M45.6383 47.3936H14.9202C14.4355 47.3936 14.0425 47.7865 14.0425 48.2712C14.0425 48.7559 14.4355 49.1489 14.9202 49.1489H45.6383C46.123 49.1489 46.5159 48.7559 46.5159 48.2712C46.5159 47.7865 46.123 47.3936 45.6383 47.3936Z" fill="url(#paint9_linear_194_2997)"/>
<path d="M11.4096 46.2236H4.38828C3.90358 46.2236 3.51062 46.6166 3.51062 47.1013V54.1226C3.51062 54.6073 3.90358 55.0002 4.38828 55.0002H11.4096C11.8943 55.0002 12.2872 54.6073 12.2872 54.1226V47.1013C12.2872 46.6166 11.8943 46.2236 11.4096 46.2236ZM10.5319 53.2449H5.26594V47.979H10.5319V53.2449Z" fill="url(#paint10_linear_194_2997)"/>
<path d="M4.38828 30.425H11.4096C11.8943 30.425 12.2872 30.0321 12.2872 29.5474V22.5261C12.2872 22.0414 11.8943 21.6484 11.4096 21.6484H4.38828C3.90358 21.6484 3.51062 22.0414 3.51062 22.5261V29.5474C3.51062 30.0321 3.90358 30.425 4.38828 30.425ZM5.26594 23.4038H10.5319V28.6697H5.26594V23.4038Z" fill="url(#paint11_linear_194_2997)"/>
<defs>
<linearGradient id="paint0_linear_194_2997" x1="25.0133" y1="0" x2="25.0133" y2="15.7979" gradientUnits="userSpaceOnUse">
<stop stop-color="#FE4139"/>
<stop offset="1" stop-color="#FFBE36"/>
</linearGradient>
<linearGradient id="paint1_linear_194_2997" x1="22.5997" y1="41.542" x2="22.5997" y2="43.2973" gradientUnits="userSpaceOnUse">
<stop stop-color="#FE4139"/>
<stop offset="1" stop-color="#FFBE36"/>
</linearGradient>
<linearGradient id="paint2_linear_194_2997" x1="30.2792" y1="36.8613" x2="30.2792" y2="38.6166" gradientUnits="userSpaceOnUse">
<stop stop-color="#FE4139"/>
<stop offset="1" stop-color="#FFBE36"/>
</linearGradient>
<linearGradient id="paint3_linear_194_2997" x1="22.5997" y1="27.5" x2="22.5997" y2="29.2553" gradientUnits="userSpaceOnUse">
<stop stop-color="#FE4139"/>
<stop offset="1" stop-color="#FFBE36"/>
</linearGradient>
<linearGradient id="paint4_linear_194_2997" x1="30.2792" y1="22.8193" x2="30.2792" y2="24.5747" gradientUnits="userSpaceOnUse">
<stop stop-color="#FE4139"/>
<stop offset="1" stop-color="#FFBE36"/>
</linearGradient>
<linearGradient id="paint5_linear_194_2997" x1="25.0133" y1="18.1387" x2="25.0133" y2="33.9365" gradientUnits="userSpaceOnUse">
<stop stop-color="#FE4139"/>
<stop offset="1" stop-color="#FFBE36"/>
</linearGradient>
<linearGradient id="paint6_linear_194_2997" x1="42.1285" y1="3.51074" x2="42.1285" y2="12.2873" gradientUnits="userSpaceOnUse">
<stop stop-color="#FE4139"/>
<stop offset="1" stop-color="#FFBE36"/>
</linearGradient>
<linearGradient id="paint7_linear_194_2997" x1="7.89892" y1="35.6914" x2="7.89892" y2="44.468" gradientUnits="userSpaceOnUse">
<stop stop-color="#FE4139"/>
<stop offset="1" stop-color="#FFBE36"/>
</linearGradient>
<linearGradient id="paint8_linear_194_2997" x1="22.5997" y1="52.0742" x2="22.5997" y2="53.8295" gradientUnits="userSpaceOnUse">
<stop stop-color="#FE4139"/>
<stop offset="1" stop-color="#FFBE36"/>
</linearGradient>
<linearGradient id="paint9_linear_194_2997" x1="30.2792" y1="47.3936" x2="30.2792" y2="49.1489" gradientUnits="userSpaceOnUse">
<stop stop-color="#FE4139"/>
<stop offset="1" stop-color="#FFBE36"/>
</linearGradient>
<linearGradient id="paint10_linear_194_2997" x1="7.89892" y1="46.2236" x2="7.89892" y2="55.0002" gradientUnits="userSpaceOnUse">
<stop stop-color="#FE4139"/>
<stop offset="1" stop-color="#FFBE36"/>
</linearGradient>
<linearGradient id="paint11_linear_194_2997" x1="7.89892" y1="21.6484" x2="7.89892" y2="30.425" gradientUnits="userSpaceOnUse">
<stop stop-color="#FE4139"/>
<stop offset="1" stop-color="#FFBE36"/>
</linearGradient>
</defs>
</svg>
