<svg width="42" height="43" viewBox="0 0 42 43" fill="none" xmlns="http://www.w3.org/2000/svg">
<g clip-path="url(#clip0_194_2769)">
<path d="M35.4375 1.53125H26.25C25.1646 1.53125 24.2812 2.41456 24.2812 3.5V4.8125C22.8336 4.8125 21.6562 5.98981 21.6562 7.4375C21.6562 8.88519 22.8336 10.0625 24.2812 10.0625V13.3438H29.5312V12.0312C29.5312 11.3074 30.1199 10.7188 30.8438 10.7188C31.5676 10.7188 32.1562 11.3074 32.1562 12.0312V13.3438H35.4375C36.5229 13.3438 37.4062 12.4604 37.4062 11.375V3.5C37.4062 2.41456 36.5229 1.53125 35.4375 1.53125ZM36.0938 11.375C36.0938 11.7366 35.7998 12.0312 35.4375 12.0312H33.4688C33.4688 10.5836 32.2914 9.40625 30.8438 9.40625C29.3961 9.40625 28.2188 10.5836 28.2188 12.0312H25.5938V8.75H24.2812C23.5574 8.75 22.9688 8.16134 22.9688 7.4375C22.9688 6.71366 23.5574 6.125 24.2812 6.125H25.5938V3.5C25.5938 3.13841 25.8878 2.84375 26.25 2.84375H35.4375C35.7998 2.84375 36.0938 3.13841 36.0938 3.5V11.375Z" fill="url(#paint0_linear_194_2769)"/>
<path d="M24.2812 14.6562C22.8336 14.6562 21.6562 15.8336 21.6562 17.2812H19.0312V14H17.7188C16.9949 14 16.4062 13.4113 16.4062 12.6875C16.4062 11.9637 16.9949 11.375 17.7188 11.375H19.0312V5.46875H17.2718C10.2815 5.46875 4.59375 11.1565 4.59375 18.1468C4.59375 21.9649 6.28884 25.5415 9.24394 27.9591L11.8125 30.0611V31.8402C11.0506 32.1118 10.5 32.8337 10.5 33.6882C10.5 34.5957 11.1202 35.3544 11.9569 35.5808C11.8657 35.8072 11.8125 36.0533 11.8125 36.3125C11.8125 37.1801 12.3802 37.9098 13.1604 38.1717C13.4321 40.4475 15.3713 42.2188 17.7188 42.2188C20.0662 42.2188 22.0054 40.4475 22.2771 38.1717C23.0573 37.9098 23.625 37.1801 23.625 36.3125C23.625 36.0533 23.5718 35.8072 23.4806 35.5801C24.3173 35.3531 24.9375 34.5951 24.9375 33.6875C24.9375 32.8331 24.3869 32.1112 23.625 31.8395V30.0604L26.1936 27.9584C29.1487 25.5415 30.8438 21.9649 30.8438 18.1468V17.2812H26.9062C26.9062 15.8336 25.7289 14.6562 24.2812 14.6562ZM17.2718 6.78125H17.7188V10.0625C16.2711 10.0625 15.0938 11.2398 15.0938 12.6875C15.0938 14.1352 16.2711 15.3125 17.7188 15.3125V17.2812H15.0938C15.0938 15.8336 13.9164 14.6562 12.4688 14.6562C11.0211 14.6562 9.84375 15.8336 9.84375 17.2812H5.93906C6.38269 11.417 11.296 6.78125 17.2718 6.78125ZM10.0747 26.9432C7.54097 24.8701 6.04078 21.8474 5.91544 18.5938H11.1562V17.2812C11.1562 16.5574 11.7449 15.9688 12.4688 15.9688C13.1926 15.9688 13.7812 16.5574 13.7812 17.2812V18.5938H17.7188V21.2188C16.2711 21.2188 15.0938 22.3961 15.0938 23.8438C15.0938 25.2914 16.2711 26.4688 17.7188 26.4688V31.7188H13.125V29.4389L10.0747 26.9432ZM17.7188 40.9062C16.1346 40.9062 14.8089 39.7768 14.5038 38.2812H20.9337C20.6286 39.7768 19.3029 40.9062 17.7188 40.9062ZM21.6562 36.9688H13.7812C13.419 36.9688 13.125 36.6741 13.125 36.3125C13.125 35.9509 13.419 35.6562 13.7812 35.6562H21.6562C22.0185 35.6562 22.3125 35.9509 22.3125 36.3125C22.3125 36.6741 22.0185 36.9688 21.6562 36.9688ZM22.9688 34.3438H21.6562H13.7812H12.4688C12.1065 34.3438 11.8125 34.0491 11.8125 33.6875C11.8125 33.3259 12.1065 33.0312 12.4688 33.0312H22.9688C23.331 33.0312 23.625 33.3259 23.625 33.6875C23.625 34.0491 23.331 34.3438 22.9688 34.3438ZM25.3627 26.9432L22.3125 29.4389V31.7188H19.0312V25.1562H17.7188C16.9949 25.1562 16.4062 24.5676 16.4062 23.8438C16.4062 23.1199 16.9949 22.5312 17.7188 22.5312H19.0312V18.5938H22.9688V17.2812C22.9688 16.5574 23.5574 15.9688 24.2812 15.9688C25.0051 15.9688 25.5938 16.5574 25.5938 17.2812V18.5938H29.5221C29.3967 21.8474 27.8965 24.8701 25.3627 26.9432Z" fill="url(#paint1_linear_194_2769)"/>
</g>
<defs>
<linearGradient id="paint0_linear_194_2769" x1="29.5312" y1="1.53125" x2="29.5312" y2="13.3438" gradientUnits="userSpaceOnUse">
<stop stop-color="#FE4139"/>
<stop offset="1" stop-color="#FFBE36"/>
</linearGradient>
<linearGradient id="paint1_linear_194_2769" x1="17.7188" y1="5.46875" x2="17.7188" y2="42.2188" gradientUnits="userSpaceOnUse">
<stop stop-color="#FE4139"/>
<stop offset="1" stop-color="#FFBE36"/>
</linearGradient>
<clipPath id="clip0_194_2769">
<rect width="42" height="42" fill="white" transform="translate(0 0.875)"/>
</clipPath>
</defs>
</svg>
