<svg width="42" height="43" viewBox="0 0 42 43" fill="none" xmlns="http://www.w3.org/2000/svg">
<g clip-path="url(#clip0_194_2793)">
<path d="M6.22146 14.5632H13.6971C13.6743 14.7234 13.6548 14.8846 13.6425 15.0479V15.048C13.6191 15.3599 13.7272 15.6697 13.939 15.898C14.1508 16.1263 14.4517 16.2573 14.7644 16.2573H27.2352C27.548 16.2573 27.849 16.1263 28.0608 15.8979C28.2726 15.6695 28.3806 15.3597 28.3572 15.0479C28.345 14.8846 28.3254 14.7234 28.3026 14.5632H35.7782C36.0751 14.5632 36.3608 14.4389 36.562 14.2221C36.7632 14.0052 36.8658 13.7111 36.8436 13.415C36.6516 10.8543 34.9774 8.7112 32.7066 7.80582C33.5841 7.0997 34.1473 6.01787 34.1473 4.80635C34.1474 2.68379 32.4208 0.957031 30.2983 0.957031C28.1758 0.957031 26.4491 2.68379 26.4491 4.80627C26.4491 6.01746 27.0119 7.09912 27.8892 7.80525C26.908 8.19506 26.0248 8.82022 25.3229 9.63684C24.7836 9.24432 24.1905 8.9235 23.5579 8.68708C24.6079 7.9045 25.2893 6.65353 25.2893 5.24628C25.2892 2.88116 23.3651 0.957031 21 0.957031C18.6348 0.957031 16.7107 2.88116 16.7107 5.24628C16.7107 6.65353 17.3921 7.9045 18.4421 8.68708C17.8095 8.9235 17.2164 9.2444 16.6771 9.63684C15.9751 8.82022 15.0921 8.19506 14.1108 7.80525C14.9881 7.09912 15.551 6.01746 15.551 4.80627C15.5509 2.68379 13.8241 0.957031 11.7016 0.957031C9.57917 0.957031 7.85249 2.68379 7.85249 4.80627C7.85249 6.0177 8.41564 7.09961 9.29321 7.80574C7.02225 8.71112 5.34816 10.8542 5.15612 13.4147C5.13389 13.7108 5.23643 14.005 5.43757 14.2218C5.63871 14.4388 5.92443 14.5632 6.22146 14.5632ZM27.7616 4.80627C27.7616 3.40755 28.8995 2.26953 30.2983 2.26953C31.6971 2.26953 32.835 3.40755 32.835 4.80627C32.835 6.20473 31.6975 7.34251 30.2991 7.343C30.2989 7.343 30.2986 7.343 30.2983 7.343C30.298 7.343 30.2976 7.343 30.2973 7.343C28.8989 7.34243 27.7616 6.20473 27.7616 4.80627ZM30.2973 8.6555H30.2983H30.2991C32.9426 8.65591 35.1815 10.6537 35.5088 13.2507H27.9906C27.6377 12.2094 27.058 11.2734 26.3126 10.4988C27.3085 9.33628 28.7612 8.65575 30.2973 8.6555ZM18.0232 5.24628C18.0232 3.60484 19.3585 2.26953 21 2.26953C22.6414 2.26953 23.9767 3.60484 23.9767 5.24628C23.9767 6.88764 22.6414 8.22295 21 8.22295C19.3585 8.22295 18.0232 6.88756 18.0232 5.24628ZM27.0301 14.9448H14.9699C15.3014 11.8953 17.9118 9.53545 21 9.53545C24.0881 9.53545 26.6984 11.8952 27.0301 14.9448ZM9.16499 4.80627C9.16499 3.40755 10.3029 2.26953 11.7017 2.26953C13.1005 2.26953 14.2385 3.40755 14.2385 4.80627C14.2385 6.20465 13.101 7.34243 11.7027 7.343C11.7024 7.343 11.7021 7.343 11.7017 7.343C11.7015 7.343 11.7012 7.343 11.7009 7.343C10.3024 7.34259 9.16499 6.20473 9.16499 4.80627ZM11.7009 8.6555H11.7017H11.7027C13.2388 8.65575 14.6916 9.33628 15.6875 10.4988C14.9422 11.2734 14.3625 12.2094 14.0095 13.2507H6.49135C6.81849 10.6537 9.05745 8.65591 11.7009 8.6555ZM41.3721 32.1862L38.547 18.0053C38.4753 17.6446 38.2666 17.3331 37.9596 17.1281C37.6527 16.9232 37.2851 16.8498 36.9242 16.9216L33.2889 17.6459C32.9283 17.7177 32.6167 17.9263 32.4117 18.2333C32.2067 18.5403 32.1334 18.908 32.2053 19.2686L32.2373 19.4292C30.0655 20.1466 27.427 20.3472 24.1455 17.64C22.6381 16.3964 20.6736 16.3557 19.257 17.5384L17.7906 18.7628H9.79967C9.70418 18.218 9.28533 17.7602 8.71119 17.6459L5.07581 16.9216C4.71521 16.8497 4.34738 16.9231 4.0405 17.1281C3.73354 17.3331 3.52485 17.6446 3.45307 18.0053L0.627834 32.1862C0.555975 32.5469 0.629311 32.9145 0.834307 33.2216C1.03922 33.5285 1.35078 33.7371 1.71139 33.809L5.34676 34.5332C5.43716 34.5513 5.52789 34.5602 5.61812 34.5602C5.88784 34.5602 6.15215 34.4805 6.38216 34.3269C6.68912 34.1219 6.89781 33.8104 6.96959 33.4497L6.98066 33.3942L15.5816 41.9951C16.1145 42.5279 16.8145 42.7944 17.5145 42.7943C18.2144 42.7943 18.9143 42.5278 19.4472 41.9951C19.8069 41.6354 20.0537 41.192 20.1696 40.7079L21.347 41.8851C22.4128 42.9508 24.1469 42.9506 25.2126 41.885C25.5804 41.5171 25.8214 41.0694 25.9353 40.5972C26.4442 41.0819 27.1106 41.348 27.8197 41.3479C28.5514 41.3479 29.2379 41.0644 29.7525 40.5497C30.3399 39.9623 30.6034 39.1719 30.5434 38.4022C30.6142 38.4077 30.6855 38.4104 30.7573 38.4104C31.4889 38.4104 32.1753 38.1269 32.6901 37.6121C33.4088 36.8935 33.6557 35.8211 33.3633 34.8671L34.989 33.2415L35.0304 33.4497C35.1022 33.8104 35.3109 34.1219 35.6179 34.3269C35.848 34.4805 36.1121 34.5602 36.3819 34.5602C36.4721 34.5602 36.5629 34.5513 36.6532 34.5332L40.2885 33.809C40.6492 33.7371 40.9607 33.5285 41.1657 33.2216C41.3706 32.9145 41.444 32.5469 41.3721 32.1862ZM5.6534 33.2353C5.64249 33.2425 5.62477 33.2503 5.60328 33.246L1.96798 32.5218C1.94632 32.5174 1.93312 32.5035 1.92581 32.4926C1.91851 32.4817 1.91072 32.4643 1.91507 32.4427L4.74014 18.2616C4.74449 18.24 4.75835 18.2269 4.76918 18.2196C4.77788 18.2138 4.791 18.2076 4.80692 18.2076C4.81085 18.2076 4.81504 18.208 4.81922 18.2089L8.45452 18.9331C8.48971 18.9401 8.5144 18.9772 8.50751 19.0122L5.68244 33.1933C5.67817 33.2148 5.66431 33.228 5.6534 33.2353ZM31.7619 36.6839C31.495 36.9507 31.1381 37.0977 30.757 37.0977C30.3759 37.0977 30.0191 36.9508 29.7524 36.684L23.5675 30.4992C23.3111 30.2428 22.8957 30.2429 22.6394 30.4992C22.3832 30.7555 22.3832 31.1709 22.6394 31.4272L28.8243 37.612C29.3783 38.166 29.3783 39.0675 28.8244 39.6215C28.5575 39.8882 28.2006 40.0352 27.8195 40.0352C27.4384 40.0352 27.0815 39.8882 26.8148 39.6216L20.2796 33.0863C20.0232 32.8299 19.6078 32.8301 19.3515 33.0863C19.0952 33.3426 19.0952 33.758 19.3515 34.0143L24.2844 38.9473L24.287 38.9498C24.8385 39.5039 24.8376 40.4035 24.2845 40.9567C23.7304 41.5106 22.8289 41.5107 22.275 40.9568L16.9918 35.6736C16.7355 35.4173 16.3201 35.4173 16.0637 35.6736C15.8074 35.9298 15.8074 36.3453 16.0637 36.6016L18.5193 39.0573C18.5195 39.0574 18.5197 39.0575 18.5198 39.0577C18.7863 39.3244 18.9331 39.681 18.9331 40.062C18.9331 40.4431 18.7861 40.7999 18.5193 41.0668C17.9654 41.6207 17.0639 41.6207 16.5099 41.0668L7.28902 31.8463L9.63396 20.0753H16.2184L14.3821 21.6085C13.5668 22.2891 13.2167 23.2178 13.4214 24.1563L14.9001 30.9322C14.9379 31.1052 15.044 31.2557 15.1943 31.3493C15.3447 31.443 15.5264 31.4719 15.6984 31.4295C17.4792 30.9906 18.6702 30.1319 19.3394 28.8043C19.9172 27.6579 20.0318 26.3553 20.1532 24.9763C20.1686 24.8014 20.184 24.6255 20.2006 24.4491C20.2018 24.4404 20.2031 24.4333 20.2044 24.4277C20.439 24.3469 21.5208 24.5821 23.1466 26.0595L32.049 35.0916C32.2893 35.6252 32.1772 36.2686 31.7619 36.6839ZM32.5966 33.7774L24.0689 25.1255C24.0606 25.1171 24.0523 25.109 24.0435 25.101C22.3342 23.5438 20.7225 22.8344 19.7323 23.2038C19.2629 23.379 18.9582 23.7787 18.8965 24.3007C18.8959 24.3059 18.8953 24.3111 18.8948 24.3163C18.8777 24.4987 18.8617 24.6806 18.8457 24.8613C18.6314 27.2969 18.4722 29.1077 16.0322 29.9639L14.7038 23.8766C14.571 23.2681 14.9722 22.8257 15.2232 22.6161L20.098 18.546C21.0146 17.7807 22.3054 17.8236 23.3101 18.6524C27.0112 21.7059 30.1113 21.4808 32.4953 20.7252L34.6804 31.6937L32.5966 33.7774ZM40.0741 32.4926C40.0668 32.5035 40.0536 32.5175 40.0319 32.5218L36.3966 33.246C36.375 33.2503 36.3574 33.2426 36.3465 33.2353C36.3356 33.228 36.3218 33.2148 36.3175 33.1932L33.4923 19.0121C33.488 18.9906 33.4958 18.9731 33.5031 18.9622C33.5104 18.9514 33.5236 18.9375 33.5453 18.9331L37.1805 18.2089C37.1849 18.208 37.1891 18.2076 37.1929 18.2076C37.2089 18.2076 37.222 18.2138 37.2307 18.2196C37.2416 18.2269 37.2554 18.2401 37.2597 18.2617L40.0848 32.4428C40.0892 32.4643 40.0814 32.4817 40.0741 32.4926Z" fill="url(#paint0_linear_194_2793)"/>
</g>
<defs>
<linearGradient id="paint0_linear_194_2793" x1="21" y1="0.957031" x2="21" y2="42.7943" gradientUnits="userSpaceOnUse">
<stop stop-color="#FE4139"/>
<stop offset="1" stop-color="#FFBE36"/>
</linearGradient>
<clipPath id="clip0_194_2793">
<rect width="42" height="42" fill="white" transform="translate(0 0.875)"/>
</clipPath>
</defs>
</svg>
