<svg width="55" height="55" viewBox="0 0 55 55" fill="none" xmlns="http://www.w3.org/2000/svg">
<g clip-path="url(#clip0_194_2844)">
<path d="M52.2492 11.9173H50.4159V11.0007H51.3326C52.0619 11.0007 52.7613 10.7109 53.2771 10.1952C53.7928 9.67951 54.0825 8.98004 54.0825 8.25071C54.0825 7.52138 53.7928 6.82191 53.2771 6.3062C52.7613 5.79048 52.0619 5.50075 51.3326 5.50075H50.4159V0.917488C50.4172 0.773974 50.3837 0.632278 50.3183 0.504555C50.2528 0.376831 50.1574 0.266892 50.0401 0.184166C49.9265 0.0981967 49.7944 0.0401296 49.6542 0.0146527C49.5141 -0.0108243 49.37 -0.00299735 49.2334 0.0375015L37.4453 3.66745H31.1662C30.9231 3.66745 30.6899 3.76402 30.518 3.93593C30.3461 4.10783 30.2495 4.34099 30.2495 4.5841V5.50075H28.4162C28.1731 5.50075 27.94 5.59733 27.7681 5.76923C27.5962 5.94114 27.4996 6.17429 27.4996 6.4174V10.084C27.4996 10.3271 27.5962 10.5603 27.7681 10.7322C27.94 10.9041 28.1731 11.0007 28.4162 11.0007H30.2495V11.9173H24.7496V3.66745C24.7496 3.42433 24.653 3.19118 24.4811 3.01928C24.3092 2.84737 24.0761 2.75079 23.833 2.75079H5.49992C5.2568 2.75079 5.02365 2.84737 4.85175 3.01928C4.67984 3.19118 4.58326 3.42433 4.58326 3.66745V11.9173H2.74996C2.02129 11.9195 1.32309 12.2099 0.807848 12.7252C0.292602 13.2404 0.00217622 13.9386 0 14.6673V44.0002C0.00217622 44.7288 0.292602 45.427 0.807848 45.9423C1.32309 46.4575 2.02129 46.7479 2.74996 46.7501H23.833V49.5001H18.3331C18.0899 49.5001 17.8568 49.5967 17.6849 49.7686C17.513 49.9405 17.4164 50.1736 17.4164 50.4167V54.0833C17.4164 54.3265 17.513 54.5596 17.6849 54.7315C17.8568 54.9034 18.0899 55 18.3331 55H36.6661C36.9092 55 37.1424 54.9034 37.3143 54.7315C37.4862 54.5596 37.5828 54.3265 37.5828 54.0833V50.4167C37.5828 50.1736 37.4862 49.9405 37.3143 49.7686C37.1424 49.5967 36.9092 49.5001 36.6661 49.5001H31.1662V46.7501H52.2492C52.9779 46.7479 53.6761 46.4575 54.1913 45.9423C54.7066 45.427 54.997 44.7288 54.9992 44.0002V14.6673C54.997 13.9386 54.7066 13.2404 54.1913 12.7252C53.6761 12.2099 52.9779 11.9195 52.2492 11.9173ZM50.4159 7.33406H51.3326C51.5757 7.33406 51.8088 7.43063 51.9807 7.60254C52.1526 7.77445 52.2492 8.0076 52.2492 8.25071C52.2492 8.49382 52.1526 8.72698 51.9807 8.89888C51.8088 9.07079 51.5757 9.16736 51.3326 9.16736H50.4159V7.33406ZM38.4994 5.26242L48.5826 2.15497V14.3465L38.4994 11.239V5.26242ZM32.0828 5.50075H36.6661V11.0007H32.0828V5.50075ZM34.6953 12.834L34.0353 17.4172H32.9995V12.834H34.6953ZM29.3329 9.16736V7.33406H30.2495V9.16736H29.3329ZM6.41657 4.5841H22.9163V17.4172H6.41657V4.5841ZM35.7495 51.3334V53.1667H19.2497V51.3334H35.7495ZM25.6663 49.5001V46.7501H29.3329V49.5001H25.6663ZM53.1659 44.0002C53.1659 44.2433 53.0693 44.4764 52.8974 44.6483C52.7255 44.8202 52.4923 44.9168 52.2492 44.9168H2.74996C2.50685 44.9168 2.27369 44.8202 2.10179 44.6483C1.92988 44.4764 1.83331 44.2433 1.83331 44.0002V43.0835H53.1659V44.0002ZM53.1659 41.2502H1.83331V14.6673C1.83331 14.4242 1.92988 14.191 2.10179 14.0191C2.27369 13.8472 2.50685 13.7506 2.74996 13.7506H4.58326V18.3339C4.58326 18.577 4.67984 18.8102 4.85175 18.9821C5.02365 19.154 5.2568 19.2505 5.49992 19.2505H23.833C24.0761 19.2505 24.3092 19.154 24.4811 18.9821C24.653 18.8102 24.7496 18.577 24.7496 18.3339V13.7506H31.1662V18.3339C31.1662 18.577 31.2628 18.8102 31.4347 18.9821C31.6066 19.154 31.8397 19.2505 32.0828 19.2505H34.8328C35.0537 19.2505 35.2671 19.1707 35.4338 19.0259C35.6005 18.8811 35.7094 18.6809 35.7403 18.4622L36.5469 12.834H37.4453L49.2334 16.4639C49.3195 16.4902 49.4093 16.5026 49.4992 16.5006C49.7413 16.497 49.9724 16.3993 50.1435 16.2282C50.3146 16.057 50.4123 15.8259 50.4159 15.5839V13.7506H52.2492C52.4923 13.7506 52.7255 13.8472 52.8974 14.0191C53.0693 14.191 53.1659 14.4242 53.1659 14.6673V41.2502Z" fill="url(#paint0_linear_194_2844)"/>
<path d="M4.58328 39.4167H28.4163C28.6594 39.4167 28.8925 39.3202 29.0644 39.1483C29.2363 38.9764 29.3329 38.7432 29.3329 38.5001V23.8336C29.3329 23.5905 29.2363 23.3574 29.0644 23.1855C28.8925 23.0136 28.6594 22.917 28.4163 22.917H4.58328C4.34017 22.917 4.10701 23.0136 3.93511 23.1855C3.7632 23.3574 3.66663 23.5905 3.66663 23.8336V38.5001C3.66663 38.7432 3.7632 38.9764 3.93511 39.1483C4.10701 39.3202 4.34017 39.4167 4.58328 39.4167ZM5.49993 37.5834V25.4735L16.0194 31.9479C16.1639 32.0367 16.3302 32.0838 16.4998 32.0838C16.6694 32.0838 16.8356 32.0367 16.9801 31.9479L27.4996 25.4735V37.5834H5.49993ZM7.82181 24.7503H25.1777L16.4998 30.0907L7.82181 24.7503Z" fill="url(#paint1_linear_194_2844)"/>
<path d="M32.0829 33.9171H33.9162V36.6671C33.9162 36.9102 34.0127 37.1433 34.1846 37.3153C34.3565 37.4872 34.5897 37.5837 34.8328 37.5837H50.4159C50.659 37.5837 50.8922 37.4872 51.0641 37.3153C51.236 37.1433 51.3326 36.9102 51.3326 36.6671V25.6672C51.3326 25.4241 51.236 25.191 51.0641 25.0191C50.8922 24.8472 50.659 24.7506 50.4159 24.7506H49.4993V22.0006C49.4993 21.7575 49.4027 21.5244 49.2308 21.3525C49.0589 21.1806 48.8257 21.084 48.5826 21.084H32.0829C31.8397 21.084 31.6066 21.1806 31.4347 21.3525C31.2628 21.5244 31.1662 21.7575 31.1662 22.0006V33.0005C31.1662 33.2436 31.2628 33.4767 31.4347 33.6486C31.6066 33.8205 31.8397 33.9171 32.0829 33.9171ZM49.4993 35.7504H35.7495V26.5839H49.4993V35.7504ZM32.9995 22.9173H47.6659V24.7506H34.8328C34.5897 24.7506 34.3565 24.8472 34.1846 25.0191C34.0127 25.191 33.9162 25.4241 33.9162 25.6672V32.0838H32.9995V22.9173Z" fill="url(#paint2_linear_194_2844)"/>
<path d="M37.5828 28.417H39.4161V30.2503H37.5828V28.417Z" fill="url(#paint3_linear_194_2844)"/>
<path d="M41.2494 28.417H47.666V30.2503H41.2494V28.417Z" fill="url(#paint4_linear_194_2844)"/>
<path d="M37.5828 32.084H41.2494V33.9173H37.5828V32.084Z" fill="url(#paint5_linear_194_2844)"/>
<path d="M43.0827 32.084H47.6659V33.9173H43.0827V32.084Z" fill="url(#paint6_linear_194_2844)"/>
<path d="M12.351 14.5311C12.4839 14.6132 12.6356 14.6601 12.7917 14.6671C12.9478 14.6742 13.1031 14.6412 13.2429 14.5714L18.7428 11.8214C18.8953 11.7454 19.0236 11.6284 19.1133 11.4834C19.203 11.3385 19.2506 11.1715 19.2506 11.001C19.2506 10.8306 19.203 10.6635 19.1133 10.5186C19.0236 10.3737 18.8953 10.2566 18.7428 10.1806L13.2429 7.43066C13.1031 7.36081 12.9478 7.32785 12.7917 7.33492C12.6355 7.34199 12.4838 7.38885 12.3509 7.47106C12.218 7.55326 12.1084 7.66807 12.0323 7.80459C11.9563 7.94111 11.9164 8.0948 11.9165 8.25106V13.751C11.9164 13.9073 11.9563 14.061 12.0323 14.1975C12.1084 14.334 12.2181 14.4488 12.351 14.5311ZM13.7498 9.73421L16.2834 11.001L13.7498 12.2678V9.73421Z" fill="url(#paint7_linear_194_2844)"/>
</g>
<defs>
<linearGradient id="paint0_linear_194_2844" x1="27.4996" y1="0" x2="27.4996" y2="55" gradientUnits="userSpaceOnUse">
<stop stop-color="#FE4139"/>
<stop offset="1" stop-color="#FFBE36"/>
</linearGradient>
<linearGradient id="paint1_linear_194_2844" x1="16.4998" y1="22.917" x2="16.4998" y2="39.4167" gradientUnits="userSpaceOnUse">
<stop stop-color="#FE4139"/>
<stop offset="1" stop-color="#FFBE36"/>
</linearGradient>
<linearGradient id="paint2_linear_194_2844" x1="41.2494" y1="21.084" x2="41.2494" y2="37.5837" gradientUnits="userSpaceOnUse">
<stop stop-color="#FE4139"/>
<stop offset="1" stop-color="#FFBE36"/>
</linearGradient>
<linearGradient id="paint3_linear_194_2844" x1="38.4994" y1="28.417" x2="38.4994" y2="30.2503" gradientUnits="userSpaceOnUse">
<stop stop-color="#FE4139"/>
<stop offset="1" stop-color="#FFBE36"/>
</linearGradient>
<linearGradient id="paint4_linear_194_2844" x1="44.4577" y1="28.417" x2="44.4577" y2="30.2503" gradientUnits="userSpaceOnUse">
<stop stop-color="#FE4139"/>
<stop offset="1" stop-color="#FFBE36"/>
</linearGradient>
<linearGradient id="paint5_linear_194_2844" x1="39.4161" y1="32.084" x2="39.4161" y2="33.9173" gradientUnits="userSpaceOnUse">
<stop stop-color="#FE4139"/>
<stop offset="1" stop-color="#FFBE36"/>
</linearGradient>
<linearGradient id="paint6_linear_194_2844" x1="45.3743" y1="32.084" x2="45.3743" y2="33.9173" gradientUnits="userSpaceOnUse">
<stop stop-color="#FE4139"/>
<stop offset="1" stop-color="#FFBE36"/>
</linearGradient>
<linearGradient id="paint7_linear_194_2844" x1="15.5835" y1="7.33398" x2="15.5835" y2="14.6681" gradientUnits="userSpaceOnUse">
<stop stop-color="#FE4139"/>
<stop offset="1" stop-color="#FFBE36"/>
</linearGradient>
<clipPath id="clip0_194_2844">
<rect width="55" height="55" fill="white"/>
</clipPath>
</defs>
</svg>
