<svg width="52" height="52" viewBox="0 0 52 52" fill="none" xmlns="http://www.w3.org/2000/svg">
<g clip-path="url(#clip0_226_9472)">
<path d="M9.58205 11.5955L11.0371 14.6033L14.3379 15.0525C14.9922 15.1404 15.2266 15.9509 14.7774 16.3806L12.3653 18.6951L12.961 21.9763C13.0781 22.6209 12.3946 23.1091 11.8281 22.7966L8.88869 21.2146L5.94924 22.7966C5.38283 23.0994 4.66994 22.6306 4.82619 21.9275L5.41213 18.6853L3.00002 16.3709C2.53127 15.9216 2.78518 15.1209 3.44924 15.033L6.74026 14.5837L8.19533 11.5759C8.46877 10.9998 9.30862 11.0095 9.58205 11.5955ZM9.81643 15.658L8.88869 13.7244L7.95119 15.658C7.84377 15.8826 7.61916 16.0584 7.35549 16.0974L5.23635 16.3806L6.78908 17.865C6.96486 18.0408 7.06252 18.2947 7.01369 18.5584L6.63283 20.6677L8.50783 19.6619C8.73244 19.5447 9.01565 19.5252 9.25002 19.6619L11.1348 20.6775L10.7637 18.6072C10.7051 18.3533 10.7735 18.0701 10.9785 17.865L12.5313 16.3806L10.4317 16.0974C10.1778 16.0681 9.93362 15.9021 9.81643 15.658ZM26.2031 4.51539L27.6582 7.5232L30.9688 7.97242C31.6231 8.06031 31.8574 8.87086 31.4082 9.31031L28.9961 11.6248L29.5918 14.906C29.709 15.5505 29.0254 16.0388 28.459 15.7263L25.5 14.1443L22.5606 15.7263C21.9942 16.0291 21.2813 15.5603 21.4375 14.8572L22.0235 11.615L19.6016 9.30054C19.1328 8.85133 19.3867 8.05054 20.0508 7.96265L23.3418 7.51344L24.7969 4.51539C25.0899 3.91969 25.9199 3.92945 26.2031 4.51539ZM26.4375 8.57789L25.5 6.64429L24.5723 8.57789C24.4649 8.8025 24.2403 8.97828 23.9766 9.01734L21.8477 9.30054L23.4004 10.7849C23.586 10.9607 23.6738 11.2146 23.625 11.4783L23.2442 13.5877L25.1289 12.5818C25.3535 12.4646 25.627 12.4451 25.8711 12.5818L27.7559 13.5974L27.3848 11.5271C27.3262 11.2732 27.3946 10.99 27.5996 10.7849L29.1524 9.30054L27.0528 9.00758C26.7891 8.98804 26.5547 8.82203 26.4375 8.57789ZM42.8145 11.5955L44.2696 14.6033L47.5703 15.0525C48.2246 15.1404 48.4688 15.9509 48.0098 16.3806L45.5977 18.6951L46.1934 21.9763C46.3106 22.6209 45.627 23.1091 45.0606 22.7966L42.1211 21.2146L39.1817 22.7966C38.6153 23.0994 37.9024 22.6306 38.0489 21.9275L38.6348 18.6853L36.2227 16.3709C35.7539 15.9216 36.0078 15.1209 36.6719 15.033L39.9629 14.5837L41.418 11.5759C41.7012 10.9998 42.541 11.0095 42.8145 11.5955ZM43.0489 15.658L42.1211 13.7244L41.1836 15.658C41.0762 15.8826 40.8614 16.0584 40.5879 16.0974L38.4688 16.3806L40.0117 17.865C40.1875 18.0408 40.2852 18.2947 40.2364 18.5584L39.8555 20.6677L41.7403 19.6619C41.9649 19.5447 42.2481 19.5252 42.4824 19.6619L44.377 20.6775L44.0059 18.6072C43.9473 18.3533 44.0156 18.0701 44.2207 17.865L45.7637 16.3806L43.6641 16.0974C43.4102 16.0681 43.166 15.9021 43.0489 15.658ZM21.877 31.5369C21.6621 31.1658 21.7891 30.6873 22.1602 30.4724C22.5313 30.2576 23.0098 30.3845 23.2246 30.7556L24.25 32.533L27.8926 28.8904C28.1953 28.5877 28.6934 28.5877 28.9961 28.8904C29.2988 29.1931 29.2988 29.6912 28.9961 29.9939L24.6309 34.3591C24.2696 34.7205 23.6641 34.6423 23.4102 34.2029L21.877 31.5369ZM25.5 23.2849C29.7481 23.2849 33.1953 26.7322 33.1953 30.9802C33.1953 35.2283 29.7481 38.6755 25.5 38.6755C21.252 38.6755 17.8047 35.2283 17.8047 30.9802C17.8047 26.7322 21.252 23.2849 25.5 23.2849ZM29.836 26.6443C27.4434 24.2517 23.5567 24.2517 21.1641 26.6443C18.7715 29.0369 18.7715 32.9236 21.1641 35.3162C23.5567 37.7087 27.4434 37.7087 29.836 35.3162C32.2285 32.9138 32.2285 29.0369 29.836 26.6443ZM25.5 18.4509C32.4141 18.4509 38.0196 24.0564 38.0196 30.9705C38.0196 33.5877 37.2188 36.0193 35.8418 38.031L39.5821 44.5056C39.9434 45.1111 39.4453 45.7947 38.8008 45.697L34.9727 45.0916L32.9219 47.6111C32.5606 48.0798 31.8867 48.0017 31.6231 47.533L29.0059 43.0017C26.7207 43.6658 24.2696 43.6658 21.9942 43.0017L19.377 47.533C19.1133 48.0017 18.4395 48.0798 18.0781 47.6111L16.0274 45.0916L12.1992 45.697C11.5449 45.8045 11.086 45.0916 11.3985 44.5349L15.1582 38.031C11.7598 33.0603 12.3946 26.3709 16.6524 22.113C18.9082 19.8572 22.043 18.4509 25.5 18.4509ZM34.8067 39.3494C33.6153 40.6775 32.1504 41.742 30.4903 42.4646L32.4043 45.7752L34.0449 43.7634C34.2305 43.5291 34.5137 43.4412 34.7871 43.49L37.4239 43.9099L34.8067 39.3494ZM20.5 42.4646C18.8496 41.742 17.3848 40.6775 16.1934 39.3591L13.5664 43.9099L16.2031 43.49C16.4668 43.4412 16.7598 43.5388 16.9453 43.7634L18.586 45.7752L20.5 42.4646ZM33.2539 23.2263C28.9766 18.949 22.0332 18.949 17.7559 23.2263C13.4785 27.5037 13.4785 34.447 17.7559 38.7244C22.043 43.0017 28.9766 43.0017 33.2539 38.7244C37.5313 34.447 37.5313 27.5037 33.2539 23.2263Z" fill="url(#paint0_linear_226_9472)"/>
</g>
<defs>
<linearGradient id="paint0_linear_226_9472" x1="25.503" y1="4.07227" x2="25.503" y2="47.926" gradientUnits="userSpaceOnUse">
<stop stop-color="#FE4139"/>
<stop offset="1" stop-color="#FFBE36"/>
</linearGradient>
<clipPath id="clip0_226_9472">
<rect width="51" height="52" fill="white" transform="translate(0.5)"/>
</clipPath>
</defs>
</svg>
