<svg width="42" height="43" viewBox="0 0 42 43" fill="none" xmlns="http://www.w3.org/2000/svg">
<path d="M36.75 23.7783V22.4658C37.1122 22.4658 37.4063 22.1721 37.4063 21.8096V17.8721C37.4063 17.5096 37.1122 17.2158 36.75 17.2158H33.2063L33.0791 16.7229C32.7889 15.5954 32.3383 14.5155 31.7402 13.5165L31.4777 13.0773L33.9938 10.5569C34.247 10.3032 34.247 9.89197 33.9938 9.63819L31.2067 6.84707C30.9494 6.60175 30.5451 6.60175 30.2877 6.84707L27.7671 9.36774L27.3282 9.10524C26.3277 8.50692 25.2467 8.05626 24.1177 7.76582L23.625 7.63765V4.09082C23.625 3.72835 23.3312 3.43457 22.9688 3.43457H19.0313C18.6688 3.43457 18.375 3.72835 18.375 4.09082V7.63457L17.882 7.76198C16.7546 8.05191 15.6746 8.50256 14.6751 9.09985L14.236 9.36261L11.7161 6.84707C11.4585 6.5997 11.0517 6.5997 10.794 6.84707L8.00625 9.63408C7.88372 9.75636 7.81476 9.92247 7.81476 10.0955C7.81476 10.2688 7.88372 10.4347 8.00625 10.5569L10.5269 13.0773L10.2644 13.5165C9.66662 14.5155 9.2157 15.5954 8.92577 16.7229L8.79708 17.2158H5.25C4.88752 17.2158 4.59375 17.5096 4.59375 17.8721V21.8096C4.59375 22.1721 4.88752 22.4658 5.25 22.4658V23.7783C4.16283 23.7783 3.28125 22.8967 3.28125 21.8096V17.8721C3.28125 16.7849 4.16283 15.9033 5.25 15.9033H7.78912C8.05983 14.9959 8.42589 14.1197 8.88117 13.2896L7.07648 11.4849C6.70734 11.1165 6.49995 10.6167 6.49995 10.0955C6.49995 9.57435 6.70734 9.07448 7.07648 8.70636L9.86554 5.9173C10.6425 5.17363 11.8676 5.17363 12.6446 5.9173L14.4488 7.72122C15.2788 7.2662 16.1553 6.9009 17.0625 6.63046V4.09082C17.0625 3.00365 17.9441 2.12207 19.0313 2.12207H22.9688C24.0559 2.12207 24.9375 3.00365 24.9375 4.09082V6.63046C25.845 6.9009 26.7209 7.26697 27.5512 7.72199L29.3559 5.9173C30.1332 5.17363 31.358 5.17363 32.1352 5.9173L34.9238 8.70559C35.2927 9.07396 35.4998 9.57333 35.4998 10.0947C35.4998 10.6162 35.2927 11.116 34.9238 11.4841L33.1191 13.2888C33.5741 14.1194 33.9399 14.9959 34.2109 15.9033H36.75C37.8372 15.9033 38.7188 16.7849 38.7188 17.8721V21.8096C38.7188 22.8967 37.8372 23.7783 36.75 23.7783Z" fill="url(#paint0_linear_194_2779)"/>
<path d="M30.1875 19.8408H28.875C28.875 15.4916 25.3492 11.9658 21 11.9658C16.6508 11.9658 13.125 15.4916 13.125 19.8408H11.8125C11.8125 14.7667 15.9259 10.6533 21 10.6533C26.0739 10.6533 30.1875 14.7667 30.1875 19.8408Z" fill="url(#paint1_linear_194_2779)"/>
<path d="M21 25.0908C18.8254 25.0908 17.0625 23.3277 17.0625 21.1533C17.0625 18.9787 18.8254 17.2158 21 17.2158C23.1749 17.2158 24.9375 18.9787 24.9375 21.1533C24.9352 23.3271 23.1738 25.0885 21 25.0908ZM21 18.5283C19.5504 18.5283 18.375 19.7037 18.375 21.1533C18.375 22.603 19.5504 23.7783 21 23.7783C22.4496 23.7783 23.625 22.603 23.625 21.1533C23.625 19.7037 22.4496 18.5283 21 18.5283Z" fill="url(#paint2_linear_194_2779)"/>
<path d="M32.1563 27.7158C29.9817 27.7158 28.2188 25.9527 28.2188 23.7783C28.2188 21.6037 29.9817 19.8408 32.1563 19.8408C34.3308 19.8408 36.0938 21.6037 36.0938 23.7783C36.0914 25.9521 34.3301 27.7135 32.1563 27.7158ZM32.1563 21.1533C30.7066 21.1533 29.5313 22.3287 29.5313 23.7783C29.5313 25.228 30.7066 26.4033 32.1563 26.4033C33.6059 26.4033 34.7813 25.228 34.7813 23.7783C34.7813 22.3287 33.6059 21.1533 32.1563 21.1533Z" fill="url(#paint3_linear_194_2779)"/>
<path d="M9.84375 27.7158C7.66915 27.7158 5.90625 25.9527 5.90625 23.7783C5.90625 21.6037 7.66915 19.8408 9.84375 19.8408C12.0186 19.8408 13.7813 21.6037 13.7813 23.7783C13.7789 25.9521 12.0176 27.7135 9.84375 27.7158ZM9.84375 21.1533C8.3941 21.1533 7.21875 22.3287 7.21875 23.7783C7.21875 25.228 8.3941 26.4033 9.84375 26.4033C11.2934 26.4033 12.4688 25.228 12.4688 23.7783C12.4688 22.3287 11.2934 21.1533 9.84375 21.1533Z" fill="url(#paint4_linear_194_2779)"/>
<path d="M38.1056 29.3995C37.1276 28.7274 35.9681 28.3688 34.7813 28.3721H29.5313C29.2121 28.3749 28.8935 28.4039 28.5789 28.4585C28.159 27.8017 27.6127 27.2352 26.9719 26.791C26.8757 26.7184 26.7747 26.6525 26.6694 26.5943C25.7514 26.0383 24.6981 25.7456 23.625 25.7471H18.375C16.3681 25.7399 14.498 26.764 13.4229 28.4585C13.1076 28.4039 12.7884 28.3749 12.4688 28.3721H7.21875C6.03289 28.3688 4.87368 28.7269 3.89623 29.3983C2.28073 30.4975 1.31353 32.3245 1.3125 34.2784V36.9034C1.31481 38.6952 2.35737 40.3225 3.98492 41.0731C4.5858 41.3561 5.24231 41.501 5.90625 41.4971H12.4688V40.1846H6.5625V32.9659H5.25V40.1187C5.00288 40.0693 4.76294 39.9893 4.5353 39.8813C3.37277 39.3453 2.62756 38.1833 2.625 36.9034V34.2784C2.62654 32.7577 3.37994 31.3363 4.63707 30.4811C5.39663 29.9597 6.29718 29.682 7.21875 29.6846H12.4688C12.5844 29.6846 12.6959 29.6969 12.8087 29.7046C12.5867 30.3306 12.4716 30.9894 12.4688 31.6534V38.2159C12.4711 40.0272 13.9389 41.4948 15.75 41.4971H17.7188V30.9971H16.4063V40.1846H15.75C14.6628 40.1846 13.7813 39.303 13.7813 38.2159V31.6534C13.7813 29.116 15.8382 27.0596 18.375 27.0596H23.625C24.4694 27.0601 25.2969 27.2939 26.017 27.7348C26.0836 27.7712 26.1477 27.8122 26.2085 27.8574C26.8235 28.2785 27.3282 28.8412 27.6799 29.498C28.0334 30.1614 28.2188 30.9015 28.2188 31.6534V38.2159C28.2188 39.303 27.3372 40.1846 26.25 40.1846H25.5938V30.9971H24.2813V41.4971H26.25C28.0614 41.4948 29.5289 40.0272 29.5313 38.2159V31.6534C29.5282 30.9894 29.4136 30.3309 29.1919 29.7046C29.3049 29.6969 29.4164 29.6846 29.5313 29.6846H34.7813C35.7033 29.682 36.6047 29.9604 37.3647 30.4824C38.6208 31.3381 39.3732 32.7585 39.375 34.2784V36.9034C39.3727 38.1879 38.6219 39.3533 37.4537 39.8865C37.2294 39.9926 36.993 40.0705 36.75 40.1187V32.9659H35.4375V40.1846H29.5313V41.4971H36.0938C36.7539 41.5012 37.4065 41.3582 38.0041 41.0782C39.637 40.33 40.6849 38.6996 40.6875 36.9034V34.2784C40.6865 32.3252 39.7201 30.499 38.1056 29.3995Z" fill="url(#paint5_linear_194_2779)"/>
<path d="M18.375 40.1846H23.625V41.4971H18.375V40.1846Z" fill="url(#paint6_linear_194_2779)"/>
<defs>
<linearGradient id="paint0_linear_194_2779" x1="21" y1="2.12207" x2="21" y2="23.7783" gradientUnits="userSpaceOnUse">
<stop stop-color="#FE4139"/>
<stop offset="1" stop-color="#FFBE36"/>
</linearGradient>
<linearGradient id="paint1_linear_194_2779" x1="21" y1="10.6533" x2="21" y2="19.8408" gradientUnits="userSpaceOnUse">
<stop stop-color="#FE4139"/>
<stop offset="1" stop-color="#FFBE36"/>
</linearGradient>
<linearGradient id="paint2_linear_194_2779" x1="21" y1="17.2158" x2="21" y2="25.0908" gradientUnits="userSpaceOnUse">
<stop stop-color="#FE4139"/>
<stop offset="1" stop-color="#FFBE36"/>
</linearGradient>
<linearGradient id="paint3_linear_194_2779" x1="32.1563" y1="19.8408" x2="32.1563" y2="27.7158" gradientUnits="userSpaceOnUse">
<stop stop-color="#FE4139"/>
<stop offset="1" stop-color="#FFBE36"/>
</linearGradient>
<linearGradient id="paint4_linear_194_2779" x1="9.84375" y1="19.8408" x2="9.84375" y2="27.7158" gradientUnits="userSpaceOnUse">
<stop stop-color="#FE4139"/>
<stop offset="1" stop-color="#FFBE36"/>
</linearGradient>
<linearGradient id="paint5_linear_194_2779" x1="21" y1="25.7471" x2="21" y2="41.4972" gradientUnits="userSpaceOnUse">
<stop stop-color="#FE4139"/>
<stop offset="1" stop-color="#FFBE36"/>
</linearGradient>
<linearGradient id="paint6_linear_194_2779" x1="21" y1="40.1846" x2="21" y2="41.4971" gradientUnits="userSpaceOnUse">
<stop stop-color="#FE4139"/>
<stop offset="1" stop-color="#FFBE36"/>
</linearGradient>
</defs>
</svg>
