<svg width="169" height="42" viewBox="0 0 169 42" fill="none" xmlns="http://www.w3.org/2000/svg">
<g clip-path="url(#clip0_226_9432)">
<path d="M49.5275 29.452H61.4795V25.852H53.7755V12.292H49.5275V29.452Z" fill="#101010"/>
<path d="M68.5607 27.0521C66.8567 27.0521 65.9687 25.5641 65.9687 23.3321C65.9687 21.1001 66.8567 19.5881 68.5607 19.5881C70.2647 19.5881 71.1767 21.1001 71.1767 23.3321C71.1767 25.5641 70.2647 27.0521 68.5607 27.0521ZM68.5847 29.8361C72.5447 29.8361 75.1367 27.0281 75.1367 23.3321C75.1367 19.6361 72.5447 16.8281 68.5847 16.8281C64.6487 16.8281 62.0087 19.6361 62.0087 23.3321C62.0087 27.0281 64.6487 29.8361 68.5847 29.8361Z" fill="#101010"/>
<path d="M81.9911 33.7007C83.8151 33.7007 85.4231 33.2927 86.5031 32.3327C87.4871 31.4447 88.1351 30.1007 88.1351 28.2527V17.1647H84.3911V18.4847H84.3431C83.6231 17.4527 82.5191 16.8047 80.8871 16.8047C77.8391 16.8047 75.7271 19.3487 75.7271 22.9487C75.7271 26.7167 78.2951 28.7807 81.0551 28.7807C82.5431 28.7807 83.4791 28.1807 84.1991 27.3647H84.2951V28.5887C84.2951 30.0767 83.5991 30.9407 81.9431 30.9407C80.6471 30.9407 79.9991 30.3887 79.7831 29.7407H75.9911C76.3751 32.3087 78.6071 33.7007 81.9911 33.7007ZM81.9671 25.8767C80.5031 25.8767 79.5431 24.6767 79.5431 22.8287C79.5431 20.9567 80.5031 19.7567 81.9671 19.7567C83.5991 19.7567 84.4631 21.1487 84.4631 22.8047C84.4631 24.5327 83.6711 25.8767 81.9671 25.8767Z" fill="#101010"/>
<path d="M95.8335 27.0521C94.1295 27.0521 93.2415 25.5641 93.2415 23.3321C93.2415 21.1001 94.1295 19.5881 95.8335 19.5881C97.5375 19.5881 98.4495 21.1001 98.4495 23.3321C98.4495 25.5641 97.5375 27.0521 95.8335 27.0521ZM95.8575 29.8361C99.8175 29.8361 102.409 27.0281 102.409 23.3321C102.409 19.6361 99.8175 16.8281 95.8575 16.8281C91.9215 16.8281 89.2815 19.6361 89.2815 23.3321C89.2815 27.0281 91.9215 29.8361 95.8575 29.8361Z" fill="#101010"/>
<path d="M103.552 29.452H107.464V17.164H103.552V29.452ZM103.552 15.46H107.464V12.292H103.552V15.46Z" fill="#101010"/>
<path d="M109.161 33.5087H113.073V28.1807H113.121C113.889 29.2127 115.017 29.8367 116.601 29.8367C119.817 29.8367 121.953 27.2927 121.953 23.3087C121.953 19.6127 119.961 16.8047 116.697 16.8047C115.017 16.8047 113.817 17.5487 112.977 18.6527H112.905V17.1647H109.161V33.5087ZM115.593 26.8127C113.913 26.8127 112.953 25.4447 112.953 23.4527C112.953 21.4607 113.817 19.9487 115.521 19.9487C117.201 19.9487 117.993 21.3407 117.993 23.4527C117.993 25.5407 117.081 26.8127 115.593 26.8127Z" fill="#101010"/>
<path d="M128.322 29.8367C131.538 29.8367 133.914 28.4447 133.914 25.7567C133.914 22.6127 131.37 22.0607 129.21 21.7007C127.65 21.4127 126.258 21.2927 126.258 20.4287C126.258 19.6607 127.002 19.3007 127.962 19.3007C129.042 19.3007 129.786 19.6367 129.93 20.7407H133.53C133.338 18.3167 131.466 16.8047 127.986 16.8047C125.082 16.8047 122.682 18.1487 122.682 20.7407C122.682 23.6207 124.962 24.1967 127.098 24.5567C128.73 24.8447 130.218 24.9647 130.218 26.0687C130.218 26.8607 129.474 27.2927 128.298 27.2927C127.002 27.2927 126.186 26.6927 126.042 25.4687H122.346C122.466 28.1807 124.722 29.8367 128.322 29.8367Z" fill="#101010"/>
<path d="M139.228 29.8121C140.932 29.8121 142.012 29.1401 142.9 27.9401H142.972V29.4521H146.716V17.1641H142.804V24.0281C142.804 25.4921 141.988 26.5001 140.644 26.5001C139.396 26.5001 138.796 25.7561 138.796 24.4121V17.1641H134.908V25.2281C134.908 27.9641 136.396 29.8121 139.228 29.8121Z" fill="#101010"/>
<path d="M148.418 29.4527H152.33V22.5647C152.33 21.1007 153.05 20.0687 154.274 20.0687C155.45 20.0687 156.002 20.8367 156.002 22.1567V29.4527H159.914V22.5647C159.914 21.1007 160.61 20.0687 161.858 20.0687C163.034 20.0687 163.586 20.8367 163.586 22.1567V29.4527H167.498V21.4607C167.498 18.7007 166.106 16.8047 163.322 16.8047C161.738 16.8047 160.418 17.4767 159.458 18.9647H159.41C158.786 17.6447 157.562 16.8047 155.954 16.8047C154.178 16.8047 153.002 17.6447 152.234 18.9167H152.162V17.1647H148.418V29.4527Z" fill="#101010"/>
<path d="M25.6599 2.47671L21.7269 1.42285L18.4125 13.7924L15.4202 2.62509L11.4871 3.67895L14.7201 15.7444L6.66746 7.69183L3.78827 10.571L12.621 19.4038L1.62124 16.4564L0.567383 20.3894L12.586 23.6098C12.4484 23.0163 12.3756 22.3979 12.3756 21.7625C12.3756 17.2649 16.0216 13.6189 20.5192 13.6189C25.0168 13.6189 28.6628 17.2649 28.6628 21.7625C28.6628 22.3938 28.5909 23.0084 28.455 23.5984L39.3777 26.5251L40.4315 22.5921L28.3651 19.3589L39.3656 16.4113L38.3117 12.4783L26.2458 15.7113L34.2984 7.65877L31.4192 4.77958L22.709 13.4898L25.6599 2.47671Z" fill="#FF4438"/>
<path d="M28.4444 23.6445C28.1072 25.0701 27.3953 26.3508 26.4185 27.3769L34.3315 35.29L37.2107 32.4108L28.4444 23.6445Z" fill="#FF4438"/>
<path d="M26.3384 27.46C25.3498 28.4697 24.1005 29.2232 22.6995 29.6115L25.5789 40.3575L29.5119 39.3036L26.3384 27.46Z" fill="#FF4438"/>
<path d="M22.5526 29.6503C21.9026 29.8174 21.2213 29.9062 20.5192 29.9062C19.767 29.9062 19.0386 29.8042 18.3471 29.6133L15.4651 40.3691L19.3981 41.4229L22.5526 29.6503Z" fill="#FF4438"/>
<path d="M18.2081 29.5739C16.8285 29.1663 15.6014 28.4032 14.633 27.3906L6.70056 35.3231L9.57975 38.2023L18.2081 29.5739Z" fill="#FF4438"/>
<path d="M14.5668 27.32C13.615 26.301 12.9217 25.0374 12.5917 23.6338L1.6333 26.5701L2.68715 30.5031L14.5668 27.32Z" fill="#FF4438"/>
</g>
<defs>
<clipPath id="clip0_226_9432">
<rect width="168" height="41" fill="white" transform="translate(0.25 0.5)"/>
</clipPath>
</defs>
</svg>
