<svg width="168" height="42" viewBox="0 0 168 42" fill="none" xmlns="http://www.w3.org/2000/svg">
<g clip-path="url(#clip0_226_9410)">
<path d="M49.3807 29.2938H61.3327V25.6938H53.6287V12.1338H49.3807V29.2938Z" fill="#101010"/>
<path d="M68.4139 26.8939C66.7099 26.8939 65.8219 25.4059 65.8219 23.1739C65.8219 20.9419 66.7099 19.4299 68.4139 19.4299C70.1179 19.4299 71.0299 20.9419 71.0299 23.1739C71.0299 25.4059 70.1179 26.8939 68.4139 26.8939ZM68.4379 29.6779C72.3979 29.6779 74.9899 26.8699 74.9899 23.1739C74.9899 19.4779 72.3979 16.6699 68.4379 16.6699C64.5019 16.6699 61.8619 19.4779 61.8619 23.1739C61.8619 26.8699 64.5019 29.6779 68.4379 29.6779Z" fill="#101010"/>
<path d="M81.8443 33.5415C83.6683 33.5415 85.2763 33.1335 86.3563 32.1735C87.3403 31.2855 87.9883 29.9415 87.9883 28.0935V17.0055H84.2443V18.3255H84.1963C83.4763 17.2935 82.3723 16.6455 80.7403 16.6455C77.6923 16.6455 75.5803 19.1895 75.5803 22.7895C75.5803 26.5575 78.1483 28.6215 80.9083 28.6215C82.3963 28.6215 83.3323 28.0215 84.0523 27.2055H84.1483V28.4295C84.1483 29.9175 83.4523 30.7815 81.7963 30.7815C80.5003 30.7815 79.8523 30.2295 79.6363 29.5815H75.8443C76.2283 32.1495 78.4603 33.5415 81.8443 33.5415ZM81.8203 25.7175C80.3563 25.7175 79.3963 24.5175 79.3963 22.6695C79.3963 20.7975 80.3563 19.5975 81.8203 19.5975C83.4523 19.5975 84.3163 20.9895 84.3163 22.6455C84.3163 24.3735 83.5243 25.7175 81.8203 25.7175Z" fill="#101010"/>
<path d="M95.6866 26.8939C93.9826 26.8939 93.0947 25.4059 93.0947 23.1739C93.0947 20.9419 93.9826 19.4299 95.6866 19.4299C97.3906 19.4299 98.3026 20.9419 98.3026 23.1739C98.3026 25.4059 97.3906 26.8939 95.6866 26.8939ZM95.7106 29.6779C99.6706 29.6779 102.263 26.8699 102.263 23.1739C102.263 19.4779 99.6706 16.6699 95.7106 16.6699C91.7746 16.6699 89.1346 19.4779 89.1346 23.1739C89.1346 26.8699 91.7746 29.6779 95.7106 29.6779Z" fill="#101010"/>
<path d="M103.405 29.2938H107.317V17.0058H103.405V29.2938ZM103.405 15.3018H107.317V12.1338H103.405V15.3018Z" fill="#101010"/>
<path d="M109.014 33.3495H112.926V28.0215H112.974C113.742 29.0535 114.87 29.6775 116.454 29.6775C119.67 29.6775 121.806 27.1335 121.806 23.1495C121.806 19.4535 119.814 16.6455 116.55 16.6455C114.87 16.6455 113.67 17.3895 112.83 18.4935H112.758V17.0055H109.014V33.3495ZM115.446 26.6535C113.766 26.6535 112.806 25.2855 112.806 23.2935C112.806 21.3015 113.67 19.7895 115.374 19.7895C117.054 19.7895 117.846 21.1815 117.846 23.2935C117.846 25.3815 116.934 26.6535 115.446 26.6535Z" fill="#101010"/>
<path d="M128.176 29.6775C131.392 29.6775 133.768 28.2855 133.768 25.5975C133.768 22.4535 131.224 21.9015 129.064 21.5415C127.504 21.2535 126.112 21.1335 126.112 20.2695C126.112 19.5015 126.856 19.1415 127.816 19.1415C128.896 19.1415 129.64 19.4775 129.784 20.5815H133.384C133.192 18.1575 131.32 16.6455 127.84 16.6455C124.936 16.6455 122.536 17.9895 122.536 20.5815C122.536 23.4615 124.816 24.0375 126.952 24.3975C128.584 24.6855 130.072 24.8055 130.072 25.9095C130.072 26.7015 129.328 27.1335 128.152 27.1335C126.856 27.1335 126.04 26.5335 125.896 25.3095H122.2C122.32 28.0215 124.576 29.6775 128.176 29.6775Z" fill="#101010"/>
<path d="M139.081 29.6539C140.785 29.6539 141.865 28.9819 142.753 27.7819H142.825V29.2939H146.569V17.0059H142.657V23.8699C142.657 25.3339 141.841 26.3419 140.497 26.3419C139.249 26.3419 138.649 25.5979 138.649 24.2539V17.0059H134.761V25.0699C134.761 27.8059 136.249 29.6539 139.081 29.6539Z" fill="#101010"/>
<path d="M148.271 29.2935H152.183V22.4055C152.183 20.9415 152.903 19.9095 154.127 19.9095C155.303 19.9095 155.855 20.6775 155.855 21.9975V29.2935H159.767V22.4055C159.767 20.9415 160.463 19.9095 161.711 19.9095C162.887 19.9095 163.439 20.6775 163.439 21.9975V29.2935H167.351V21.3015C167.351 18.5415 165.959 16.6455 163.175 16.6455C161.591 16.6455 160.271 17.3175 159.311 18.8055H159.263C158.639 17.4855 157.415 16.6455 155.807 16.6455C154.031 16.6455 152.855 17.4855 152.087 18.7575H152.015V17.0055H148.271V29.2935Z" fill="#101010"/>
<path fill-rule="evenodd" clip-rule="evenodd" d="M9.40417 4.39181C7.97351 5.39217 6.67981 6.57492 5.55676 7.90634C10.1461 7.48027 15.9766 8.17599 22.7458 11.5606C29.9744 15.1748 35.7952 15.297 39.8462 14.5156C39.4786 13.4027 39.0158 12.3331 38.4677 11.3163C33.8304 11.8054 27.8854 11.158 20.957 7.69392C16.5574 5.49412 12.6792 4.58795 9.40417 4.39181ZM35.7588 7.46059C32.0967 3.36894 26.7748 0.793945 20.8514 0.793945C19.1119 0.793945 17.4241 1.01605 15.8151 1.43343C17.9943 2.02803 20.3093 2.89793 22.7458 4.11621C27.8184 6.65247 32.1978 7.4691 35.7588 7.46059ZM40.7123 18.422C35.8183 19.3884 29.0602 19.1899 20.957 15.1383C13.3814 11.3505 7.35187 11.3982 3.28534 12.3019C3.07544 12.3485 2.87048 12.3975 2.67047 12.4485C2.13806 13.6064 1.71307 14.824 1.40814 16.0884C1.73383 16.0014 2.07037 15.9187 2.4176 15.8415C7.35101 14.7452 14.3215 14.7928 22.7458 19.005C30.3215 22.7928 36.351 22.7451 40.4176 21.8414C40.5569 21.8105 40.6942 21.7785 40.8292 21.7455C40.844 21.4302 40.8514 21.1129 40.8514 20.7939C40.8514 19.9914 40.8042 19.1999 40.7123 18.422ZM40.1762 25.9662C35.3297 26.8135 28.7684 26.4883 20.957 22.5827C13.3814 18.7949 7.35187 18.8426 3.28534 19.7463C2.38269 19.9468 1.57068 20.1911 0.85437 20.449C0.852417 20.5637 0.85144 20.6787 0.85144 20.7939C0.85144 31.8396 9.80573 40.7939 20.8514 40.7939C30.1085 40.7939 37.8967 34.5048 40.1762 25.9662Z" fill="#FF4438"/>
</g>
<defs>
<clipPath id="clip0_226_9410">
<rect width="167" height="41" fill="white" transform="translate(0.75 0.5)"/>
</clipPath>
</defs>
</svg>
