<svg width="24" height="25" viewBox="0 0 24 25" fill="none" xmlns="http://www.w3.org/2000/svg">
<path d="M9.36556 11.1821C10.302 12.8288 11.6712 14.198 13.3179 15.1344L14.2024 13.8961C14.4965 13.4845 15.0516 13.3573 15.4956 13.5998C16.9024 14.3683 18.4571 14.8353 20.0789 14.9637C20.599 15.0049 21 15.4389 21 15.9606V20.4234C21 20.9361 20.6122 21.3657 20.1022 21.4181C19.5723 21.4726 19.0377 21.5 18.5 21.5C9.93959 21.5 3 14.5604 3 6C3 5.46227 3.02742 4.92771 3.08189 4.39776C3.1343 3.88775 3.56394 3.5 4.07665 3.5H8.53942C9.0611 3.5 9.49513 3.90104 9.5363 4.42109C9.66467 6.04288 10.1317 7.59764 10.9002 9.00444C11.1427 9.4484 11.0155 10.0035 10.6039 10.2976L9.36556 11.1821ZM6.84425 10.5252L8.7442 9.16809C8.20547 8.00514 7.83628 6.77183 7.64727 5.5H5.00907C5.00303 5.66632 5 5.833 5 6C5 13.4558 11.0442 19.5 18.5 19.5C18.667 19.5 18.8337 19.497 19 19.4909V16.8527C17.7282 16.6637 16.4949 16.2945 15.3319 15.7558L13.9748 17.6558C13.4258 17.4425 12.8956 17.1915 12.3874 16.9061L12.3293 16.873C10.3697 15.7587 8.74134 14.1303 7.627 12.1707L7.59394 12.1126C7.30849 11.6044 7.05754 11.0742 6.84425 10.5252Z" fill="#101010"/>
</svg>
