<svg width="55" height="55" viewBox="0 0 55 55" fill="none" xmlns="http://www.w3.org/2000/svg">
<path d="M36.6561 19.1733C36.6561 18.6987 37.0409 18.3139 37.5155 18.3139H54.1406C54.6152 18.3139 55 18.6987 55 19.1733C55 19.6479 54.6152 20.0327 54.1406 20.0327H37.5155C37.0409 20.0327 36.6561 19.648 36.6561 19.1733ZM0 12.0967C0 5.42663 5.42652 0 12.0966 0C18.7666 0 24.1931 5.42663 24.1931 12.0967C24.1931 18.7667 18.7666 24.1932 12.0966 24.1932C5.42652 24.1932 0 18.7667 0 12.0967ZM22.4381 12.9606L13.599 12.9567L18.0764 20.5737C20.514 18.8491 22.1781 16.101 22.4381 12.9606ZM12.9559 1.75463V11.2376L22.4388 11.2418C22.026 6.20136 17.9957 2.16981 12.9559 1.75463ZM1.71875 12.0967C1.71875 17.819 6.3742 22.4745 12.0966 22.4745C13.7078 22.4745 15.2344 22.1054 16.5963 21.4473L11.3557 12.5322C11.278 12.4001 11.2371 12.2497 11.2371 12.0967V1.75463C5.9154 2.19302 1.71875 6.6637 1.71875 12.0967ZM37.5155 2.28121H54.1406C54.6152 2.28121 55 1.89643 55 1.42184C55 0.947246 54.6152 0.562461 54.1406 0.562461H37.5155C37.0409 0.562461 36.6561 0.947246 36.6561 1.42184C36.6561 1.89643 37.0409 2.28121 37.5155 2.28121ZM37.5155 5.8792H45.828C46.3026 5.8792 46.6874 5.49441 46.6874 5.01982C46.6874 4.54523 46.3026 4.16045 45.828 4.16045H37.5155C37.0409 4.16045 36.6561 4.54523 36.6561 5.01982C36.6561 5.49441 37.0409 5.8792 37.5155 5.8792ZM28.0932 5.58229V0.859375C28.0932 0.384785 28.478 0 28.9526 0H33.6755C34.1501 0 34.5348 0.384785 34.5348 0.859375V5.58229C34.5348 6.05687 34.1501 6.44166 33.6755 6.44166H28.9526C28.478 6.44166 28.0932 6.05687 28.0932 5.58229ZM29.8119 4.72291H32.8161V1.71875H29.8119V4.72291ZM37.5155 11.1569H54.1406C54.6152 11.1569 55 10.7722 55 10.2976C55 9.82298 54.6152 9.43819 54.1406 9.43819H37.5155C37.0409 9.43819 36.6561 9.82298 36.6561 10.2976C36.6561 10.7722 37.0409 11.1569 37.5155 11.1569ZM37.5155 14.7549H45.828C46.3026 14.7549 46.6874 14.3701 46.6874 13.8956C46.6874 13.421 46.3026 13.0362 45.828 13.0362H37.5155C37.0409 13.0362 36.6561 13.421 36.6561 13.8956C36.6561 14.3701 37.0409 14.7549 37.5155 14.7549ZM28.0932 14.458V9.73511C28.0932 9.26052 28.478 8.87573 28.9526 8.87573H33.6755C34.1501 8.87573 34.5348 9.26052 34.5348 9.73511V14.458C34.5348 14.9326 34.1501 15.3174 33.6755 15.3174H28.9526C28.478 15.3174 28.0932 14.9327 28.0932 14.458ZM29.8119 13.5986H32.8161V10.5945H29.8119V13.5986ZM7.43574 34.52V54.1406C7.43574 54.6152 7.05096 55 6.57637 55H0.859375C0.384785 55 0 54.6152 0 54.1406V34.52C0 34.0454 0.384785 33.6606 0.859375 33.6606H6.57637C7.05096 33.6606 7.43574 34.0453 7.43574 34.52ZM5.71699 35.3794H1.71875V53.2812H5.71699V35.3794ZM54.4745 50.0255L52.2807 52.2863C51.9156 52.6626 51.4289 52.8517 50.9418 52.8517C50.4736 52.8517 50.0049 52.677 49.643 52.3258L43.5668 46.4296C43.21 46.0836 43.0094 45.6181 43.0018 45.1189C42.9979 44.8572 43.0486 44.6038 43.1463 44.37L40.8077 42.1007C39.9854 42.716 39.0812 43.2271 38.115 43.6159V54.1406C38.115 54.6152 37.7302 55 37.2556 55H31.5387C31.0641 55 30.6794 54.6152 30.6794 54.1406V44.0906C29.6376 43.8197 28.6507 43.4113 27.7396 42.8858V54.1406C27.7396 54.6152 27.3548 55 26.8802 55H21.1633C20.6887 55 20.3039 54.6152 20.3039 54.1406V37.4204C20.3039 36.9458 20.6887 36.561 21.1633 36.561H22.4492C21.9996 35.3065 21.7538 33.9557 21.7538 32.5484C21.7538 27.9902 24.3251 24.0217 28.0932 22.0157V18.6108C28.0932 18.1362 28.478 17.7515 28.9526 17.7515H33.6755C34.1501 17.7515 34.5348 18.1362 34.5348 18.6108V20.6551C36.155 20.7707 37.6866 21.2111 39.0647 21.9119H45.828C46.3026 21.9119 46.6874 22.2967 46.6874 22.7713C46.6874 23.2459 46.3026 23.6307 45.828 23.6307H41.5848C44.0476 25.8167 45.6024 29.0041 45.6024 32.5484C45.6024 34.8255 44.9605 36.9553 43.8485 38.767L46.2872 41.1334C46.5181 41.0287 46.7699 40.9704 47.0314 40.9665C47.5326 40.959 48.0018 41.1456 48.3585 41.4918L54.4347 47.3881C55.1728 48.1044 55.1907 49.2875 54.4745 50.0255ZM42.8346 40.178C42.6052 40.4529 42.3641 40.7176 42.1112 40.9707L44.2504 43.0465L44.9974 42.2767L42.8346 40.178ZM29.8119 21.2678C30.765 20.9403 31.7721 20.7304 32.8161 20.6555V19.4702H29.8119V21.2678ZM23.4726 32.5484C23.4726 38.1757 28.0509 42.7539 33.6783 42.7539C39.3057 42.7539 43.8838 38.1757 43.8838 32.5484C43.8838 26.921 39.3057 22.3429 33.6783 22.3429C28.0509 22.3429 23.4726 26.921 23.4726 32.5484ZM26.0208 41.6814C24.8917 40.7332 23.9403 39.5801 23.2244 38.2798H22.0227V53.2812H26.0208V41.6814ZM36.3963 44.1598C35.5229 44.3643 34.6129 44.4727 33.6782 44.4727C33.2457 44.4727 32.8188 44.4489 32.3981 44.4038V53.2812H36.3963V44.1598ZM53.2379 48.6214L47.1616 42.7251C47.1277 42.6921 47.0881 42.6849 47.06 42.6849C47.0592 42.6849 47.0583 42.6849 47.0575 42.6849C47.0292 42.6854 46.9884 42.6932 46.9545 42.7281L44.7607 44.989C44.7268 45.0239 44.7202 45.065 44.7206 45.0932C44.721 45.1215 44.7289 45.1622 44.7637 45.1961L50.8401 51.0925C50.8963 51.147 50.9931 51.1455 51.0474 51.0895L53.2412 48.8286C53.2954 48.7726 53.2939 48.6758 53.2379 48.6214ZM17.3643 29.503V54.1406C17.3643 54.6152 16.9795 55 16.5049 55H10.7879C10.3134 55 9.92857 54.6152 9.92857 54.1406V29.503C9.92857 29.0284 10.3134 28.6436 10.7879 28.6436H16.5049C16.9794 28.6436 17.3643 29.0284 17.3643 29.503ZM15.6456 30.3624H11.6473V53.2812H15.6456V30.3624ZM24.7622 32.5484C24.7622 27.6321 28.7619 23.6324 33.6783 23.6324C38.5946 23.6324 42.5943 27.6321 42.5943 32.5484C42.5943 37.4647 38.5946 41.4644 33.6783 41.4644C28.7619 41.4644 24.7622 37.4647 24.7622 32.5484ZM33.6783 39.7457C35.4615 39.7457 37.0941 39.0923 38.3527 38.0143C37.9154 35.8035 35.9763 34.1848 33.6783 34.1848C31.3802 34.1848 29.4412 35.8035 29.0038 38.0145C30.2625 39.0923 31.8951 39.7457 33.6783 39.7457ZM33.6783 32.466C34.7729 32.466 35.6634 31.5754 35.6634 30.4807C35.6634 29.3861 34.7729 28.4956 33.6783 28.4956C32.5836 28.4956 31.6931 29.3861 31.6931 30.4807C31.6931 31.5754 32.5835 32.466 33.6783 32.466ZM26.481 32.5484C26.481 34.008 26.919 35.3668 27.6688 36.5025C28.2965 34.9537 29.4996 33.718 31.0039 33.0394C30.3669 32.3738 29.9744 31.4726 29.9744 30.4807C29.9744 28.4383 31.636 26.7768 33.6783 26.7768C35.7206 26.7768 37.3822 28.4384 37.3822 30.4807C37.3822 31.4726 36.9895 32.3738 36.3526 33.0394C37.857 33.718 39.0601 34.9537 39.6878 36.5025C40.4375 35.3668 40.8755 34.0082 40.8755 32.5484C40.8755 28.5798 37.6469 25.3511 33.6783 25.3511C29.7097 25.3511 26.481 28.5798 26.481 32.5484Z" fill="url(#paint0_linear_431_203)"/>
<defs>
<linearGradient id="paint0_linear_431_203" x1="27.5001" y1="0" x2="27.5001" y2="55" gradientUnits="userSpaceOnUse">
<stop stop-color="#FE4139"/>
<stop offset="1" stop-color="#FFBE36"/>
</linearGradient>
</defs>
</svg>
